<svg width="882" height="783" viewBox="0 0 882 783" fill="none" xmlns="http://www.w3.org/2000/svg">
<path d="M157.25 725.04C157.25 725.04 102.25 683.46 91.86 630.57C87.6465 608.356 76.3449 588.107 59.65 572.86C51.6635 565.688 43.0375 559.261 33.88 553.66" stroke="#535461" stroke-width="2" stroke-miterlimit="10"/>
<path d="M27.15 520.34C31.97 526.86 34.15 554.49 34.15 554.49C34.15 554.49 8.38001 544.34 3.55001 537.83C1.23069 534.7 0.249573 530.778 0.822497 526.925C1.39542 523.072 3.47544 519.604 6.605 517.285C9.73455 514.966 13.6573 513.985 17.5102 514.557C21.3631 515.13 24.8307 517.21 27.15 520.34V520.34Z" fill="#6C63FF"/>
<path d="M73.37 542.02C73.87 550.11 60.7 574.49 60.7 574.49C60.7 574.49 44.57 551.95 44.06 543.86C43.866 540.003 45.1996 536.225 47.7717 533.345C50.3438 530.464 53.9473 528.714 57.8014 528.472C61.6555 528.229 65.4497 529.516 68.362 532.052C71.2742 534.588 73.0699 538.169 73.36 542.02H73.37Z" fill="#6C63FF"/>
<path d="M118.17 604.34C114.53 611.58 90.84 625.98 90.84 625.98C90.84 625.98 88.31 598.38 91.95 591.14C93.7419 587.735 96.7987 585.17 100.463 583.997C104.127 582.823 108.105 583.135 111.542 584.865C114.978 586.595 117.598 589.605 118.838 593.247C120.078 596.889 119.838 600.873 118.17 604.34V604.34Z" fill="#6C63FF"/>
<path d="M141.46 659.1C139.09 666.85 118.18 685.04 118.18 685.04C118.18 685.04 111.01 658.27 113.38 650.51C114.519 646.786 117.091 643.668 120.529 641.84C123.968 640.013 127.991 639.626 131.715 640.765C135.439 641.904 138.557 644.476 140.385 647.914C142.212 651.353 142.599 655.376 141.46 659.1V659.1Z" fill="#6C63FF"/>
<path d="M36.86 594.09C44.86 595.17 70.15 583.75 70.15 583.75C70.15 583.75 48.81 566.07 40.77 564.99C36.9111 564.472 33.0043 565.507 29.909 567.869C26.8137 570.231 24.7835 573.726 24.265 577.585C23.7465 581.444 24.7822 585.351 27.1442 588.446C29.5062 591.541 33.0011 593.572 36.86 594.09V594.09Z" fill="#6C63FF"/>
<path d="M64.91 657.8C72.91 656.43 93.58 637.98 93.58 637.98C93.58 637.98 67.92 627.5 59.93 628.87C58.017 629.184 56.1851 629.873 54.5399 630.898C52.8948 631.924 51.469 633.265 50.3449 634.844C49.2208 636.423 48.4206 638.21 47.9905 640.1C47.5604 641.99 47.509 643.947 47.8391 645.857C48.1693 647.767 48.8745 649.593 49.914 651.229C50.9536 652.865 52.3069 654.279 53.8959 655.39C55.4848 656.5 57.278 657.285 59.1719 657.699C61.0657 658.112 63.0227 658.147 64.93 657.8H64.91Z" fill="#6C63FF"/>
<path d="M100.66 715.99C108.77 715.99 132.27 701.3 132.27 701.3C132.27 701.3 108.76 686.63 100.65 686.63C96.7566 686.63 93.0227 688.177 90.2697 690.93C87.5166 693.683 85.97 697.417 85.97 701.31C85.97 705.203 87.5166 708.937 90.2697 711.69C93.0227 714.443 96.7566 715.99 100.65 715.99H100.66Z" fill="#6C63FF"/>
<path d="M691.55 365.41C691.55 365.41 725.45 305.36 776.55 288.06C798.007 280.934 816.576 267.043 829.47 248.47C835.517 239.591 840.736 230.174 845.06 220.34" stroke="#535461" stroke-width="2" stroke-miterlimit="10"/>
<path d="M877.14 209.34C871.32 214.98 844.23 220.82 844.23 220.82C844.23 220.82 850.88 193.92 856.7 188.27C859.509 185.64 863.239 184.218 867.086 184.311C870.933 184.403 874.59 186.003 877.27 188.765C879.949 191.527 881.437 195.231 881.413 199.079C881.389 202.927 879.854 206.612 877.14 209.34Z" fill="#6C63FF"/>
<path d="M861.82 257.97C853.82 259.55 827.95 249.73 827.95 249.73C827.95 249.73 848.15 230.73 856.1 229.18C858.009 228.756 859.983 228.718 861.907 229.068C863.831 229.418 865.665 230.149 867.303 231.217C868.94 232.286 870.348 233.67 871.443 235.29C872.538 236.91 873.298 238.733 873.679 240.651C874.06 242.568 874.054 244.543 873.662 246.459C873.269 248.374 872.498 250.192 871.393 251.805C870.288 253.418 868.872 254.795 867.229 255.853C865.585 256.912 863.746 257.632 861.82 257.97V257.97Z" fill="#6C63FF"/>
<path d="M806.06 310.65C798.4 308 780.99 286.44 780.99 286.44C780.99 286.44 807.99 280.26 815.67 282.91C817.515 283.522 819.22 284.495 820.687 285.771C822.153 287.048 823.351 288.603 824.212 290.346C825.072 292.089 825.578 293.986 825.699 295.926C825.821 297.867 825.556 299.812 824.919 301.649C824.283 303.486 823.288 305.178 821.992 306.627C820.696 308.077 819.126 309.254 817.371 310.092C815.617 310.929 813.713 311.41 811.772 311.506C809.83 311.601 807.888 311.311 806.06 310.65V310.65Z" fill="#6C63FF"/>
<path d="M754.82 341.01C746.82 339.69 726.06 321.34 726.06 321.34C726.06 321.34 751.65 310.68 759.64 312C763.486 312.633 766.923 314.767 769.195 317.933C771.467 321.1 772.388 325.039 771.755 328.885C771.122 332.731 768.988 336.168 765.822 338.44C762.655 340.712 758.716 341.633 754.87 341L754.82 341.01Z" fill="#6C63FF"/>
<path d="M805.36 228.7C805.35 236.81 820.06 260.34 820.06 260.34C820.06 260.34 834.75 236.84 834.75 228.74C834.801 226.781 834.459 224.831 833.745 223.006C833.03 221.18 831.958 219.517 830.59 218.113C829.222 216.709 827.587 215.593 825.781 214.831C823.975 214.069 822.035 213.677 820.075 213.677C818.115 213.677 816.175 214.069 814.369 214.831C812.563 215.593 810.928 216.709 809.56 218.113C808.192 219.517 807.12 221.18 806.405 223.006C805.691 224.831 805.349 226.781 805.4 228.74L805.36 228.7Z" fill="#6C63FF"/>
<path d="M745.93 264.96C748.35 272.7 769.39 290.75 769.39 290.75C769.39 290.75 776.39 263.93 773.95 256.19C772.685 252.604 770.077 249.649 766.677 247.947C763.276 246.245 759.348 245.929 755.719 247.066C752.09 248.202 749.044 250.703 747.222 254.041C745.399 257.378 744.944 261.293 745.95 264.96H745.93Z" fill="#6C63FF"/>
<path d="M693.06 308.13C694.14 316.13 711.82 337.5 711.82 337.5C711.82 337.5 723.23 312.25 722.15 304.22C721.936 302.274 721.335 300.391 720.382 298.681C719.429 296.972 718.144 295.47 716.602 294.264C715.06 293.058 713.293 292.172 711.404 291.66C709.515 291.147 707.543 291.017 705.603 291.278C703.663 291.538 701.795 292.185 700.108 293.178C698.421 294.171 696.951 295.492 695.782 297.062C694.613 298.632 693.77 300.42 693.303 302.321C692.836 304.222 692.753 306.197 693.06 308.13V308.13Z" fill="#6C63FF"/>
<path opacity="0.25" d="M877.14 209.34C871.32 214.98 844.23 220.82 844.23 220.82C844.23 220.82 850.88 193.92 856.7 188.27C859.509 185.64 863.239 184.218 867.086 184.311C870.933 184.403 874.59 186.003 877.27 188.765C879.949 191.527 881.437 195.231 881.413 199.079C881.389 202.927 879.854 206.612 877.14 209.34Z" fill="black"/>
<path opacity="0.25" d="M861.82 257.97C853.82 259.55 827.95 249.73 827.95 249.73C827.95 249.73 848.15 230.73 856.1 229.18C858.009 228.756 859.983 228.718 861.907 229.068C863.831 229.418 865.665 230.149 867.303 231.217C868.94 232.286 870.348 233.67 871.443 235.29C872.538 236.91 873.298 238.733 873.679 240.651C874.06 242.568 874.054 244.543 873.662 246.459C873.269 248.374 872.498 250.192 871.393 251.805C870.288 253.418 868.872 254.795 867.229 255.853C865.585 256.912 863.746 257.632 861.82 257.97V257.97Z" fill="black"/>
<path opacity="0.25" d="M806.06 310.65C798.4 308 780.99 286.44 780.99 286.44C780.99 286.44 807.99 280.26 815.67 282.91C817.515 283.522 819.22 284.495 820.687 285.771C822.153 287.048 823.351 288.603 824.212 290.346C825.072 292.089 825.578 293.986 825.699 295.926C825.821 297.867 825.556 299.812 824.919 301.649C824.283 303.486 823.288 305.178 821.992 306.627C820.696 308.077 819.126 309.254 817.371 310.092C815.617 310.929 813.713 311.41 811.772 311.506C809.83 311.601 807.888 311.311 806.06 310.65V310.65Z" fill="black"/>
<path opacity="0.25" d="M754.82 341.01C746.82 339.69 726.06 321.34 726.06 321.34C726.06 321.34 751.65 310.68 759.64 312C763.486 312.633 766.923 314.767 769.195 317.933C771.467 321.1 772.388 325.039 771.755 328.885C771.122 332.731 768.988 336.168 765.822 338.44C762.655 340.712 758.716 341.633 754.87 341L754.82 341.01Z" fill="black"/>
<path opacity="0.25" d="M805.36 228.7C805.35 236.81 820.06 260.34 820.06 260.34C820.06 260.34 834.75 236.84 834.75 228.74C834.801 226.781 834.459 224.831 833.745 223.006C833.03 221.18 831.958 219.517 830.59 218.113C829.222 216.709 827.587 215.593 825.781 214.831C823.975 214.069 822.035 213.677 820.075 213.677C818.115 213.677 816.175 214.069 814.369 214.831C812.563 215.593 810.928 216.709 809.56 218.113C808.192 219.517 807.12 221.18 806.405 223.006C805.691 224.831 805.349 226.781 805.4 228.74L805.36 228.7Z" fill="black"/>
<path opacity="0.25" d="M745.93 264.96C748.35 272.7 769.39 290.75 769.39 290.75C769.39 290.75 776.39 263.93 773.95 256.19C772.685 252.604 770.077 249.649 766.677 247.947C763.276 246.245 759.348 245.929 755.719 247.066C752.09 248.202 749.044 250.703 747.222 254.041C745.399 257.378 744.944 261.293 745.95 264.96H745.93Z" fill="black"/>
<path opacity="0.25" d="M693.06 308.13C694.14 316.13 711.82 337.5 711.82 337.5C711.82 337.5 723.23 312.25 722.15 304.22C721.936 302.274 721.335 300.391 720.382 298.681C719.429 296.972 718.144 295.47 716.602 294.264C715.06 293.058 713.293 292.172 711.404 291.66C709.515 291.147 707.543 291.017 705.603 291.278C703.663 291.538 701.795 292.185 700.108 293.178C698.421 294.171 696.951 295.492 695.782 297.062C694.613 298.632 693.77 300.42 693.303 302.321C692.836 304.222 692.753 306.197 693.06 308.13V308.13Z" fill="black"/>
<path d="M693.5 364.22C693.5 364.22 700.16 295.58 739.82 259.08C756.548 243.868 767.895 223.644 772.16 201.44C774.101 190.884 775.068 180.173 775.05 169.44" stroke="#535461" stroke-width="2" stroke-miterlimit="10"/>
<path d="M799.91 146.28C796.91 153.8 774.47 170.12 774.47 170.12C774.47 170.12 769.65 142.83 772.68 135.31C774.139 131.699 776.972 128.815 780.557 127.294C784.142 125.772 788.184 125.736 791.795 127.195C795.406 128.654 798.289 131.487 799.811 135.072C801.333 138.657 801.369 142.699 799.91 146.31V146.28Z" fill="#6C63FF"/>
<path d="M805.62 197C798.99 201.66 771.32 203.19 771.32 203.19C771.32 203.19 782.1 177.65 788.73 172.99C790.302 171.813 792.095 170.964 794.001 170.492C795.908 170.021 797.89 169.937 799.829 170.245C801.769 170.553 803.627 171.247 805.293 172.286C806.96 173.325 808.401 174.688 809.531 176.294C810.662 177.9 811.458 179.717 811.874 181.636C812.289 183.556 812.316 185.539 811.951 187.469C811.586 189.399 810.838 191.236 809.75 192.871C808.663 194.507 807.258 195.907 805.62 196.99V197Z" fill="#6C63FF"/>
<path d="M775.96 267.78C767.88 268.46 743.22 255.78 743.22 255.78C743.22 255.78 765.42 239.18 773.5 238.5C777.38 238.174 781.231 239.402 784.205 241.915C787.18 244.428 789.034 248.02 789.36 251.9C789.686 255.78 788.458 259.631 785.945 262.605C783.432 265.58 779.84 267.434 775.96 267.76V267.78Z" fill="#6C63FF"/>
<path d="M741.45 316.27C733.6 318.27 707.16 310 707.16 310C707.16 310 726.23 289.89 734.08 287.85C737.849 286.873 741.851 287.433 745.207 289.406C748.563 291.38 750.998 294.606 751.975 298.375C752.952 302.144 752.393 306.146 750.419 309.502C748.445 312.858 745.219 315.293 741.45 316.27V316.27Z" fill="#6C63FF"/>
<path d="M742.15 193.12C745.43 200.53 768.37 216.12 768.37 216.12C768.37 216.12 772.27 188.68 768.99 181.27C767.356 177.803 764.43 175.113 760.839 173.774C757.247 172.436 753.275 172.555 749.77 174.106C746.265 175.657 743.506 178.518 742.082 182.076C740.658 185.635 740.683 189.609 742.15 193.15V193.12Z" fill="#6C63FF"/>
<path d="M702.51 250.34C707.86 256.43 734.4 264.41 734.4 264.41C734.4 264.41 729.92 237.06 724.57 230.97C723.307 229.491 721.763 228.277 720.027 227.399C718.291 226.522 716.398 225.998 714.458 225.858C712.518 225.719 710.569 225.966 708.726 226.586C706.882 227.206 705.18 228.186 703.718 229.469C702.257 230.753 701.065 232.314 700.212 234.062C699.359 235.81 698.861 237.71 698.749 239.652C698.636 241.594 698.911 243.539 699.557 245.373C700.202 247.208 701.206 248.896 702.51 250.34V250.34Z" fill="#6C63FF"/>
<path d="M671.62 311.26C675.86 318.16 700.67 330.51 700.67 330.51C700.67 330.51 700.88 302.8 696.67 295.89C694.574 292.699 691.318 290.451 687.592 289.621C683.866 288.791 679.964 289.445 676.712 291.444C673.46 293.443 671.115 296.63 670.173 300.33C669.232 304.029 669.769 307.95 671.67 311.26H671.62Z" fill="#6C63FF"/>
<path d="M642.5 95.41C644.16 89.32 646.16 83.2 647.56 77.03C645.88 83.2 643.87 89.34 642.5 95.41Z" fill="url(#paint0_linear)"/>
<path d="M635.06 154.07C634.92 153.83 634.82 153.59 634.71 153.37C634.71 153.27 634.61 153.19 634.57 153.09C634.352 153.193 634.128 153.283 633.9 153.36C633.46 153.53 633.01 153.69 632.55 153.82C632.09 153.95 631.9 154.02 631.55 154.1C631.26 154.2 630.962 154.277 630.66 154.33L630.74 154.51C631.11 154.43 631.47 154.36 631.84 154.26L631.94 155.5C632.36 155.5 632.75 155.44 633.13 155.44C633.31 155.43 633.49 155.43 633.67 155.44C634.45 155.44 635.13 155.44 635.67 155.44C635.46 154.99 635.24 154.52 635.06 154.07ZM838.06 477.2C833.36 470.87 823.98 402.93 823.98 402.93C823.98 402.93 805.53 354.62 810.56 335.34C815.59 316.06 796.82 266.73 796.82 266.73C796.82 266.73 784.42 261.34 783.75 253.34C783.75 253.34 733.12 237.34 730.75 225.34C728.83 215.5 697.43 208.44 686.15 206.21C682.71 192.33 679.25 179.38 676.7 172.31C676.01 170.11 675.36 168.21 674.76 166.71C670.45 155.71 657.13 154.71 647.47 155.59C647.051 153.715 646.274 151.939 645.18 150.36C645.02 149.817 644.704 149.334 644.27 148.97C644.063 148.793 643.842 148.633 643.61 148.49C643.435 148.166 643.205 147.875 642.93 147.63C642.656 147.383 642.354 147.168 642.03 146.99C641.798 146.864 641.557 146.754 641.31 146.66C640.731 146.439 640.131 146.275 639.52 146.17C638.808 146.024 638.086 145.93 637.36 145.89C639.125 145.118 640.699 143.967 641.97 142.52C642.835 141.504 643.478 140.319 643.86 139.04C644.177 137.977 644.319 136.869 644.28 135.76C644.021 136.217 643.719 136.649 643.38 137.05C643.8 132.62 641.46 128.12 640.12 123.71C638.496 117.969 638.196 111.934 639.24 106.06C640.58 97.2 643.9 88.24 646.15 79.22C646.156 79.1702 646.156 79.1199 646.15 79.07C647.33 74.5905 648.06 70.0045 648.33 65.38C648.72 56.05 646.33 46.74 642.49 38.24C639.08 30.71 634.05 23.3 626.35 20.24C620.63 17.93 614.22 18.3 608.06 17.92C594.24 17.06 581.06 12.2 567.92 7.78002C554.78 3.36002 541.26 -0.65998 527.43 0.11002C513.6 0.88002 499.37 7.55002 493.06 19.79C491.06 23.61 489.91 27.86 487.52 31.45C483.04 38.22 475.02 41.61 468.33 46.28C461.64 50.95 455.75 57.58 453.33 65.49C452.008 69.7516 451.822 74.2844 452.79 78.64V78.64C453.008 79.6237 453.288 80.5923 453.63 81.54C454.579 84.1823 456.06 86.602 457.98 88.65C459.428 90.1637 461.093 91.4543 462.92 92.48V92.48C465.214 93.7517 467.67 94.707 470.22 95.32C470.13 95.62 470.04 95.94 469.94 96.25C469.78 96.76 469.64 97.25 469.49 97.8C469.16 99.03 468.85 100.28 468.59 101.54C468.58 101.63 468.58 101.72 468.59 101.81C467.362 107.498 466.745 113.301 466.75 119.12C466.748 121.872 466.888 124.622 467.17 127.36V127.36C471.17 167.94 504.67 199.95 546.06 202.03C547.48 202.1 548.91 202.14 550.36 202.14C551.02 202.14 551.67 202.14 552.36 202.14C553.01 203 553.65 203.88 554.26 204.74C554.87 205.6 555.43 206.48 555.96 207.34L554.51 205.84L553.06 204.51C552.667 205.05 552.229 205.555 551.75 206.02C550.804 205.687 549.839 205.414 548.86 205.2V205.2C544.71 204.28 538.39 203.94 530.07 206.45C522.42 208.74 513.07 213.45 502.13 222.4L448.82 254.4L419.98 271.94L409.59 297.34C409.59 297.34 401.78 327.52 393.09 362.1C392.75 362.2 392.42 362.3 392.09 362.42C391.386 362.34 390.678 362.3 389.97 362.3C384.928 362.288 380.078 364.231 376.438 367.72C372.798 371.208 370.652 375.972 370.45 381.01C353.17 402.01 352.19 423.01 356.25 432.65C356.618 433.553 357.08 434.415 357.63 435.22C360.29 439.06 365.26 448.96 370.3 459.51C370.17 460.38 370.09 461.11 370.05 461.66C370.041 461.84 370.041 462.02 370.05 462.2C370.05 462.2 373.05 507.51 363.05 520.5C360.86 523.33 361.19 527.05 363.05 531.17C369.75 545.99 396.24 565.78 396.24 565.78C396.24 565.78 428.01 565.61 445.71 563.68C445.66 565.46 445.62 567.23 445.58 568.96C445.18 586.44 445.18 601.09 445.18 601.09L444.52 619.42C444.52 619.42 438.52 658.05 435.52 668.7C433.63 675.38 435.81 737.23 437.71 782.7H750.73C754.41 755.8 749.22 674.07 749.22 674.07C749.22 674.07 744.29 652.94 744.11 634.52C744.1 634.5 744.095 634.478 744.095 634.455C744.095 634.433 744.1 634.41 744.11 634.39C744.11 632.78 744.11 631.21 744.17 629.67L746.44 629.59L750.52 629.45H750.89C750.89 629.45 750.99 629.07 751.22 628.45C751.76 626.906 752.496 625.437 753.41 624.08C755.15 621.51 757.87 618.99 761.96 618.82C764.22 618.73 767.72 616.9 771.67 614.2C771.696 614.206 771.724 614.206 771.75 614.2C782.38 607.01 796.43 593.74 799.84 591.56C804.53 588.56 826.99 568.56 826.99 568.56C826.99 568.56 830.34 564.32 833.91 559.21L834.04 559.03C838.48 552.63 843.2 544.98 842.04 542.57C840.04 538.25 843.38 527.92 843.38 527.92C853.81 508.83 842.76 483.53 838.06 477.2ZM644.69 169.62C644.786 169.919 644.846 170.227 644.87 170.54C644.62 170.21 644.37 169.86 644.12 169.54L643.88 169.22L643.71 168.98L644.09 168.46C644.09 168.46 644.09 168.46 644.09 168.53C644.354 168.854 644.557 169.224 644.69 169.62V169.62ZM641.33 160.76C640.24 160.98 639.38 161.18 638.82 161.33C638.11 160.07 637.43 158.81 636.82 157.53C638.423 158.46 639.933 159.542 641.33 160.76V160.76ZM639.45 162.34C639.447 162.32 639.447 162.3 639.45 162.28L639.53 162.34C639.94 162.61 640.34 162.87 640.71 163.14C641.04 163.38 641.34 163.61 641.64 163.85C641.44 164.2 641.22 164.56 641 164.85C640.65 164.3 640.32 163.77 640 163.22C639.8 163 639.62 162.7 639.45 162.34ZM633.45 150C635.382 149.809 637.328 149.809 639.26 150V150C639.53 150 639.77 150.05 640.01 150.09C640.552 150.174 641.085 150.311 641.6 150.5C642.782 152.153 643.509 154.088 643.71 156.11L643.17 156.19L642.64 156.29C641.64 156.46 640.64 156.63 639.86 156.79L638.86 157C637.53 157.29 636.76 157.51 636.73 157.52C636.6 157.25 636.47 157 636.33 156.74C636.11 156.31 635.88 155.87 635.68 155.44C635.48 155.01 635.22 154.52 635.01 154.07C634.87 153.83 634.77 153.59 634.66 153.37C634.66 153.27 634.56 153.19 634.52 153.09C634.462 152.984 634.412 152.874 634.37 152.76C633.76 151.52 633.2 150.28 632.66 149.06C632.6 148.94 632.55 148.81 632.5 148.69L633.26 148.64V148.9L633.45 150ZM394.86 770.34C394.78 755.45 393.7 739.34 390.7 724.22C389.42 717.79 388.1 711.36 386.76 705.04C386.42 703.46 386.09 701.9 385.76 700.34L382.68 700.75H382.4C374 661.14 365.22 626.24 365.22 626.24C365.22 626.24 347.78 559.65 349.8 554.34C350.06 553.65 349.73 551.79 348.99 549.06C344.77 533.92 327.15 492.2 320.99 477.94C320.99 477.88 320.94 477.81 320.92 477.76C319.92 475.37 319.2 473.76 318.98 473.29L320.43 452.01L320.51 450.73L320.7 448.01L320.62 447.94L320.7 446.68C320.7 446.68 305.48 434.2 279.7 425.19C278.7 424.83 277.64 424.48 276.59 424.14C277.88 415.53 279.59 405.81 281.82 396.34C282.03 395.39 282.26 394.47 282.5 393.54C282.71 392.61 282.95 391.71 283.19 390.8C283.57 389.32 283.98 387.86 284.4 386.42C285.79 385.98 287.16 385.49 288.51 384.97L289.03 384.77C305.661 378.299 319.384 366.02 327.657 350.209C335.931 334.397 338.195 316.123 334.03 298.77V298.77C331.655 288.929 327.27 279.685 321.15 271.62C320.69 271 320.2 270.38 319.71 269.77C319.22 269.16 318.63 268.48 318.08 267.86C320.97 261.29 324.38 255.04 324.66 248.65C324.71 247.841 324.71 247.029 324.66 246.22V246.12C324.29 242.01 322.47 237.85 318.23 233.48C312.04 227.07 303.23 223.82 294.42 222.26C285.61 220.7 276.63 220.66 267.77 219.61C253.08 217.85 238.77 213.32 224.08 211.93C205.986 210.254 187.769 213.358 171.25 220.93C160.32 225.93 149.25 234.67 148.59 246.66C148.05 256.57 154.95 266.07 153.21 275.86C151.48 285.48 141.68 293.05 142.54 302.78C142.87 306.58 144.82 309.98 147.26 313.01C148.1 314.01 148.99 315.01 149.91 316.01C153.47 319.78 157.39 323.4 159.38 328.15C159.46 328.35 159.54 328.55 159.61 328.75C161.3 333.44 160.54 339.37 156.36 342.06C156.383 342.078 156.401 342.102 156.41 342.13V342.13C156.47 342.21 156.53 342.27 156.58 342.35C156.586 342.334 156.586 342.316 156.58 342.3C158.062 344.057 160.06 345.303 162.29 345.86L163.14 346.12C162.45 346.87 161.8 347.65 161.14 348.47L160.71 349.04C159.608 350.522 158.606 352.075 157.71 353.69C157.2 354.59 156.71 355.49 156.3 356.39C154.929 359.133 153.937 362.05 153.35 365.06C152.28 371.68 153.79 378.58 152.17 385.06C150.17 393.06 143.84 399.2 140.27 406.63C133.51 420.63 137.34 437.06 138.7 452.52C140.55 473.52 137.55 494.61 134.56 515.47C132.973 526.563 131.387 537.667 129.8 548.78C125.8 576.673 121.8 604.567 117.8 632.46C116.34 642.68 114.61 653.46 107.8 661.35H107.87C107.87 661.35 107.87 661.41 107.8 661.43C109.844 662.324 112.018 662.884 114.24 663.09V663.09C123.13 663.98 132.55 659.68 140.55 654.98C146.885 651.319 152.885 647.106 158.48 642.39C157.66 645.39 156.78 648.66 155.84 652.18C155.843 652.213 155.843 652.247 155.84 652.28V652.28C144.55 695.28 126.39 774.11 126.39 774.11C126.39 774.11 124.74 777.54 122.6 782.65H404.6C401.3 778.65 398.23 774.82 395.83 771.73L394.86 770.34ZM186.06 372.74C186.13 372.62 186.18 372.51 186.25 372.4C186.25 372.72 186.25 373.03 186.25 373.33C186.25 373.63 186.25 373.9 186.25 374.18C186.25 374.46 186.25 374.43 186.25 374.57C186.25 374.71 186.25 374.57 186.25 374.57C186.25 374.98 186.16 375.39 186.09 375.8C186.09 375.8 186.09 375.85 186.09 375.89L187.09 376.26L188.25 376.74C195.103 379.447 202.043 381.897 209.07 384.09C209.79 384.32 210.52 384.54 211.25 384.75L211.4 385.99C211.58 387.26 211.75 388.55 211.91 389.84C211.91 389.84 211.91 389.9 211.91 389.94C212.36 393.51 212.8 397.07 213.19 400.55C213.19 400.55 194.83 393.55 195.06 404.18C195.05 404.37 195.05 404.56 195.06 404.75C195.04 405.003 195.04 405.257 195.06 405.51C195.23 413.79 197.82 418.7 198.34 421.22C198.309 421.324 198.254 421.42 198.18 421.5C197.736 422.465 197.583 423.539 197.74 424.59C197.723 426.379 197.863 428.166 198.16 429.93C197.62 430.26 197.09 430.59 196.56 430.93C196.16 431.18 195.78 431.46 195.39 431.74C192.937 423.231 189.727 414.958 185.8 407.02C183.05 401.36 179.96 395.46 179.99 389.25C179.99 388.85 179.99 388.44 180.04 388.03C180.151 386.23 180.494 384.452 181.06 382.74C181.29 382.09 181.54 381.45 181.82 380.82C182.474 379.323 183.205 377.861 184.01 376.44C184.53 375.5 185.08 374.57 185.61 373.63C185.78 373.35 185.94 373.06 186.1 372.78L186.06 372.74ZM635.06 154.07C634.92 153.83 634.82 153.59 634.71 153.37C634.71 153.27 634.61 153.19 634.57 153.09C634.352 153.193 634.128 153.283 633.9 153.36C633.46 153.53 633.01 153.69 632.55 153.82C632.09 153.95 631.9 154.02 631.55 154.1L630.66 154.33L630.74 154.51C631.11 154.43 631.47 154.36 631.84 154.26L631.94 155.5C632.36 155.5 632.75 155.44 633.13 155.44H633.67C634.45 155.44 635.13 155.44 635.67 155.44C635.46 154.99 635.24 154.52 635.06 154.07Z" fill="url(#paint1_linear)"/>
<path d="M416.56 300.95L410.56 303.6C410.56 303.6 371.45 455.54 371.45 467.82C371.45 480.1 454.38 548.43 454.38 548.43L467.32 461.09C467.32 461.09 448.74 260.8 416.56 300.95Z" fill="#E8F5FF"/>
<path d="M598.47 252.62L563.82 234.54C561.879 226.266 558.435 218.42 553.66 211.39C548.59 204.07 541.85 196.88 533.45 193.13C512.22 183.61 623.25 133.64 623.25 133.64C624.999 139.643 627.058 145.551 629.42 151.34C635.14 165.46 644.63 183.72 656.86 188.92C677.65 197.77 598.47 252.62 598.47 252.62Z" fill="#FFC1C7"/>
<path opacity="0.1" d="M629.42 151.34C624.676 168.025 614.81 182.798 601.216 193.573C587.623 204.348 570.987 210.58 553.66 211.39C548.59 204.07 541.85 196.88 533.45 193.13C512.22 183.61 623.25 133.64 623.25 133.64C624.999 139.643 627.058 145.551 629.42 151.34V151.34Z" fill="black"/>
<path d="M632.54 126.11C632.544 142.474 627.695 158.471 618.606 172.079C609.518 185.687 596.598 196.293 581.481 202.558C566.364 208.822 549.728 210.463 533.679 207.272C517.629 204.081 502.886 196.203 491.315 184.632C479.743 173.062 471.862 158.32 468.67 142.271C465.477 126.222 467.116 109.586 473.378 94.4683C479.641 79.3504 490.246 66.4292 503.853 57.339C517.459 48.2489 533.456 43.398 549.82 43.4C560.696 43.3497 571.475 45.4546 581.533 49.5933C591.591 53.7319 600.729 59.8222 608.42 67.5124C616.112 75.2027 622.203 84.3405 626.343 94.3981C630.483 104.456 632.589 115.234 632.54 126.11V126.11Z" fill="#FFC1C7"/>
<path d="M644.48 242L621.92 294.64L602.02 329.58H538.32L519.74 281.81L527.27 232.27H575.92L607.33 230.5L617.94 226.96L624.78 230.84L644.48 242Z" fill="#575A89"/>
<path opacity="0.1" d="M636.71 171.83C636.71 171.83 650.78 174.83 638.18 185.16C625.58 195.49 582.11 228.34 582.11 228.34C582.11 228.34 597.38 241.94 594.22 257.87L644.81 229.67L653.81 184.55C653.81 184.55 654.82 170.99 636.71 171.83Z" fill="black"/>
<path opacity="0.1" d="M592.06 228.34L559.88 233.65C559.88 233.65 566.52 258.2 563.2 265.17C563.1 265.387 563.016 265.611 562.95 265.84L549.82 301.33L559.66 329.2L593.72 282.75L582.11 265.17C582.11 265.17 594.38 248.91 601.68 243.27C608.98 237.63 592.06 228.34 592.06 228.34Z" fill="black"/>
<path d="M592.06 226.97L559.88 232.27C559.88 232.27 566.52 256.82 563.2 263.79C563.1 264.007 563.016 264.231 562.95 264.46L549.82 299.95L559.66 327.82L593.72 281.34L582.11 263.76C582.11 263.76 594.38 247.5 601.68 241.86C608.98 236.22 592.06 226.97 592.06 226.97Z" fill="#DCE6F2"/>
<path d="M638.06 169.18C638.06 169.18 652.13 172.18 639.52 182.51C626.91 192.84 582.11 228.34 582.11 228.34C582.11 228.34 598.7 239.29 595.55 255.21L646.14 227.02L655.14 181.9C655.14 181.9 656.14 168.34 638.06 169.18Z" fill="#575A89"/>
<path opacity="0.1" d="M555.87 214.52C555.87 214.52 558.94 220.26 572.49 230.61C572.49 230.61 549.93 242.61 558.56 259.48L524.05 250.48L518.74 233.89L555.87 214.52Z" fill="black"/>
<path d="M554.54 213.2C554.54 213.2 557.61 218.94 571.16 229.29C571.16 229.29 548.6 241.23 557.23 258.15L522.73 249.15L517.42 232.57L554.54 213.2Z" fill="#575A89"/>
<path opacity="0.1" d="M644.48 242L621.92 294.64L602.06 329.58H538.32L519.74 281.81L527.26 232.27H540.79C540.57 243.83 544.79 257.41 544.52 262.46C544.06 270.76 556.9 315.54 556.9 315.54C556.9 315.54 583.77 272.08 594.38 268.21C601.05 265.78 615.18 245.56 624.77 230.84L644.48 242Z" fill="black"/>
<path d="M733.35 519.01L731.06 521.89C731.06 521.89 747.65 605.16 743.06 624.07C742.28 627.478 741.834 630.955 741.73 634.45V634.6C740.92 653.84 746.73 678.81 746.73 678.81C746.73 678.81 751.37 752.41 748.73 782.68H438.11C436.29 737.92 434.33 679.93 436.11 673.5C439.11 662.89 445.11 624.4 445.11 624.4L445.77 606.16C445.77 606.16 445.77 588.53 446.31 568.89C446.54 560.06 446.88 550.79 447.37 542.57C448 532.23 448.88 523.52 450.09 519.24C450.835 515.996 451.264 512.687 451.37 509.36C451.37 509.05 451.37 508.73 451.43 508.41C451.43 507.41 451.53 506.33 451.57 505.22C451.57 504.91 451.57 504.6 451.57 504.22C451.76 497.78 451.69 490.14 451.48 482.22C451.48 481.79 451.48 481.35 451.48 480.91C451.31 474.97 451.06 468.91 450.78 463.15C449.91 445.15 448.78 429.93 448.78 429.93L410.63 303.53L420.91 278.21L449.44 260.73L502.19 228.88C527.92 207.73 544.86 210.27 551.32 212.59C551.947 212.804 552.562 213.054 553.16 213.34C553.36 213.44 553.52 213.52 553.67 213.61C553.875 213.707 554.073 213.821 554.26 213.95V213.95C552.491 214.801 550.954 216.067 549.78 217.64C548.457 219.43 547.514 221.472 547.01 223.64C546.672 224.984 546.435 226.351 546.3 227.73C546.17 229.18 546.12 230.68 546.12 232.19C546.191 235.501 546.475 238.805 546.97 242.08C546.97 242.14 546.97 242.22 546.97 242.3C547.3 244.64 547.71 246.93 548.11 249.08C548.105 249.117 548.105 249.153 548.11 249.19C548.57 251.7 549.03 254.02 549.34 256.02C549.4 256.38 549.45 256.71 549.5 257.02C549.72 258.342 549.824 259.68 549.81 261.02C549.923 264.255 550.358 267.471 551.11 270.62C551.37 271.94 551.67 273.35 552 274.82C552.45 276.82 552.94 279 553.47 281.22C553.76 282.44 554.07 283.7 554.39 284.95C554.51 285.45 554.64 285.95 554.76 286.46L554.96 287.25C557.09 295.72 559.4 304.15 560.82 309.25C561.66 312.25 562.19 314.1 562.19 314.1C562.19 314.1 577.25 289.75 589.27 275.89C589.45 275.69 589.61 275.5 589.78 275.32C590.97 273.95 592.14 272.7 593.26 271.6C595.71 269.16 597.91 267.42 599.68 266.78C600.057 266.642 600.422 266.471 600.77 266.27C605.69 263.48 613.63 253.35 621.06 242.74C621.79 241.74 622.5 240.65 623.22 239.62C624.87 237.24 626.47 234.85 627.98 232.56C629.14 230.81 630.25 229.11 631.3 227.49C636.3 219.71 639.82 213.91 639.82 213.91L646.76 213.6L647.97 213.54H648.78L680.29 212.08C680.29 212.08 681.65 212.31 683.89 212.76C684.01 212.76 684.13 212.76 684.26 212.84C695.44 215.06 726.5 222.09 728.4 231.84C730.72 243.78 780.82 259.71 780.82 259.71C781.48 267.71 793.75 272.98 793.75 272.98C793.75 272.98 812.33 322.08 807.36 341.32C802.45 360.32 820.14 407.32 820.61 408.64L817.22 412.92L733.35 519.01Z" fill="#E8F5FF"/>
<path opacity="0.1" d="M636.7 168.34C636.7 168.34 667.37 159.64 674.34 177.55C681.31 195.46 696.9 267.79 696.9 267.79C696.9 267.79 656.42 275.42 645.81 267.79C639.586 263.262 631.884 261.248 624.24 262.15L601.35 277.74L594.59 275.74C594.59 275.74 631.21 221.3 639.17 202.8C647.13 184.3 649.82 176.03 636.7 168.34Z" fill="black"/>
<path d="M635.37 164.34C635.37 164.34 666.06 155.64 673.06 173.55C680.06 191.46 695.62 263.79 695.62 263.79C695.62 263.79 655.15 271.42 644.53 263.79C638.31 259.261 630.611 257.247 622.97 258.15L600.06 273.74L593.3 271.74C593.3 271.74 629.92 217.3 637.88 198.8C645.84 180.3 648.49 172.05 635.37 164.34Z" fill="#E8F5FF"/>
<path opacity="0.1" d="M429.5 452.89C429.5 452.89 452.39 458.53 456.71 471.47C461.03 484.41 439.79 484.74 439.79 484.74C439.79 484.74 426.85 461.85 429.5 452.89Z" fill="black"/>
<path opacity="0.1" d="M514.76 548.43C514.76 548.43 458.7 663.22 471.64 674.17C484.58 685.12 514.76 548.43 514.76 548.43Z" fill="black"/>
<path opacity="0.1" d="M592.06 463.84C592.06 463.84 636.85 575.34 627.89 592.56C618.93 609.78 647.13 592.56 647.13 592.56L592.06 463.84Z" fill="black"/>
<path d="M654.43 573.98C654.43 573.98 503.15 581.28 547.28 628.39C591.41 675.5 681.97 630.39 681.97 630.39L654.43 573.98Z" fill="#FFC1C7"/>
<path opacity="0.1" d="M632.54 126.11C632.554 136.96 630.423 147.706 626.27 157.73C624.88 157.89 623.49 157.99 622.15 158.05C620.15 153.66 621.22 148.59 621.26 143.76C621.3 138.93 619.52 133.25 614.87 131.95C605.6 129.34 599.2 146.67 590.06 143.54C583.06 141.16 584.89 130.54 580.86 124.41C577.67 119.56 571.28 118.19 566.31 115.15C555.74 108.66 556.06 98.28 551.15 88.46C546.01 78.17 535.15 81.21 525.72 87.28C518.56 91.9 512.38 98.09 504.72 101.77C498.09 104.97 490.64 106.13 483.29 106.3C478.765 106.475 474.238 105.997 469.85 104.88C475.012 85.4739 487.056 68.6077 503.736 57.4267C520.416 46.2457 540.594 41.5132 560.506 44.1118C580.418 46.7103 598.705 56.4625 611.957 71.5497C625.209 86.6369 632.521 106.029 632.53 126.11H632.54Z" fill="black"/>
<path d="M525.75 84.63C518.58 89.25 512.41 95.43 504.75 99.13C498.12 102.32 490.67 103.48 483.32 103.65C474.32 103.85 464.63 102.27 458.48 95.77C452.83 89.77 451.48 80.54 453.87 72.67C456.26 64.8 461.99 58.27 468.72 53.54C475.45 48.81 483.26 45.54 487.72 38.77C490.08 35.19 491.22 30.97 493.18 27.16C499.45 14.97 513.55 8.36999 527.18 7.54999C540.81 6.72999 554.32 10.79 567.3 15.19C580.28 19.59 593.36 24.43 607.06 25.34C613.16 25.72 619.5 25.34 625.16 27.65C632.77 30.74 637.76 38.13 641.16 45.65C644.97 54.13 647.34 63.39 646.94 72.65C646.1 92.42 633.04 111.82 638.78 130.76C640.3 135.81 643.15 140.99 641.63 146.04C639.41 153.41 629.9 155.09 622.21 155.44C620.21 151.05 621.28 145.97 621.32 141.15C621.36 136.33 619.58 130.64 614.94 129.34C605.66 126.75 599.26 144.05 590.14 140.93C583.19 138.54 584.99 127.93 580.95 121.8C577.76 116.94 571.36 115.58 566.4 112.54C555.83 106.05 556.15 95.67 551.24 85.85C546.06 75.51 535.19 78.55 525.75 84.63Z" fill="#99607E"/>
<path d="M379.06 465.16L371.43 467.82C371.43 467.82 374.43 512.94 364.43 525.88C354.43 538.82 397.27 570.99 397.27 570.99C397.27 570.99 455.99 570.66 457.65 565.99C459.31 561.32 454.65 482.39 454.65 482.39C454.65 482.39 423.13 470.11 425.78 450.54C425.78 450.54 416.16 496.65 401.9 494.66C387.64 492.67 371.45 480.76 379.06 465.16Z" fill="#E8F5FF"/>
<path opacity="0.1" d="M404.51 508.62C415.627 508.62 424.64 500.378 424.64 490.21C424.64 480.042 415.627 471.8 404.51 471.8C393.393 471.8 384.38 480.042 384.38 490.21C384.38 500.378 393.393 508.62 404.51 508.62Z" fill="black"/>
<path d="M426.52 466.49C426.52 466.49 422.52 344.41 387.7 371.61C352.88 398.81 352.54 431.34 359.17 440.95C365.8 450.56 387.06 498.67 387.06 498.67C390.386 500.597 394.12 501.709 397.958 501.915C401.797 502.121 405.629 501.414 409.141 499.853C412.654 498.292 415.746 495.921 418.166 492.934C420.585 489.947 422.262 486.43 423.06 482.67L426.52 466.49Z" fill="#FFC1C7"/>
<path opacity="0.1" d="M643.73 157.26C643.568 156.724 643.255 156.245 642.83 155.88C641.11 154.31 637.41 153.76 631.83 154.24L632.06 156.88C639.5 156.24 640.97 157.72 641.16 157.97V158.22L641.39 158.55C642.318 159.797 642.975 161.223 643.319 162.739C643.664 164.254 643.688 165.825 643.39 167.35C641.76 175.5 631.75 181.99 631.65 182.06L631.41 182.2L631.26 182.43C626.94 188.84 602.51 206.93 596.12 211.61L595.56 210.97C592.7 213.45 567.56 235.46 566.2 243.89C565.32 249.18 559.36 251.23 557.2 251.8C554.92 250.07 547.52 244.18 543.67 237.58C540.06 231.37 554.59 219.25 555.87 214.52L553.87 212.47C553.66 213.23 535 230.67 540.19 239.58C544.35 246.73 551.95 252.85 554.61 254.87C553.76 262.59 548.47 307.92 540.34 318.66C530.24 332.01 521.75 399.29 522.69 422.78C523.52 443.65 518.07 483.07 499.87 500C496.719 503.059 492.918 505.368 488.75 506.753C484.582 508.138 480.155 508.565 475.8 508H475.58H475.36C475.1 508 448.7 510.7 426.52 492C408.37 476.73 398.09 451.81 395.95 417.91H395.51L395.33 408.04C400.251 407.272 404.683 404.626 407.694 400.659C410.706 396.692 412.062 391.712 411.479 386.766C410.896 381.819 408.418 377.291 404.566 374.134C400.714 370.976 395.789 369.434 390.824 369.832C385.859 370.23 381.242 372.536 377.942 376.267C374.642 379.998 372.917 384.863 373.129 389.839C373.341 394.815 375.473 399.515 379.078 402.952C382.683 406.389 387.479 408.295 392.46 408.27H392.68L392.86 418.08L391.98 418.14C394.18 453.14 404.98 479.03 423.98 495.02C438.421 506.987 456.868 513.024 475.59 511.91C476.918 512.055 478.254 512.129 479.59 512.13C488.172 512.174 496.429 508.853 502.59 502.88C521.76 485.03 527.59 444.16 526.68 422.58C525.68 397.69 534.59 332.83 543.53 321.02C552.29 309.43 557.6 264.27 558.53 255.52C561.7 254.63 568.87 251.82 570.09 244.52C570.97 239.24 587.76 222.97 598.09 213.96L597.78 213.6C603.34 209.54 620.63 196.74 629.2 188.52C631.86 185.97 634.5 183.42 637.26 180.99C640.58 178.05 644.8 173.38 645.91 167.86C646.288 166.038 646.29 164.158 645.915 162.335C645.54 160.512 644.797 158.785 643.73 157.26V157.26Z" fill="black"/>
<path d="M554.27 254.24C553.85 253.95 543.89 246.82 538.9 238.24C533.72 229.33 552.38 211.9 552.58 211.14L554.58 213.19C553.31 217.91 538.78 230.04 542.39 236.24C546.94 244.07 556.52 250.92 556.62 250.99L554.27 254.24Z" fill="#353146"/>
<path d="M594.82 213.55L593.26 211.4C593.58 211.17 624.99 188.45 629.94 181.1L630.1 180.88L630.33 180.73C630.43 180.66 640.44 174.18 642.07 166.02C642.371 164.496 642.348 162.927 642.003 161.413C641.659 159.898 641 158.473 640.07 157.23L639.84 156.89V156.65C639.64 156.39 638.17 154.92 630.73 155.56L630.5 152.91C636.09 152.43 639.78 152.98 641.5 154.55C641.928 154.918 642.244 155.4 642.41 155.94C643.491 157.46 644.25 159.186 644.638 161.011C645.027 162.836 645.038 164.721 644.67 166.55C643.56 172.08 639.35 176.75 636.02 179.68C633.27 182.11 630.62 184.68 627.97 187.21C617.92 196.84 595.92 212.76 594.82 213.55Z" fill="#E8F5FF"/>
<path d="M394.04 404.558L391.39 404.607L391.685 420.714L394.335 420.666L394.04 404.558Z" fill="#E8F5FF"/>
<path d="M391.17 407C401.857 407 410.52 398.337 410.52 387.65C410.52 376.963 401.857 368.3 391.17 368.3C380.483 368.3 371.82 376.963 371.82 387.65C371.82 398.337 380.483 407 391.17 407Z" fill="#6C63FF"/>
<path d="M391.17 403.72C400.045 403.72 407.24 396.525 407.24 387.65C407.24 378.775 400.045 371.58 391.17 371.58C382.295 371.58 375.1 378.775 375.1 387.65C375.1 396.525 382.295 403.72 391.17 403.72Z" fill="#E8F5FF"/>
<path d="M478.33 510.84C476.994 510.842 475.659 510.772 474.33 510.63C455.609 511.733 437.167 505.697 422.72 493.74C403.72 477.74 392.94 451.88 390.72 416.85L394.72 416.6C396.86 450.5 407.14 475.43 425.3 490.69C447.48 509.34 473.87 506.69 474.13 506.69H474.35H474.57C478.927 507.252 483.354 506.824 487.523 505.439C491.692 504.054 495.495 501.747 498.65 498.69C516.84 481.76 522.29 442.34 521.46 421.47C520.46 397.96 528.95 330.68 539.06 317.34C547.91 305.65 553.4 252.96 553.46 252.43L553.61 250.93L555.09 250.67C555.18 250.67 563.82 249.03 564.9 242.57C566.3 234.15 591.4 212.14 594.25 209.65L596.86 212.65C586.49 221.65 569.7 237.93 568.86 243.22C567.64 250.54 560.47 253.34 557.31 254.22C556.31 262.98 551.04 308.13 542.31 319.72C533.37 331.53 524.46 396.39 525.46 421.28C526.32 442.86 520.55 483.74 501.38 501.58C495.207 507.568 486.93 510.894 478.33 510.84Z" fill="#353146"/>
<g opacity="0.1">
<path opacity="0.1" d="M641.06 102.47C642.7 96.41 644.68 90.31 646.06 84.17C644.41 90.34 642.42 96.41 641.06 102.47Z" fill="black"/>
<path opacity="0.1" d="M624.33 150.09C622.33 145.7 623.4 140.62 623.44 135.8C623.48 130.98 621.7 125.34 617.06 123.99C607.78 121.4 601.38 138.71 592.26 135.58C585.26 133.19 587.11 122.58 583.07 116.45C579.88 111.59 573.49 110.23 568.53 107.19C557.95 100.7 558.27 90.32 553.37 80.5C548.22 70.2 537.37 73.24 527.93 79.32C520.76 83.94 514.59 90.13 506.93 93.82C500.3 97.01 492.85 98.17 485.5 98.34C476.55 98.55 466.81 96.96 460.66 90.46C455.92 85.46 454.21 78.13 455.19 71.26C455.02 71.73 454.87 72.2 454.72 72.67C452.32 80.54 453.72 89.79 459.33 95.77C465.48 102.27 475.22 103.85 484.17 103.65C491.53 103.48 498.97 102.32 505.61 99.13C513.29 95.43 519.46 89.25 526.61 84.63C536.05 78.55 546.91 75.51 552.05 85.81C556.95 95.63 556.64 106.01 567.21 112.5C572.21 115.5 578.56 116.9 581.76 121.76C585.76 127.91 583.99 138.5 590.95 140.89C600.06 144.01 606.46 126.71 615.74 129.3C620.38 130.6 622.17 136.3 622.12 141.11C622.07 145.92 621.03 151.01 623.01 155.4C630.7 155.05 640.21 153.4 642.44 146C642.747 144.938 642.889 143.835 642.86 142.73C639.61 148.34 631.25 149.78 624.33 150.09Z" fill="black"/>
</g>
<path opacity="0.1" d="M805.06 396.49L816.67 408.77C816.67 408.77 825.96 476.44 830.6 482.77C835.24 489.1 846.2 514.28 835.91 533.19C835.91 533.19 832.59 543.48 834.58 547.79C836.57 552.1 819.66 573.67 819.66 573.67C819.66 573.67 797.43 593.57 792.78 596.56C788.13 599.55 763.59 623.43 755.3 623.76C747.01 624.09 744.3 634.38 744.3 634.38L697.52 636.04C697.52 636.04 671.68 634.69 666.06 638.34C666.06 638.34 669.06 598.86 640.19 572.98L677.01 559.71C677.01 559.71 690.95 553.71 695.26 547.44C697.971 543.596 701.818 540.697 706.26 539.15C706.26 539.15 716.54 531.85 716.87 527.87C717.2 523.89 729.44 519.01 729.44 519.01L722.51 459.86L726.16 361.66C726.16 361.66 737.77 279.38 762.32 284.03C786.87 288.68 805.06 396.49 805.06 396.49Z" fill="black"/>
<path d="M809.06 396.49L820.67 408.77C820.67 408.77 829.96 476.44 834.6 482.77C839.24 489.1 850.2 514.28 839.91 533.19C839.91 533.19 836.6 543.48 838.59 547.79C840.58 552.1 823.66 573.67 823.66 573.67C823.66 573.67 801.43 593.57 796.78 596.56C792.13 599.55 767.59 623.43 759.3 623.76C751.01 624.09 748.3 634.38 748.3 634.38L701.52 636.04C701.52 636.04 675.66 634.69 670.06 638.34C670.06 638.34 673.06 598.86 644.19 572.98L681.01 559.71C681.01 559.71 694.95 553.71 699.26 547.44C701.971 543.596 705.818 540.697 710.26 539.15C710.26 539.15 720.54 531.85 720.87 527.87C721.2 523.89 733.44 519.01 733.44 519.01L726.51 459.86L730.16 361.66C730.16 361.66 741.77 279.38 766.32 284.03C790.87 288.68 809.06 396.49 809.06 396.49Z" fill="#E8F5FF"/>
<path opacity="0.1" d="M765.9 495.69C765.9 495.69 800.07 486.69 809.03 497.69C817.99 508.69 765.9 495.69 765.9 495.69Z" fill="black"/>
<path opacity="0.1" d="M757.94 510.78C769.55 518.91 805.38 519.24 805.38 519.24L757.94 510.78Z" fill="black"/>
<path opacity="0.1" d="M775.52 551.42C776.52 551.75 800.15 576.97 810.07 569.34C819.99 561.71 775.52 551.42 775.52 551.42Z" fill="black"/>
<path opacity="0.1" d="M457.28 339.76C457.28 339.76 464.22 387.54 460.8 407C457.38 426.46 469.86 450.57 469.86 450.57L457.28 339.76Z" fill="black"/>
<path d="M303.64 359.19C295.64 365.46 289.8 380.3 285.57 396.61C278.19 425.06 275.78 458.05 275.78 458.05C275.78 458.05 212.08 443.45 216.72 436.82C219.64 432.65 215.72 401.23 212.45 378.45C210.5 364.99 208.76 354.54 208.76 354.54C208.76 354.54 325.54 341.93 303.64 359.19Z" fill="#FFC1C7"/>
<path opacity="0.1" d="M303.64 357.86C295.64 364.14 289.8 378.97 285.57 395.28C272.879 399.134 259.381 399.481 246.508 396.286C233.635 393.091 221.866 386.471 212.45 377.13C210.5 363.66 208.76 353.21 208.76 353.21C208.76 353.21 325.54 340.61 303.64 357.86Z" fill="black"/>
<path d="M337.88 322.12C337.887 339.513 331.74 356.348 320.527 369.645C309.315 382.942 293.76 391.843 276.616 394.774C259.471 397.705 241.843 394.477 226.85 385.66C211.857 376.843 200.467 363.006 194.695 346.598C188.923 330.191 189.142 312.27 195.313 296.008C201.483 279.747 213.208 266.192 228.411 257.744C243.615 249.295 261.317 246.498 278.385 249.846C295.453 253.195 310.786 262.473 321.67 276.04C332.159 289.108 337.877 305.363 337.88 322.12V322.12Z" fill="#FFC1C7"/>
<path opacity="0.1" d="M395.96 782.68H374.96L373.19 745.59L371.34 707.2C371.34 707.2 376.11 706.49 383.71 705.43L386.78 705.02H387.03C388.69 712.81 390.33 720.81 391.91 728.8C394.54 742.985 395.909 757.374 396 771.8C396 772.8 396 773.8 396 774.74C396.06 777.41 396 780.08 395.96 782.68Z" fill="black"/>
<path d="M391.93 782.68H128.57C129.71 780.09 130.47 778.52 130.47 778.52C130.47 778.52 151.54 686.34 162.25 647.34C162.253 647.307 162.253 647.273 162.25 647.24C163.588 641.942 165.204 636.718 167.09 631.59V631.59C167.212 631.241 167.369 630.906 167.56 630.59C172.86 621.97 179.5 612.68 170.21 599.41C160.92 586.14 164.21 527.75 164.21 527.75C164.21 527.75 175.49 477.98 187.43 451.44C189.242 447.329 191.814 443.597 195.01 440.44C196.049 439.423 197.159 438.481 198.33 437.62V437.62C199.221 436.951 200.149 436.333 201.11 435.77L201.3 435.65C206.316 432.806 211.886 431.077 217.63 430.58C221.71 430.153 225.829 430.268 229.88 430.92C249.24 433.76 264.74 438.51 277.06 443.92C310.45 458.59 320.56 478.25 320.76 478.66L320.84 478.83C322.18 481.96 341.78 527.72 348.84 549.07C350.67 554.63 351.67 558.54 351.27 559.61C349.27 564.91 366.53 631.26 366.53 631.26C366.53 631.26 374.53 663.26 382.53 700.77C382.88 702.33 383.21 703.89 383.53 705.47C384.96 712.28 386.38 719.22 387.75 726.15C390.404 740.432 391.773 754.923 391.84 769.45C391.987 773.977 392.017 778.387 391.93 782.68Z" fill="#6037D7"/>
<path opacity="0.1" d="M216.06 407.76C216.06 407.76 197.89 400.76 198.11 411.38C198.33 422 202.54 427.08 201.21 428.63C199.88 430.18 201.87 439.47 201.87 439.47C201.87 439.47 226.42 439.47 237.7 444.55C248.98 449.63 290.56 459.81 295.87 462.91C301.18 466.01 320.87 479.91 320.87 479.91L322.64 453.59C322.64 453.59 302.29 436.78 268.9 428.16C235.51 419.54 216.06 407.76 216.06 407.76Z" fill="black"/>
<path d="M216.06 406.43C216.06 406.43 197.89 399.43 198.11 410.05C198.33 420.67 202.54 425.75 201.21 427.3C199.88 428.85 201.87 438.14 201.87 438.14C201.87 438.14 226.42 438.14 237.7 443.23C248.98 448.32 290.56 458.49 295.87 461.58C301.18 464.67 320.87 478.58 320.87 478.58L322.66 452.34C322.66 452.34 302.31 435.53 268.92 426.91C235.53 418.29 216.06 406.43 216.06 406.43Z" fill="#9874FF"/>
<path opacity="0.1" d="M270.91 469.77C270.91 469.77 305.63 507.36 303.86 517.77C302.09 528.18 270.91 469.77 270.91 469.77Z" fill="black"/>
<path opacity="0.1" d="M214.51 605.56C214.51 605.56 189.06 629.01 181.56 630.34C174.06 631.67 187.31 636.09 195.93 632.56C204.55 629.03 222.93 619.74 222.93 619.74L214.51 605.56Z" fill="black"/>
<path d="M402.27 782.68H342.92C334.62 775.48 326.77 768.81 321.77 764.8C313.77 758.38 308 748.93 304.32 741.33C303.49 739.6 302.77 737.98 302.16 736.51C301.068 733.978 300.106 731.391 299.28 728.76L343.23 702.66C345.659 704.726 347.941 706.958 350.06 709.34L350.59 709.95C353.03 712.83 355.18 716.1 355.37 718.78C355.59 721.9 364.27 733.97 373.14 745.56C382.14 757.35 391.36 768.62 391.97 769.38C391.97 769.38 393.49 771.45 395.97 774.63C397.72 776.93 399.88 779.69 402.27 782.68Z" fill="#FFC1C7"/>
<path opacity="0.1" d="M321.67 276.04C319.56 280.8 317.67 285.74 317.39 291.04C316.6 306.34 317.88 340.55 300.94 348.23C292.55 352.01 283.57 343.71 274.37 343.51C267.75 343.37 261.68 347.57 257.64 352.82C253.6 358.07 251.09 364.3 248.16 370.24C245.493 375.632 242.421 380.813 238.97 385.74C237.939 387.248 236.802 388.681 235.57 390.03C225.241 385.671 216.042 379.012 208.676 370.56C201.31 362.109 195.971 352.087 193.065 341.259C190.158 330.43 189.762 319.082 191.906 308.078C194.05 297.073 198.678 286.703 205.437 277.758C212.196 268.813 220.907 261.529 230.908 256.461C240.908 251.393 251.933 248.674 263.143 248.512C274.353 248.35 285.453 250.749 295.595 255.527C305.738 260.304 314.656 267.334 321.67 276.08V276.04Z" fill="black"/>
<path d="M316.06 288.34C315.26 303.64 316.55 337.85 299.6 345.52C291.21 349.3 282.23 341.01 273.03 340.81C266.41 340.66 260.35 344.87 256.3 350.11C252.25 355.35 249.76 361.59 246.82 367.54C244.152 372.931 241.08 378.113 237.63 383.04C235.57 385.96 233.29 388.89 230.12 390.53C224.6 393.41 217.91 391.79 211.99 389.94C204.31 387.52 196.743 384.793 189.29 381.76C189.461 380.635 189.548 379.498 189.55 378.36C189.33 378.78 189.09 379.17 188.85 379.59L188.38 380.41C187.53 381.91 186.7 383.41 185.94 384.95C185.65 385.54 185.37 386.15 185.12 386.76C184.114 389.03 183.483 391.448 183.25 393.92C182.74 400.59 186.03 406.92 188.95 412.92C200.18 436.13 207.12 463.27 198.67 487.62C195.01 498.21 188.67 507.62 184.04 517.85C175.946 535.969 173.564 556.123 177.21 575.63C179.52 587.75 184.15 599.75 183.01 612.04C181.01 633.19 162.77 648.93 144.5 659.75C134.63 665.57 122.55 670.75 112.07 666.15C118.75 658.35 120.47 647.56 121.91 637.38C125.85 609.613 129.8 581.833 133.76 554.04C135.34 542.98 136.917 531.92 138.49 520.86C141.43 500.08 144.41 479.07 142.57 458.16C141.23 442.75 137.45 426.39 144.13 412.44C147.66 405.05 153.95 398.93 155.91 390.97C157.52 384.5 156.02 377.62 157.08 371.03C157.66 368.032 158.642 365.126 160 362.39C161.729 358.678 163.985 355.236 166.7 352.17C164.02 351.39 161.52 350.32 160 348.08C164.3 345.28 164.95 338.97 163 334.23C161.05 329.49 157.15 325.88 153.64 322.14C150.13 318.4 146.75 314.04 146.31 308.94C145.46 299.23 155.16 291.71 156.87 282.13C158.6 272.38 151.76 262.9 152.31 253.03C152.95 241.1 163.91 232.43 174.73 227.4C191.058 219.841 209.095 216.736 227.01 218.4C241.59 219.78 255.7 224.29 270.24 226.04C279.01 227.04 287.9 227.14 296.61 228.68C305.32 230.22 314.05 233.47 320.18 239.86C336.34 256.71 316.98 270.58 316.06 288.34Z" fill="black"/>
<path opacity="0.1" d="M302.54 741.34C297.44 739.13 288.16 740.45 272.23 735.6C256.3 730.75 253.23 708.83 253.23 708.83V708.76C253.04 708.26 251.56 705 241.54 693.58C230.47 680.97 206.54 617.28 206.54 617.28C206.54 617.28 185.32 594.49 185.99 586.09C186.66 577.69 182.22 555.34 182.66 530.34C183.1 505.34 230.43 488.76 230.43 488.76C321.56 472.61 300.1 577.67 297.67 585.63C295.24 593.59 307.85 615.09 307.85 615.09C306.07 624.45 315.15 638.94 315.15 638.94C315.15 638.94 317.35 651.76 317.8 656.63C317.825 656.855 317.875 657.076 317.95 657.29C319.41 661.88 331.31 666.04 336.15 668.57C341.24 671.23 357.61 694.45 357.61 694.45C361.14 711.5 307.62 743.58 302.54 741.34Z" fill="#353146"/>
<path d="M305.19 737.34C300.1 735.12 290.81 736.45 274.89 731.59C258.97 726.73 255.89 704.83 255.89 704.83V704.76C255.71 704.25 254.22 701 244.2 689.58C233.13 676.97 209.2 613.27 209.2 613.27C209.2 613.27 187.98 590.49 188.64 582.09C189.3 573.69 184.88 551.34 185.32 526.36C185.76 501.38 233.06 484.81 233.06 484.81C324.19 468.66 302.73 573.72 300.3 581.68C297.87 589.64 310.48 611.14 310.48 611.14C308.7 620.5 317.78 634.99 317.78 634.99C317.78 634.99 319.98 647.81 320.44 652.68C320.457 652.905 320.504 653.127 320.58 653.34C322.04 657.93 333.94 662.09 338.79 664.62C343.87 667.27 360.25 690.5 360.25 690.5C363.8 707.52 310.28 739.6 305.19 737.34Z" fill="#6037D7"/>
<path opacity="0.1" d="M234.86 539.66C234.86 539.66 274.67 581.66 285.06 581.66C295.45 581.66 234.86 539.66 234.86 539.66Z" fill="black"/>
<path d="M305.19 737.34C300.1 735.12 290.81 736.45 274.89 731.59C258.97 726.73 255.89 704.83 255.89 704.83V704.76C266.44 697.76 293.16 677.99 303.69 670.76C311.1 665.69 317.15 658.24 320.69 653.3C322.15 657.89 334.05 662.05 338.9 664.58C343.98 667.23 360.36 690.46 360.36 690.46C363.8 707.52 310.28 739.6 305.19 737.34Z" fill="#9874FF"/>
<g opacity="0.1">
<path opacity="0.1" d="M160.06 348.19C160.11 348.27 160.18 348.34 160.24 348.42C160.54 348.04 160.85 347.66 161.17 347.3C160.829 347.631 160.458 347.929 160.06 348.19V348.19Z" fill="black"/>
<path opacity="0.1" d="M183.26 394.03C183.68 388.48 186.65 383.59 189.43 378.71C187.61 378.01 185.79 377.3 183.99 376.56C184.161 375.438 184.248 374.305 184.25 373.17C181.44 378.17 178.38 383.09 177.95 388.72C177.44 395.4 180.73 401.72 183.65 407.72C194.89 430.92 201.82 458.06 193.37 482.42C189.7 493 183.37 502.42 178.74 512.65C170.649 530.766 168.27 550.918 171.92 570.42C174.21 582.55 178.85 594.54 177.71 606.83C175.71 627.98 157.48 643.72 139.2 654.53C131.73 658.95 123 663 114.65 662.71C113.877 663.954 113.015 665.141 112.07 666.26C122.56 670.89 134.63 665.68 144.5 659.84C162.79 649.04 181.06 633.34 183.06 612.15C184.2 599.86 179.56 587.87 177.26 575.74C173.609 556.24 175.981 536.09 184.06 517.97C188.66 507.75 195.06 498.32 198.69 487.74C207.14 463.38 200.2 436.24 188.97 413.04C186.06 407 182.75 400.71 183.26 394.03Z" fill="black"/>
<path opacity="0.1" d="M320.16 239.98C319.176 238.971 318.12 238.035 317 237.18C329.12 252.9 311.62 266.26 310.75 283.18C309.97 298.48 311.25 332.7 294.3 340.36C285.92 344.15 276.93 335.85 267.74 335.65C261.11 335.51 255.05 339.72 251 344.96C246.95 350.2 244.46 356.44 241.53 362.38C238.857 367.77 235.782 372.952 232.33 377.88C230.33 380.81 227.99 383.73 224.81 385.38C219.31 388.25 212.62 386.64 206.69 384.78C200.923 382.967 195.21 380.967 189.55 378.78C189.538 379.822 189.451 380.861 189.29 381.89C196.75 384.93 204.32 387.657 212 390.07C217.92 391.93 224.61 393.54 230.12 390.67C233.29 389.02 235.59 386.09 237.64 383.16C241.094 378.239 244.166 373.06 246.83 367.67C249.77 361.73 252.25 355.48 256.31 350.24C260.37 345 266.42 340.8 273.04 340.94C282.24 341.14 291.23 349.44 299.61 345.65C316.56 337.99 315.27 303.77 316.06 288.47C316.98 270.68 336.34 256.82 320.16 239.98Z" fill="black"/>
</g>
<path opacity="0.1" d="M188.39 380.42C187.54 381.92 186.71 383.42 185.95 384.96C185.66 385.55 185.38 386.16 185.13 386.77C179.89 381.49 167.13 368.94 160.01 365.05C161.741 361.339 163.998 357.897 166.71 354.83C166.71 354.83 183.68 363.8 188.39 380.42Z" fill="black"/>
<path d="M188.86 379.6C184.93 361.81 166.71 352.18 166.71 352.18C163.995 355.246 161.739 358.688 160.01 362.4C167.52 366.51 181.36 380.29 185.95 384.96L188.86 379.6Z" fill="#FF748E"/>
<defs>
<linearGradient id="paint0_linear" x1="645.03" y1="95.41" x2="645.03" y2="77.03" gradientUnits="userSpaceOnUse">
<stop stop-color="#808080" stop-opacity="0.25"/>
<stop offset="0.54" stop-color="#808080" stop-opacity="0.12"/>
<stop offset="1" stop-color="#808080" stop-opacity="0.1"/>
</linearGradient>
<linearGradient id="paint1_linear" x1="458687" y1="658504" x2="458687" y2="45912.3" gradientUnits="userSpaceOnUse">
<stop stop-color="#808080" stop-opacity="0.25"/>
<stop offset="0.54" stop-color="#808080" stop-opacity="0.12"/>
<stop offset="1" stop-color="#808080" stop-opacity="0.1"/>
</linearGradient>
</defs>
</svg>
