<svg width="1259" height="965" viewBox="0 0 1259 965" fill="none" xmlns="http://www.w3.org/2000/svg">
<g clip-path="url(#clip0)">
<path d="M797.844 291.65C792.184 275.414 777.59 237.253 767.979 244.824C755.837 254.393 780.121 296.668 780.121 296.668C780.811 304.429 767.158 320.577 759.841 328.63C759.841 327.988 759.841 327.623 759.841 327.623C759.771 327.929 759.664 328.224 759.523 328.499L758.913 328.134C758.75 328.777 758.455 329.371 758.051 329.87C758.051 328.776 757.985 328.134 757.985 328.134C756.58 334.684 732.057 342.984 732.057 342.984C732.057 342.984 731.394 342.984 730.255 342.984C723.441 342.984 705.705 341.292 697.487 326.821C693.236 318.982 687.798 312 681.408 306.18C679.22 304.293 676.561 303.183 673.786 302.999C651.08 301.395 632.695 288.747 629.023 286.049L628.347 285.538L628.201 286.005C627.339 284.648 626.504 283.204 625.722 281.716L625.325 280.914C630.821 277.877 635.446 273.225 638.686 267.473C641.927 261.721 643.656 255.093 643.683 248.325C643.683 248.077 643.683 247.814 643.683 247.566C645.681 243.767 646.732 239.455 646.732 235.065V230.689L651.915 225.612C654.288 223.293 656.74 220.842 657.946 217.647C658.431 216.354 658.648 214.959 658.582 213.563C658.699 212.366 658.536 211.157 658.109 210.049C657.682 208.941 657.006 207.972 656.143 207.232C652.167 204.212 645.539 207.232 642.663 203.03C641.337 201.134 641.576 198.552 640.926 196.32C639.601 191.783 634.829 189.333 630.415 189.26C626.001 189.187 621.772 190.952 617.53 192.279C608.619 195.064 599.318 196.023 590.092 195.109C587.596 194.621 585.034 194.72 582.576 195.401C581.074 196.084 579.74 197.147 578.681 198.502C577.621 199.858 576.867 201.469 576.478 203.206C576.15 204.51 575.955 205.851 575.895 207.203C572.197 211.793 570.151 217.712 570.142 223.847V235.065C570.15 241.054 572.101 246.842 575.643 251.388C576.061 256.667 577.52 261.781 579.916 266.377C582.313 270.972 585.591 274.937 589.522 277.996C589.522 278.288 589.522 278.585 589.522 278.886L589.694 279.003C589.48 282.48 588.992 285.931 588.236 289.316V288.572C588.236 288.572 569.678 299.44 549.795 299.703H547.608C543.686 299.557 539.872 301.131 537.004 304.079C531.118 310.177 520.805 319.819 514.469 319.819C513.144 319.819 479.687 327.011 474.146 328.207L463.794 317.047L463.476 317.704L462.866 317.047C461.734 317.143 460.609 317.324 459.499 317.587C454.197 310.673 443.593 294.597 441.14 273.022C441.14 273.022 464.033 244.328 455.615 217.589C448.431 194.803 428.641 243.642 423.02 258.361C422.037 260.93 421.915 263.799 422.676 266.457L441.273 332.423C439.502 337.534 438.994 343.071 439.802 348.469H439.59L453.137 367.593C453.137 367.593 463.33 372.378 479.276 372.291C490.964 372.312 502.546 369.865 513.396 365.084H516.537L515.941 365.332H532.073L542.332 399.482C541.988 402.589 537.03 445.958 533.054 455.659C531.874 458.9 531.34 462.382 531.489 465.87C531.698 472.571 532.692 479.215 534.445 485.636L543.433 485.272L543.088 486.045C535.479 503.214 522.767 533.805 515.252 562.396L502.168 591.572L511.977 722.423H512.375L513.131 722.554C514.191 722.729 515.782 722.992 517.876 723.283L517.107 724.742L495.488 764.129C495.488 764.129 480.072 798.862 514.178 792.312C514.178 792.312 526.784 788.286 531.927 764.595L554.355 741.445C554.355 741.445 555.402 726.07 549.053 719.928C548.655 712.824 547.648 692.08 549.199 687.091C551.068 681.052 541.245 611.601 541.245 611.601C541.245 611.601 576.743 530.566 598.244 528.553C599.82 528.431 601.402 528.66 602.896 529.224C620.566 535.555 641.973 582.571 648.27 597.203L648.561 597.874V598.005L648.8 598.574V598.734L649.012 599.23V599.361L649.198 599.814V599.916L649.357 600.28V600.426L649.476 600.704V600.82L649.555 601.024V601.141V601.272L649.622 601.447L652.419 692.547L652.697 692.708H652.83L652.591 694.589L651.371 703.999C651.371 703.999 666.788 739.738 665.846 744.26C664.905 748.782 676.119 766.915 691.999 761.882C707.879 756.849 698.428 728.477 698.428 728.477L683.132 693.787L682.455 692.241C683.979 691.212 685.416 690.035 686.75 688.725C686.75 688.725 682.084 651.483 686.75 643.431C691.416 635.378 692.821 598.632 692.821 598.632C692.821 598.632 689.547 573.468 683.94 562.396L660.451 470.13C667.49 477.336 672.965 480.151 677.538 479.962H678.293C680.303 480.003 682.288 479.46 684.046 478.386C684.99 477.8 685.878 477.111 686.697 476.329C686.854 476.181 687 476.02 687.135 475.848V475.848C693.67 469.809 679.659 446.148 671.719 432.085C664.07 418.519 674.608 381.656 675.404 378.913C676.111 378.342 676.871 377.853 677.67 377.455C679.314 376.679 681.078 376.259 682.866 376.215C690.475 376.506 699.833 381.32 711.419 383.742C719.47 385.249 727.629 385.947 735.795 385.828H736.272C739.52 385.828 742.463 385.755 744.849 385.653C747.026 385.559 749.155 384.925 751.079 383.8V383.8C752.728 382.742 754.22 381.414 755.506 379.862L775.84 354.581L775.31 354.858C776.295 351.991 776.295 348.827 775.31 345.96L796.797 305.115C797.881 303.102 798.539 300.846 798.72 298.514C798.902 296.183 798.602 293.836 797.844 291.65V291.65Z" fill="url(#paint0_linear)"/>
<path d="M556.436 737.987L534.79 760.817C529.832 784.157 517.651 788.111 517.651 788.111C484.737 794.558 499.61 760.394 499.61 760.394L520.487 721.518L523.059 716.719C523.059 716.719 537.945 711.759 547.86 714.735C549.112 715.112 550.268 715.801 551.24 716.748C557.457 722.685 556.436 737.987 556.436 737.987Z" fill="#FF5858"/>
<path d="M689.905 758.337C674.568 763.297 663.752 745.442 664.72 740.963C665.687 736.485 650.709 701.314 650.709 701.314L651.875 692.037L652.962 683.444L678.147 685.428L680.52 690.913L695.287 725.121C695.287 725.121 705.241 753.377 689.905 758.337Z" fill="#FF5858"/>
<path opacity="0.1" d="M551.479 720.628C549.106 725.107 529.872 722.846 520.501 721.445L523.072 716.646C523.072 716.646 537.958 711.686 547.873 714.662C549.125 715.04 550.281 715.728 551.253 716.675C551.386 719.097 551.479 720.628 551.479 720.628Z" fill="black"/>
<path opacity="0.1" d="M680.547 690.884C667.649 700.337 653.916 693.189 651.849 692.007L652.936 683.415L678.121 685.399L680.547 690.884Z" fill="black"/>
<path d="M684.046 641.228C679.539 649.164 684.046 685.895 684.046 685.895C669.16 700.789 651.583 689.863 651.583 689.863L648.932 600.047C648.932 600.047 619.625 526.102 598.88 528.086C578.135 530.07 543.87 609.967 543.87 609.967C543.87 609.967 553.334 678.441 551.532 684.364C549.729 690.286 551.532 719.097 551.532 719.097C548.377 725.048 515.464 719.097 515.464 719.097L505.999 590.069L518.565 561.273C525.79 533.09 538.064 502.923 545.408 486.001C549.053 477.584 551.492 472.449 551.492 472.449L575.484 466.95L653.36 449.182L681.342 561.273C686.75 572.185 689.905 596.998 689.905 596.998C689.905 596.998 688.553 633.292 684.046 641.228Z" fill="black"/>
<g opacity="0.1">
<path opacity="0.1" d="M658.794 689.863L656.143 600.047C656.143 600.047 626.836 526.102 606.091 528.086C605.163 528.186 604.251 528.411 603.374 528.757C623.601 536.153 648.932 600.047 648.932 600.047L651.583 689.863C657.114 692.964 663.348 694.216 669.518 693.466C665.778 692.971 662.148 691.751 658.794 689.863V689.863Z" fill="black"/>
<path opacity="0.1" d="M522.621 719.14L513.157 590.113L525.776 561.273C533 533.09 545.275 502.923 552.619 486.001C556.264 477.584 558.703 472.449 558.703 472.449L582.695 466.95L653.784 450.684L653.4 449.124L575.484 466.95L551.492 472.449C551.492 472.449 549.053 477.584 545.408 486.001C538.038 502.923 525.79 533.148 518.565 561.273L505.946 590.054L515.411 719.082C515.411 719.082 533.385 722.335 544.042 721.62C536.869 721.192 529.719 720.364 522.621 719.14V719.14Z" fill="black"/>
</g>
<path d="M467.784 319.425C467.784 319.425 442.082 320.884 445.687 350.686L452.898 351.678L463.714 338.783L469.123 327.871V325.391L467.784 319.425Z" fill="#CED2DF"/>
<path opacity="0.1" d="M467.784 319.425C467.784 319.425 442.082 320.884 445.687 350.686L452.898 351.678L463.714 338.783L469.123 327.871V325.391L467.784 319.425Z" fill="black"/>
<path d="M753.717 330.337C753.717 330.337 774.925 342.736 769.504 357.134L762.744 360.051L753.73 354.596L752.404 341.7L753.306 332.773L753.717 330.337Z" fill="#CED2DF"/>
<path opacity="0.1" d="M753.717 330.337C753.717 330.337 774.925 342.736 769.504 357.134L762.744 360.051L753.73 354.596L752.404 341.7L753.306 332.773L753.717 330.337Z" fill="black"/>
<path d="M617.544 202.301H599.503C584.063 202.301 571.547 216.075 571.547 233.066C571.547 250.058 584.063 263.832 599.503 263.832H617.544C632.983 263.832 645.499 250.058 645.499 233.066C645.499 216.075 632.983 202.301 617.544 202.301Z" fill="#88455E"/>
<path d="M467.611 323.641L451.824 351.357L450.499 346.427L429.051 269.521C428.318 266.899 428.435 264.078 429.383 261.541C434.804 247.041 453.919 198.815 460.851 221.352C468.963 247.61 446.867 275.939 446.867 275.939C449.385 298.929 461.116 315.588 465.729 321.365C466.896 322.868 467.611 323.641 467.611 323.641Z" fill="#EC8C9C"/>
<path d="M750.336 335.544C750.336 335.544 775.137 309.739 774.196 299.323C774.196 299.323 750.747 257.646 762.478 248.267C771.757 240.798 785.848 278.434 791.309 294.436C792.031 296.568 792.321 298.848 792.158 301.115C791.996 303.383 791.384 305.585 790.368 307.565L760.729 365.318L750.336 335.544Z" fill="#EC8C9C"/>
<path d="M589.8 263.598C589.8 263.598 594.307 295.355 581.237 307.274C568.167 319.192 618.67 319.119 618.67 319.119L636.711 300.753C636.711 300.753 615.966 279.411 622.276 263.54L589.8 263.598Z" fill="#EC8C9C"/>
<path opacity="0.1" d="M588.899 299.819C588.899 299.819 608.291 315.705 627.671 297.835L659.232 369.796L657.429 457.628C657.429 457.628 592.04 494.841 564.986 472.026C537.932 449.211 560.479 437.293 560.479 437.293L554.169 369.811L560.93 326.135C560.93 326.135 573.098 305.29 574.013 305.29C574.927 305.29 588.899 299.819 588.899 299.819Z" fill="black"/>
<path d="M588.899 298.827C588.899 298.827 608.291 314.742 627.684 296.843L659.245 368.804L657.442 456.636C657.442 456.636 592.053 493.849 564.999 471.034C537.945 448.219 560.492 436.301 560.492 436.301L554.183 368.819L560.943 325.143C560.943 325.143 573.111 304.298 574.026 304.298C574.941 304.298 588.899 298.827 588.899 298.827Z" fill="#EBF1F6"/>
<path opacity="0.1" d="M588.899 291.402C588.899 291.402 570.513 302.926 550.551 302.358C548.678 302.293 546.813 302.639 545.063 303.375C543.313 304.112 541.713 305.223 540.357 306.646C534.671 312.656 524.716 322.167 518.552 322.167C517.227 322.167 478.865 330.599 478.865 330.599L468.725 319.44C468.725 319.44 453.614 351.941 446.403 350.453L459.486 369.315C459.486 369.315 484.287 381.218 516.749 366.835H535.691L545.606 400.576C545.606 400.576 540.649 446.235 536.593 456.155C532.537 466.074 537.918 485.432 537.918 485.432L573.536 483.973C573.536 483.973 575.338 464.616 578.042 462.092C580.747 459.568 568.578 374.26 568.578 374.26C568.578 374.26 560.466 326.121 590.224 308.761L588.899 291.402Z" fill="black"/>
<path opacity="0.1" d="M575.471 467.008C574.159 472.895 573.225 478.876 572.674 484.907L545.408 486.045C549.053 477.628 551.492 472.493 551.492 472.493L575.471 467.008Z" fill="black"/>
<path opacity="0.1" d="M467.611 323.641L451.824 351.357L450.499 346.427C456.291 340.096 463.078 326.865 465.782 321.351C466.896 322.868 467.611 323.641 467.611 323.641Z" fill="black"/>
<path d="M588.899 291.402C588.899 291.402 569.599 302.926 549.649 302.358C547.777 302.293 545.911 302.639 544.161 303.375C542.411 304.112 540.812 305.223 539.456 306.646C533.769 312.656 523.814 322.167 517.651 322.167C516.325 322.167 477.964 330.599 477.964 330.599L467.784 319.425C467.784 319.425 452.673 351.926 445.462 350.438L458.545 369.3C458.545 369.3 483.346 381.204 515.808 366.82H534.75L544.665 400.547C544.665 400.547 539.708 446.206 535.652 456.126C531.595 466.045 536.977 485.403 536.977 485.403L572.594 483.944C572.594 483.944 574.397 464.586 577.101 462.063C579.805 459.539 567.637 374.231 567.637 374.231C567.637 374.231 559.525 326.092 589.283 308.732L588.899 291.402Z" fill="#516500"/>
<path opacity="0.1" d="M627.684 288.397C627.684 288.397 646.082 303.831 670.645 305.611C673.332 305.796 675.902 306.892 678.002 308.747C684.196 314.53 689.446 321.437 693.524 329.17C703.439 347.039 727.789 345.055 727.789 345.055C727.789 345.055 751.463 336.872 752.815 330.468C752.815 330.468 753.491 365.478 768.377 357.017L748.799 381.845C747.565 383.414 746.052 384.688 744.354 385.588C742.655 386.489 740.807 386.997 738.924 387.082C731.567 387.403 718.789 387.505 707.999 385.201C691.761 381.729 680.043 373.297 671.48 380.737C671.48 380.737 660.213 419.438 667.874 433.34C675.536 447.242 689.083 470.553 682.76 476.519C676.437 482.485 668.776 481.975 656.157 467.591C643.537 453.208 642.172 428.891 642.172 428.891L645.327 366.368C645.327 366.368 633.158 319.221 621.467 309.797L627.684 288.397Z" fill="black"/>
<path opacity="0.1" d="M770.167 356.39L750.535 381.32C749.231 382.974 747.616 384.298 745.803 385.201V385.201C744.191 386.001 742.454 386.452 740.687 386.528C733.33 386.864 720.552 386.966 709.762 384.646C694.571 381.393 683.33 373.808 674.926 378.928C674.331 379.289 673.763 379.704 673.23 380.168C673.23 380.168 661.963 418.869 669.624 432.771C677.286 446.673 690.833 469.984 684.51 475.95C683.452 476.975 682.264 477.825 680.984 478.474C675.311 481.289 668.272 478.853 657.906 467.023C645.287 452.625 643.922 428.322 643.922 428.322L647.077 365.799C647.077 365.799 634.908 318.652 623.217 309.228L628.373 288.879C631.926 291.533 649.662 304.006 671.586 305.596C674.274 305.782 676.843 306.877 678.943 308.732C685.137 314.516 690.386 321.424 694.465 329.155C704.38 347.025 728.73 345.041 728.73 345.041C734.568 342.991 740.268 340.496 745.79 337.572V337.572C749.249 335.705 752.298 333.663 753.743 331.737C754.149 331.234 754.444 330.635 754.605 329.986C754.605 329.986 755.294 364.822 770.167 356.39Z" fill="black"/>
<path d="M769.265 356.886L749.647 381.845C748.568 383.215 747.275 384.361 745.83 385.23V385.23C743.977 386.337 741.918 386.961 739.812 387.053C732.455 387.389 719.677 387.491 708.887 385.171C694.24 382.035 683.251 374.858 674.966 378.957C674.02 379.411 673.129 379.994 672.315 380.693C672.315 380.693 661.048 419.394 668.71 433.296C676.371 447.198 689.918 470.509 683.595 476.475C682.778 477.25 681.889 477.93 680.944 478.503C675.112 482.048 667.901 479.962 656.965 467.548C644.346 453.15 642.981 428.847 642.981 428.847L646.136 366.324C646.136 366.324 633.967 319.177 622.276 309.753L627.684 288.412L628.334 288.908C631.886 291.563 649.622 304.035 671.546 305.625C674.234 305.811 676.803 306.906 678.903 308.761C685.097 314.546 690.347 321.453 694.425 329.184C704.34 347.054 728.69 345.07 728.69 345.07C734.528 343.021 740.228 340.525 745.75 337.601V337.601C749.846 335.296 753.186 332.773 753.703 330.468C753.703 330.468 753.703 330.92 753.703 331.722C754.101 337.747 756.089 364.34 769.265 356.886Z" fill="#516500"/>
<path opacity="0.1" d="M622.673 264.342H589.535C590.264 270.141 590.472 276.004 590.158 281.847C595.217 285.765 601.149 288.092 607.319 288.581C613.489 289.069 619.663 287.699 625.179 284.619C621.997 278.142 620.062 270.79 622.673 264.342Z" fill="black"/>
<path d="M609.643 287.901C627.821 287.901 642.557 271.684 642.557 251.68C642.557 231.676 627.821 215.459 609.643 215.459C591.466 215.459 576.73 231.676 576.73 251.68C576.73 271.684 591.466 287.901 609.643 287.901Z" fill="#EC8C9C"/>
<path opacity="0.1" d="M602.804 245.232C606.475 244.751 610.147 243.321 613.766 244.124C617.053 244.853 619.85 247.348 623.137 248.106C629.474 249.565 635.359 244.43 640.144 239.645L650.483 229.288C652.777 226.998 655.136 224.591 656.316 221.44C657.495 218.289 657.085 214.146 654.566 212.162C650.788 209.245 644.28 212.162 641.549 208.019C640.317 206.152 640.502 203.643 639.866 201.411C638.54 196.947 633.98 194.511 629.712 194.453C625.444 194.395 621.361 196.116 617.279 197.37C608.678 200.116 599.685 201.061 590.768 200.157C588.361 199.672 585.887 199.766 583.517 200.434C582.058 201.119 580.765 202.172 579.743 203.507C578.721 204.842 577.998 206.423 577.632 208.122C575.59 216.057 579.076 228.85 582.576 235.955C586.075 243.059 595.818 246.181 602.804 245.232Z" fill="black"/>
<path d="M602.804 244.24C606.475 243.759 610.147 242.329 613.766 243.132C617.053 243.861 619.85 246.356 623.137 247.114C629.474 248.573 635.359 243.438 640.144 238.653L650.483 228.296C652.777 226.006 655.136 223.599 656.316 220.448C657.495 217.297 657.085 213.154 654.566 211.17C650.788 208.253 644.28 211.17 641.549 207.027C640.317 205.16 640.502 202.651 639.866 200.419C638.54 195.955 633.98 193.519 629.712 193.461C625.444 193.403 621.361 195.124 617.279 196.378C608.678 199.124 599.685 200.069 590.768 199.165C588.361 198.68 585.887 198.774 583.517 199.442C582.058 200.127 580.765 201.18 579.743 202.515C578.721 203.85 577.998 205.431 577.632 207.13C575.59 215.065 579.076 227.859 582.576 234.963C586.075 242.067 595.818 245.116 602.804 244.24Z" fill="#88455E"/>
<path opacity="0.1" d="M545.394 400.809C545.394 400.809 552.605 401.801 556.211 406.761C559.816 411.721 566.126 413.209 566.126 413.209" fill="black"/>
<path opacity="0.1" d="M480.456 335.296C480.456 335.296 486.341 349.753 482.709 351.211C479.077 352.67 480.456 363.115 480.456 363.115" fill="black"/>
<g opacity="0.1">
<path opacity="0.1" d="M482.484 330.337C482.484 330.337 520.806 321.905 522.131 321.905C528.308 321.905 538.25 312.394 543.936 306.384C545.666 304.56 547.793 303.259 550.113 302.606H549.623C547.75 302.541 545.885 302.887 544.135 303.623C542.385 304.36 540.785 305.471 539.429 306.894C533.743 312.904 523.788 322.415 517.624 322.415C516.55 322.415 492.028 327.769 482.073 329.943L482.484 330.337Z" fill="black"/>
<path opacity="0.1" d="M588.952 293.488V291.636C579.733 296.809 569.813 300.301 559.578 301.978C569.733 300.984 579.663 298.113 588.952 293.488V293.488Z" fill="black"/>
<path opacity="0.1" d="M541.564 485.155C541.564 485.155 536.155 465.797 540.238 455.878C544.321 445.958 549.252 400.299 549.252 400.299L539.363 366.558H520.368L519.215 367.054H534.79L544.665 400.809C544.665 400.809 539.708 446.469 535.652 456.388C531.596 466.308 536.977 485.665 536.977 485.665L572.595 484.207V483.9L541.564 485.155Z" fill="black"/>
</g>
<g opacity="0.1">
<path opacity="0.1" d="M684.046 468.54C683.228 469.314 682.34 469.994 681.395 470.567C675.563 474.112 668.352 472.026 657.416 459.612C647.395 448.19 644.479 430.437 643.697 423.712L643.431 428.847C643.431 428.847 644.757 453.164 657.416 467.548C668.352 480.006 675.563 482.048 681.395 478.503C682.34 477.93 683.228 477.25 684.046 476.475C685.942 474.681 686.048 471.311 685.053 467.11C684.807 467.655 684.465 468.141 684.046 468.54V468.54Z" fill="black"/>
<path opacity="0.1" d="M762.889 357.63L750.124 373.866C749.046 375.236 747.753 376.382 746.307 377.25V377.25C744.454 378.357 742.395 378.981 740.289 379.074C732.932 379.409 720.154 379.511 709.364 377.192C694.717 374.056 683.728 366.879 675.443 370.978C674.497 371.431 673.606 372.014 672.792 372.714C672.792 372.714 665.515 397.717 666.628 414.74C667.49 398.825 672.792 380.649 672.792 380.649C673.606 379.95 674.497 379.367 675.443 378.913C683.741 374.814 694.717 381.991 709.364 385.128C720.154 387.432 732.919 387.33 740.289 387.009C742.395 386.917 744.454 386.293 746.307 385.186C747.749 384.331 749.042 383.2 750.124 381.845L769.756 356.915C768.74 357.611 767.591 358.038 766.399 358.162C765.207 358.286 764.006 358.104 762.889 357.63V357.63Z" fill="black"/>
</g>
<path d="M178.452 517.968C178.609 518.136 178.811 518.243 179.029 518.275C179.246 518.306 179.466 518.26 179.658 518.143C179.25 518.151 178.844 518.092 178.452 517.968V517.968Z" fill="url(#paint1_linear)"/>
<path d="M313.537 276.324C311.151 275.566 307.745 274.326 303.649 272.75C307.905 266.724 311.02 259.819 312.808 252.444L312.464 252.59C312.583 252.138 312.702 251.7 312.808 251.234C304.948 254.749 296.252 248.797 290.712 241.154C285.171 233.51 281.433 224.028 275.362 216.996C272.832 214.199 270.111 211.619 267.223 209.28C265.434 207.821 263.511 206.172 261.324 206.099C257.785 205.983 255.015 209.805 251.608 210.928C249.367 211.483 247.032 211.388 244.835 210.651C236.046 208.434 227.603 204.334 218.629 203.255C213.827 202.602 208.954 203.207 204.406 205.02C199.899 206.902 197.844 210.651 194.199 213.656C190.222 216.88 182.455 216.807 177.828 217.376C172.215 218.081 166.562 218.34 160.914 218.149C157.669 217.839 154.401 217.971 151.185 218.543C144.465 220.162 139.07 226.041 134.032 231.672C132.658 232.945 131.668 234.65 131.196 236.558C131.131 237.096 131.131 237.64 131.196 238.178C131.145 239.648 131.375 241.114 131.872 242.481C133.422 247.544 135.613 252.342 138.38 256.733C140.435 259.972 142.834 263.02 144.001 266.857C144.554 268.743 144.844 270.71 144.862 272.692C144.805 274.796 144.606 276.893 144.266 278.965C143.376 284.692 141.914 290.294 139.905 295.667C138.657 298.426 137.799 301.377 137.36 304.42C137.322 305.042 137.322 305.666 137.36 306.287C137.028 315.915 145.856 322.844 147.566 332.414C147.707 333.208 147.791 334.012 147.818 334.821C147.633 340.787 144.544 346.622 139.984 348.941C140.382 349.116 140.793 349.262 141.204 349.408C140.811 349.679 140.404 349.923 139.984 350.138C140.819 350.488 141.668 350.794 142.529 351.042C137.347 356.009 132.991 361.933 129.658 368.547C114.322 399.969 10.4522 461.514 10.4522 461.514L11.9898 462.477L10.7438 463.367C1.75664 469.946 -19.3327 489.128 -0.271437 513.388C-0.271437 513.388 14.6144 487.538 25.0464 476.525C25.5104 476.029 25.9743 475.576 26.372 475.153C26.6011 475.542 26.7548 475.978 26.8232 476.435C26.8917 476.892 26.8734 477.36 26.7696 477.808L95.0616 435.577C95.0616 435.577 119.332 416.876 126.106 412.66C130.873 409.391 136.061 406.932 141.495 405.366L140.7 405.731C143.253 404.958 145.886 404.546 148.534 404.506C160.623 404.71 173.719 414.454 178.027 453.039C183.807 504.708 181.129 514.029 179.273 515.299C179.044 515.28 178.818 515.236 178.597 515.167C178.655 515.222 178.717 515.271 178.783 515.313C178.531 515.294 178.283 515.245 178.041 515.167C178.174 515.302 178.337 515.397 178.513 515.443C178.689 515.489 178.874 515.484 179.048 515.43C179.173 515.472 179.305 515.484 179.436 515.467C179.566 515.449 179.691 515.402 179.803 515.328C180.108 515.347 180.414 515.347 180.718 515.328C180.718 515.804 180.687 516.29 180.625 516.786C180.533 516.786 180.082 517.064 180.625 517.093C180.48 520.01 180.493 523.176 180.625 526.487C174.621 526.852 168.616 527.246 163.393 527.596L163.857 524.868L164.069 523.643C168.682 523.234 173.056 521.746 173.573 517.633C174.7 508.588 163.42 503.76 153.823 503.162C144.226 502.564 86.6709 506.779 86.6709 506.779C86.6709 506.779 78.0416 519.077 105.414 522.826C106.227 523.293 107.071 523.779 107.946 524.285C118.669 531.009 133.211 543.394 140.183 549.492L141.151 550.338L138.022 553.139C154.95 557.355 171.32 628.542 180.347 661.087C189.374 693.632 209.124 692.451 225.495 687.622C240.831 683.1 242.727 634.086 242.979 627.93V627.302L270.258 664.384L272.326 667.199C273.122 667.656 273.908 668.084 274.686 668.483C295.338 679.293 318.15 658.564 311.668 634.932C305.107 611.11 294.927 575.881 288.14 560.987C282.453 548.515 275.11 527.8 270.656 514.832C271.234 514.576 271.797 514.279 272.34 513.942C272.34 513.942 272.234 513.358 272.061 512.293L272.34 512.133C272.34 512.133 265.712 474.614 265.42 447.948C265.42 447.481 265.42 446.994 265.42 446.489C265.42 446.197 265.42 445.905 265.42 445.628C270.351 444.388 273.48 443.907 273.48 443.907L273.572 442.74L273.002 442.871L275.746 408.313C275.746 408.313 285.82 384.725 278.106 374.907C275.76 372.036 274.194 368.498 273.586 364.696C272.26 355.666 273.586 340.597 291.547 328.081C319.198 308.782 329.987 293.071 329.987 293.071C329.987 293.071 330.465 281.809 313.537 276.324ZM258.62 300.306V284.333C263.75 284.056 268.986 284.712 274.142 284.333C276.674 284.138 279.182 283.674 281.632 282.947L282.878 283.895C275.334 290.281 267.204 295.781 258.62 300.306V300.306ZM180.214 550.688C182.242 552.234 184.284 553.839 186.285 555.458C187.531 563.336 188.632 568.893 188.711 569.287C186.424 562.804 183.578 556.576 180.214 550.688V550.688Z" fill="url(#paint2_linear)"/>
<path d="M224.037 537.559L222.844 544.693L221.929 550.149L220.259 560.126L204.061 572.599C204.061 572.599 202.603 571.228 200.191 569.054C193.563 563.044 179.605 550.849 169.359 544.255C166.725 542.405 163.876 540.957 160.888 539.952L224.037 537.559Z" fill="#FFBDC6"/>
<path opacity="0.1" d="M224.037 537.559L222.844 544.693C219.274 544.911 215.692 544.711 212.16 544.095L174.369 544.693C172.58 544.576 170.909 544.415 169.345 544.24C166.712 542.39 163.863 540.942 160.875 539.937L224.037 537.559Z" fill="black"/>
<path d="M212.16 542.928C212.16 542.928 231.062 546.487 232.136 537.574C233.21 528.661 222.42 523.964 213.26 523.293C204.101 522.622 148.998 526.881 148.998 526.881C148.998 526.881 139.282 541.133 174.369 543.511L212.16 542.928Z" fill="#7679B4"/>
<path opacity="0.1" d="M224.037 537.559L222.844 544.693L221.929 550.149L220.259 560.126L204.061 572.599C204.061 572.599 202.603 571.228 200.191 569.054C193.563 563.044 179.605 550.849 169.359 544.255C166.725 542.405 163.876 540.957 160.888 539.952L224.037 537.559Z" fill="black"/>
<path opacity="0.1" d="M224.037 537.559L222.844 544.693C219.274 544.911 215.692 544.711 212.16 544.095L174.369 544.693C172.58 544.576 170.909 544.415 169.345 544.24C166.712 542.39 163.863 540.942 160.875 539.937L224.037 537.559Z" fill="black"/>
<path opacity="0.1" d="M212.16 542.928C212.16 542.928 231.062 546.487 232.136 537.574C233.21 528.661 222.42 523.964 213.26 523.293C204.101 522.622 148.998 526.881 148.998 526.881C148.998 526.881 139.282 541.133 174.369 543.511L212.16 542.928Z" fill="black"/>
<path d="M253.451 249.994H154.658V378.919H253.451V249.994Z" fill="#A66477"/>
<path opacity="0.1" d="M253.451 249.994H154.658V378.919H253.451V249.994Z" fill="black"/>
<path d="M38.8588 470.719C37.2284 471.171 35.1606 472.892 32.8409 475.402C22.8595 486.255 8.62321 511.71 8.62321 511.71C-9.61625 487.816 10.5718 468.925 19.2275 462.433C21.3219 460.858 22.727 460.012 22.727 460.012L38.8588 470.719Z" fill="#FFBDC6"/>
<path d="M222.963 290.693C222.963 290.693 227.828 328.125 244.556 337.038C261.285 345.951 222.963 362.581 222.963 362.581L170.591 341.195C170.591 341.195 200.283 330.503 194.345 299.008L222.963 290.693Z" fill="#FFBDC6"/>
<path d="M166.866 515.868L165.673 523.001L164.759 528.457L163.089 538.435L146.891 550.907C146.891 550.907 145.432 549.536 143.02 547.362C136.392 541.352 122.434 529.157 112.188 522.563C109.555 520.713 106.705 519.265 103.718 518.26L166.866 515.868Z" fill="#FFBDC6"/>
<path opacity="0.1" d="M166.866 515.868L165.673 523.001C162.103 523.22 158.521 523.019 154.99 522.403L117.198 523.001C115.409 522.884 113.739 522.724 112.175 522.549C109.541 520.698 106.692 519.251 103.704 518.245L166.866 515.868Z" fill="black"/>
<path d="M154.937 521.221C154.937 521.221 173.839 524.781 174.912 515.868C175.986 506.955 165.196 502.199 156.01 501.615C146.824 501.032 91.7612 505.175 91.7612 505.175C91.7612 505.175 82.045 519.427 117.132 521.805L154.937 521.221Z" fill="#7679B4"/>
<path opacity="0.1" d="M164.706 528.471L163.036 538.449L146.838 550.922C146.838 550.922 145.379 549.55 142.967 547.377L164.388 528.048L164.706 528.471Z" fill="black"/>
<path d="M271.584 664.486C270.842 664.088 270.091 663.664 269.331 663.217L267.356 660.445L241.269 623.976V624.618C241.097 630.672 239.215 678.957 224.554 683.406C208.899 688.162 189.997 689.344 181.368 657.265C172.739 625.187 157.071 555.079 140.873 550.922L164.891 529.23C164.891 529.23 180.798 549.653 187.293 569.317C187.054 568.062 176.066 511.593 185.132 501.615H263.949C263.949 501.615 276.091 539.748 284.469 558.653C290.964 573.328 300.706 608.018 307.003 631.489C313.233 654.713 291.467 675.135 271.584 664.486Z" fill="#7679B4"/>
<path opacity="0.1" d="M269.384 512.294C257.229 520.215 203.783 516.991 186.365 515.707L181.633 515.328C181.116 515.328 181.713 515.007 181.713 515.007L182.203 509.61L195.154 473.374L264.532 429.144C263.127 433.798 262.65 440.931 262.769 449.115C263.114 475.343 269.384 512.294 269.384 512.294Z" fill="black"/>
<path d="M269.384 510.529C257.229 518.45 203.783 515.226 186.365 513.942L181.633 513.563H180.851L181.713 513.315L185.981 512.075L195.154 471.667L264.532 427.408C263.127 432.062 262.65 439.195 262.769 447.379C263.114 473.564 269.384 510.529 269.384 510.529Z" fill="#F2F1F2"/>
<path opacity="0.1" d="M262.769 447.32C248.666 450.894 217.621 461.412 205.692 486.707C197.738 503.599 191.111 510.849 186.378 513.884L181.646 513.504L181.726 513.183L185.994 511.944L195.167 471.536L264.546 427.277C263.114 432.062 262.65 439.137 262.769 447.32Z" fill="black"/>
<path opacity="0.1" d="M22.6607 460.026L38.8589 470.719C37.2284 471.171 35.1606 472.892 32.8409 475.402C31.5154 471.025 23.0054 465.015 19.1613 462.448C21.2557 460.872 22.6607 460.026 22.6607 460.026Z" fill="black"/>
<path opacity="0.1" d="M178.796 514.249C178.616 514.361 178.408 514.405 178.202 514.376C177.997 514.347 177.806 514.246 177.656 514.088C178.027 514.204 178.411 514.258 178.796 514.249V514.249Z" fill="black"/>
<path d="M215.395 334.66C215.395 334.66 200.814 336.44 190.554 324.565C190.554 324.565 147.368 338.234 132.787 369.131C118.206 400.027 18.8697 460.624 18.8697 460.624C18.8697 460.624 36.1017 471.317 34.5243 476.671L99.8471 435.081C99.8471 435.081 123.057 416.657 129.539 412.5C136.021 408.342 171.652 382.799 179.207 452.309C186.763 521.819 179.207 513.577 179.207 513.577C179.207 513.577 190.01 517.735 205.718 484.402C221.426 451.069 269.967 443.411 269.967 443.411L272.618 408.401C272.618 408.401 282.255 385.177 274.872 375.491C272.62 372.641 271.125 369.163 270.55 365.44C269.318 356.542 270.55 341.706 287.782 329.379C314.293 310.415 324.5 294.923 324.5 294.923C324.5 294.923 325.043 283.633 308.845 278.294C292.647 272.955 226.781 243.838 226.781 243.838L224.62 253.932L276.449 294.34C276.449 294.34 250.535 317.505 230.055 316.922C229.976 316.819 233.753 334.062 215.395 334.66Z" fill="#3B3695"/>
<path opacity="0.1" d="M225.402 306.987C224.126 302.2 223.13 297.328 222.42 292.4L193.802 300.773C195.054 306.783 194.83 313.052 193.152 318.935C199.001 320.652 205.18 320.433 210.916 318.305C216.652 316.178 221.691 312.236 225.402 306.973V306.987Z" fill="black"/>
<path d="M201.635 318.322C218.634 318.322 232.415 303.157 232.415 284.45C232.415 265.742 218.634 250.577 201.635 250.577C184.637 250.577 170.856 265.742 170.856 284.45C170.856 303.157 184.637 318.322 201.635 318.322Z" fill="#FFBDC6"/>
<path opacity="0.1" d="M217.993 207.412C226.529 208.477 234.655 212.518 243.059 214.706C245.159 215.431 247.396 215.527 249.541 214.983C252.801 213.875 255.452 210.111 258.819 210.228C260.9 210.228 262.796 211.862 264.466 213.364C267.233 215.674 269.834 218.215 272.247 220.964C278.04 227.893 281.645 237.229 286.934 244.757C292.223 252.284 300.561 258.148 308.076 254.691C302.973 276.572 286.218 293.304 268.111 294.661C260.887 295.201 253.53 293.552 246.492 295.886C244.748 296.669 242.907 297.16 241.031 297.345C237.054 297.345 233.767 293.275 231.248 289.322C225.363 280.015 220.644 269.453 214.016 260.978C211.829 258.177 209.244 255.508 206.156 254.997C203.067 254.487 200.217 256.106 197.46 257.681C192.913 260.278 188.261 262.962 184.735 267.397C181.209 271.831 178.982 278.469 180.44 284.479C181.222 287.717 183.025 290.635 183.091 294.034C183.091 299.431 178.823 303.384 177.961 308.621C177.771 310.832 177.701 313.053 177.749 315.273C177.365 322.479 173.097 328.402 168.616 332.91C166.88 334.675 164.944 336.556 164.441 339.284C164.096 341.137 164.441 343.106 164.215 344.988C163.566 349.671 159.324 352.034 155.573 352.647C151.192 353.353 146.719 352.769 142.609 350.954C147.911 348.227 151.079 340.451 149.86 333.449C148.19 323.807 139.388 316.892 140.13 307.06C140.545 304.049 141.368 301.124 142.569 298.381C144.49 293.076 145.886 287.56 146.732 281.926C147.599 277.59 147.512 273.089 146.48 268.797C145.353 265.019 143.06 262.014 141.098 258.819C138.441 254.476 136.345 249.748 134.868 244.771C134.333 243.3 134.128 241.709 134.271 240.132C134.699 238.273 135.622 236.596 136.923 235.318C141.747 229.761 146.917 223.969 153.333 222.365C156.398 221.803 159.516 221.67 162.611 221.971C168.016 222.16 173.426 221.906 178.796 221.212C183.224 220.643 190.726 220.716 194.464 217.536C197.95 214.619 199.926 210.899 204.234 209.032C208.63 207.26 213.355 206.704 217.993 207.412V207.412Z" fill="black"/>
<path opacity="0.1" d="M235.105 557.165C235.105 557.165 252.921 595.779 247.526 607.668Z" fill="black"/>
<path opacity="0.1" d="M267.409 660.445L241.322 623.976V624.618C241.322 624.618 239.811 612.832 244.782 616.799C255.665 625.464 273.082 639.673 273.453 642.123C273.824 644.574 269.927 654.406 267.409 660.445Z" fill="black"/>
<g opacity="0.1">
<path opacity="0.1" d="M230.492 316.82C230.492 316.82 232.693 326.856 225.575 331.874C236.537 329.803 237.014 320.423 236.683 316.338C234.637 316.703 232.565 316.864 230.492 316.82V316.82Z" fill="black"/>
<path opacity="0.1" d="M25.3648 458.247C25.3648 458.247 124.701 397.65 139.282 366.753C149.74 344.58 174.939 331.29 188.327 325.543C178.558 329.146 145.684 342.961 133.33 369.131C118.749 400.027 19.4131 460.624 19.4131 460.624L25.3648 458.247Z" fill="black"/>
<path opacity="0.1" d="M249.819 312.108C266.72 306.273 282.878 291.875 282.878 291.875L231.049 251.467L232.229 245.924L227.271 243.736L225.111 253.83L276.94 294.238C268.622 301.433 259.509 307.437 249.819 312.108V312.108Z" fill="black"/>
<path opacity="0.1" d="M250.15 449.027C256.773 446.539 263.569 444.651 270.471 443.382L270.564 442.229C263.61 443.91 256.785 446.183 250.15 449.027V449.027Z" fill="black"/>
<path opacity="0.1" d="M187.333 511.272H186.856C186.675 511.383 186.467 511.428 186.262 511.399C186.056 511.37 185.865 511.269 185.716 511.112C186.087 511.226 186.471 511.28 186.856 511.272C188.632 510.135 191.296 501.265 185.716 449.917C179.751 395.097 156.342 399.4 143.524 405.702C156.62 401.734 174.647 405.162 179.777 452.295C185.358 503.643 182.693 512.527 180.917 513.65C183.22 513.556 185.448 512.73 187.333 511.272Z" fill="black"/>
<path opacity="0.1" d="M180.917 513.666C180.532 513.673 180.148 513.619 179.777 513.504C179.927 513.663 180.118 513.764 180.323 513.793C180.528 513.822 180.737 513.777 180.917 513.666V513.666Z" fill="black"/>
</g>
<path d="M217.993 206.26C226.529 207.325 234.655 211.366 243.059 213.554C245.159 214.278 247.396 214.374 249.541 213.831C252.801 212.722 255.452 208.959 258.819 209.075C260.9 209.075 262.796 210.709 264.466 212.212C267.233 214.522 269.834 217.063 272.247 219.812C278.04 226.741 281.645 236.077 286.934 243.604C292.223 251.131 300.561 256.996 308.076 253.538C302.973 275.42 286.218 292.152 268.111 293.508C260.887 294.048 253.53 292.4 246.492 294.734C244.748 295.516 242.907 296.008 241.031 296.193C237.054 296.193 233.767 292.123 231.248 288.169C225.363 278.863 220.644 268.301 214.016 259.826C211.829 257.025 209.244 254.355 206.156 253.845C203.067 253.334 200.217 254.953 197.46 256.529C192.913 259.126 188.261 261.81 184.735 266.244C181.209 270.679 178.982 277.316 180.44 283.326C181.222 286.565 183.025 289.482 183.091 292.881C183.091 298.279 178.823 302.232 177.961 307.469C177.771 309.68 177.701 311.901 177.749 314.121C177.365 321.327 173.097 327.25 168.616 331.757C166.88 333.522 164.944 335.404 164.441 338.132C164.096 339.985 164.441 341.954 164.215 343.836C163.566 348.518 159.324 350.882 155.573 351.494C151.192 352.201 146.719 351.617 142.609 349.802C147.911 347.074 151.079 339.299 149.86 332.297C148.19 322.655 139.388 315.74 140.13 305.908C140.545 302.897 141.368 299.972 142.569 297.228C144.49 291.924 145.886 286.407 146.732 280.774C147.599 276.438 147.512 271.936 146.48 267.645C145.353 263.866 143.06 260.861 141.098 257.667C138.441 253.324 136.345 248.596 134.868 243.619C134.333 242.148 134.128 240.557 134.271 238.98C134.699 237.12 135.622 235.444 136.923 234.166C141.747 228.608 146.917 222.817 153.333 221.212C156.398 220.65 159.516 220.518 162.611 220.818C168.016 221.008 173.426 220.754 178.796 220.06C183.224 219.491 190.726 219.564 194.464 216.384C197.95 213.466 199.926 209.746 204.234 207.879C208.63 206.108 213.355 205.552 217.993 206.26V206.26Z" fill="#A66477"/>
<path d="M1198.59 158.98C1198.59 158.76 1198.59 158.556 1198.59 158.353C1198.59 158.15 1198.59 157.912 1198.49 157.709H1198.23C1198.23 157.251 1198.23 156.794 1198.23 156.302C1197.57 140.592 1176.4 107.154 1167.91 116.916C1160.48 125.491 1171.69 147.184 1177.41 156.946L1177.92 157.827L1177.64 157.641C1177.64 157.641 1154.01 229.974 1151.22 232.787C1148.43 235.601 1128.97 292.478 1103.33 298.884C1098.26 300.121 1094.05 301.24 1090.52 302.273L1090.8 301.307C1092.45 295.765 1094.48 290.529 1095.3 284.36C1096.13 278.191 1095.3 270.717 1092.27 267.717C1090.78 266.225 1088.96 266.022 1087.74 263.649C1086.95 261.568 1086.52 259.359 1086.49 257.124L1084.31 229.703L1085.83 229.228C1095.01 226.212 1103.91 219.06 1104.95 209.433C1104.63 209.558 1104.3 209.665 1103.97 209.755C1104.09 209.196 1104.19 208.63 1104.25 208.061C1096.54 211.179 1089.39 202.976 1081.96 199.299C1069.73 193.147 1055.74 198.943 1043.11 200.349C1028.79 201.959 1015.2 195.858 1000.57 196.96C992.61 197.587 983.759 203.129 984.188 211.179C984.436 215.602 987.491 219.348 988.746 223.585C991.916 233.838 984.865 244.126 978.689 252.871C974.627 258.616 970.73 265.615 970.037 272.36C955.819 257.108 940.445 239.482 938.662 232.855L897.528 160.522C897.528 160.522 896.553 161.59 894.985 163.166C894.737 162.386 894.44 161.471 894.11 160.556C888.858 145.456 873.997 108.865 855.155 115.577C836.314 122.288 862.966 159.793 874.558 174.741L876.209 176.809C875.237 177.054 874.217 177.007 873.27 176.673L919.143 257.43C919.143 257.43 927.482 272.886 935.128 277.089C935.128 277.089 992.114 350.829 992.808 365.573C993.502 380.318 1018.44 419.654 1018.44 419.654C1018.44 419.654 1026.78 483.564 1012.18 494.8H1012.36H1012.48H1012.66H1012.82H1013.15H1013.37H1013.58H1013.86H1014.09H1014.42H1014.59C1013.9 495.495 1013.19 496.257 1012.46 497.088C1001.64 509.392 987.821 535.763 1006.71 580.607C1034.5 646.703 1038.68 672.599 1038.68 672.599C1038.68 672.599 985.84 675.412 975.436 677.514C966.222 679.378 930.405 680.683 922.215 680.903C919.292 677.412 910.656 669.684 898.997 680.903C884.4 694.953 873.98 741.915 873.98 741.915C873.98 741.915 868.415 779.845 887.191 769.998C887.191 769.998 909.434 738.39 915.676 736.984C918.78 736.289 922.066 731.594 924.576 727.069L924.708 727.154C924.857 727.154 925.468 726.815 926.459 726.408C931.082 724.527 943.814 720.002 953.854 722.256C959.353 723.493 982.933 723.781 1007.65 723.714C1002.07 737.441 992.065 772.862 992.065 772.862C992.065 772.862 987.887 805.893 1001.76 804.537C1011.67 803.537 1026.86 777.557 1034.78 762.727C1040.53 758.406 1056.99 742.915 1069.16 744.085L1151.17 711.782C1151.17 711.782 1170.62 700.546 1160.2 663.329C1151.94 633.738 1128.45 573.166 1119.17 549.558L1118.89 548.948C1116.64 543.237 1115.29 539.847 1115.29 539.847C1111.47 529.07 1108.97 517.85 1107.84 506.443C1107.76 505.545 1107.69 504.63 1107.62 503.731C1108.77 503.237 1109.85 502.593 1110.84 501.816C1110.84 501.816 1103.2 422.467 1110.84 414.027L1110.98 413.874V413.773L1111.11 413.603L1111.4 413.213L1111.77 412.739C1112.18 412.18 1112.68 411.485 1113.24 410.637C1117.61 404.062 1125.77 389.046 1123.43 371.319C1123.33 370.55 1123.21 369.776 1123.06 368.997C1122.16 364.189 1120.56 359.549 1118.31 355.235C1117.98 353.439 1117.77 351.621 1117.7 349.795C1117.7 348.761 1117.7 347.626 1117.7 346.405V346.202C1117.7 345.874 1117.7 345.547 1117.7 345.219V344.982C1117.7 344.185 1117.83 343.287 1117.94 342.541V342.236C1117.94 341.931 1117.99 341.62 1118.09 341.304V340.914C1118.09 340.609 1118.22 340.304 1118.29 339.999V339.677C1118.39 339.27 1118.49 338.864 1118.62 338.457V338.253C1118.72 337.914 1118.83 337.581 1118.95 337.254L1119.1 336.864L1119.43 336.05L1119.6 335.643C1119.73 335.338 1119.88 335.033 1120.02 334.728L1120.14 334.474C1120.34 334.101 1120.55 333.734 1120.77 333.372L1120.95 333.084L1121.49 332.288L1121.76 331.932L1122.34 331.22L1122.6 330.915C1122.9 330.593 1123.2 330.271 1123.53 329.966C1132.56 321.492 1172.87 259.04 1172.87 259.04C1172.87 259.04 1182.59 244.99 1182.59 235.872C1183.14 235.669 1200.33 176.86 1198.59 158.98ZM1090.38 683.937C1089.39 674.311 1088.4 662.38 1087.49 650.042L1103.21 675.192C1103.21 675.192 1101.73 682.852 1090.38 683.937Z" fill="url(#paint3_linear)"/>
<path d="M926.75 678.504C926.75 678.504 917.434 663.262 903.445 677.132C889.456 691.002 879.487 737.134 879.487 737.134C879.487 737.134 874.16 774.391 892.136 764.721C892.136 764.721 913.382 733.679 919.428 732.307C925.475 730.935 932.077 713.678 932.077 713.678L926.75 678.504Z" fill="#493545"/>
<path d="M1028.8 715.238C1028.8 715.238 1015.87 709.037 1011.79 713.869C1007.71 718.701 994.093 766.853 994.093 766.853C994.093 766.853 990.016 798.515 1003.62 797.13C1017.22 795.744 1041.05 746.173 1041.05 746.173L1028.8 715.238Z" fill="#493545"/>
<path opacity="0.05" d="M1028.8 715.238C1028.8 715.238 1015.87 709.037 1011.79 713.869C1007.71 718.701 994.093 766.853 994.093 766.853C994.093 766.853 990.016 798.515 1003.62 797.13C1017.22 795.744 1041.05 746.173 1041.05 746.173L1028.8 715.238Z" fill="black"/>
<path d="M1071.72 621.857L1100.81 667.96C1100.81 667.96 1098.79 678.282 1081.19 676.221L1020.96 714.756C1020.96 714.756 1015.73 761.669 1032.46 757.412C1035.17 756.72 1054.06 736.768 1067.65 738.153L1147.52 706.495C1147.52 706.495 1166.46 695.48 1156.31 659.023C1146.16 622.567 1112.59 538.031 1112.59 538.031L1059.54 568.203L1071.72 621.857Z" fill="#3E3D77"/>
<path opacity="0.05" d="M1071.72 621.857L1100.81 667.96C1100.81 667.96 1098.79 678.282 1081.19 676.221L1020.96 714.756C1020.96 714.756 1015.73 761.669 1032.46 757.412C1035.17 756.72 1054.06 736.768 1067.65 738.153L1147.52 706.495C1147.52 706.495 1166.46 695.48 1156.31 659.023C1146.16 622.567 1112.59 538.031 1112.59 538.031L1059.54 568.203L1071.72 621.857Z" fill="black"/>
<path d="M1090.08 689.488C1094.13 715.701 1071.2 717.767 1071.2 717.767C1071.2 717.767 967.967 719.833 955.825 717.073C943.683 714.313 927.482 721.899 927.482 721.899C906.561 708.792 923.44 676.381 923.44 676.381C923.44 676.381 966.625 675.01 976.747 672.995C986.868 670.98 1038.14 668.118 1038.14 668.118C1038.14 668.118 1034.09 642.599 1007.09 577.777C988.756 533.75 1002.12 507.841 1012.68 495.767C1015.37 492.564 1018.49 489.759 1021.94 487.436L1104.93 491.568C1104.84 495.846 1104.99 500.127 1105.39 504.387C1106.81 519.012 1110.53 533.307 1116.41 546.721C1111.69 546.721 1081.32 575.694 1081.32 575.694C1081.32 575.694 1086.03 663.292 1090.08 689.488Z" fill="#3E3D77"/>
<path opacity="0.1" d="M929.568 679.119C929.568 679.119 973.003 677.747 983.183 675.731C993.362 673.716 1044.93 670.904 1044.93 670.904C1044.93 670.904 1040.86 645.382 1013.71 580.551C995.262 536.517 1008.71 510.605 1019.32 498.529C1022.03 495.325 1025.16 492.52 1028.63 490.197L1105.97 494.024C1105.97 493.211 1105.97 492.331 1105.97 491.568L1022.5 487.436C1019.03 489.76 1015.9 492.564 1013.19 495.769C1002.63 507.861 989.13 533.756 1007.57 577.79C1034.8 642.57 1038.83 668.093 1038.83 668.093C1038.83 668.093 987.181 670.854 977.085 672.92C966.988 674.986 923.47 676.307 923.47 676.307C923.47 676.307 906.51 708.74 927.536 721.899C927.536 721.899 928.169 721.594 929.202 721.154C915.223 706.538 929.568 679.119 929.568 679.119Z" fill="black"/>
<path d="M1053.8 234.463H1012.07V343.056H1053.8V234.463Z" fill="#493545"/>
<path opacity="0.1" d="M1053.8 234.463H1012.07V343.056H1053.8V234.463Z" fill="black"/>
<path d="M1077.05 218.235C1078.46 218.642 1080.05 218.692 1081.01 220.727C1081.61 222.352 1081.93 224.072 1081.97 225.812L1084.55 259.308C1084.59 261.501 1084.99 263.67 1085.75 265.715C1086.84 267.987 1088.64 268.258 1090.05 269.716C1092.89 272.665 1093.72 280.056 1092.94 286.074C1092.16 292.091 1090.2 297.245 1088.66 302.686C1086.45 310.483 1084.99 319.247 1081.89 325.824C1078.79 332.401 1073.15 335.995 1069.52 330.469C1065.88 324.943 1066.37 313.789 1065.69 304.652C1064.55 289.396 1058.85 276.242 1058.46 260.884C1058.14 248.459 1061.34 236.864 1063.33 225.083C1064.76 216.997 1064.84 207.183 1066.92 199.91C1068.66 208.556 1071.97 216.777 1077.05 218.235Z" fill="#493545"/>
<path opacity="0.1" d="M1077.05 218.235C1078.46 218.642 1080.05 218.692 1081.01 220.727C1081.61 222.352 1081.93 224.072 1081.97 225.812L1084.55 259.308C1084.59 261.501 1084.99 263.67 1085.75 265.715C1086.84 267.987 1088.64 268.258 1090.05 269.716C1092.89 272.665 1093.72 280.056 1092.94 286.074C1092.16 292.091 1090.2 297.245 1088.66 302.686C1086.45 310.483 1084.99 319.247 1081.89 325.824C1078.79 332.401 1073.15 335.995 1069.52 330.469C1065.88 324.943 1066.37 313.789 1065.69 304.652C1064.55 289.396 1058.85 276.242 1058.46 260.884C1058.14 248.459 1061.34 236.864 1063.33 225.083C1064.76 216.997 1064.84 207.183 1066.92 199.91C1068.66 208.556 1071.97 216.777 1077.05 218.235Z" fill="black"/>
<path d="M901.936 168.547L883.236 181.4C883.236 181.4 881.015 179.255 877.704 175.786C864.708 162.113 834.83 127.812 855.942 121.677C877.053 115.542 893.744 148.992 899.639 162.807C901.132 166.308 901.936 168.547 901.936 168.547Z" fill="#C77485"/>
<path d="M1191.78 166.919C1185.16 177.289 1175.89 166.919 1175.89 166.919C1175.89 166.919 1174.7 165.07 1173.02 162.083C1167.57 152.46 1156.89 131.126 1163.96 122.675C1172.1 113.018 1192.25 145.977 1192.87 161.438C1193.06 163.339 1192.68 165.255 1191.78 166.919V166.919Z" fill="#C77485"/>
<path d="M1025.98 278.26C1025.98 278.26 1039.49 322.514 1035.43 335.635C1031.37 348.757 1064.46 364.035 1064.46 364.035H1102.26C1102.26 364.035 1115.77 335.686 1112.39 327.386C1109 319.085 1079.99 312.872 1079.99 312.872C1079.99 312.872 1063.12 312.872 1063.8 266.547L1025.98 278.26Z" fill="#C77485"/>
<path opacity="0.1" d="M1191.79 166.481C1185.23 177.837 1176.05 166.481 1176.05 166.481C1176.05 166.481 1174.87 164.455 1173.21 161.184L1173.42 160.422C1177.67 163.935 1190.9 160.942 1192.87 160.422C1193.07 162.522 1192.69 164.642 1191.79 166.481V166.481Z" fill="black"/>
<path opacity="0.1" d="M1105.97 504.25C1085.11 513.899 1017.3 496.716 1013.23 495.692C1015.92 492.517 1019.04 489.738 1022.49 487.436L1105.46 491.531C1105.39 495.777 1105.56 500.024 1105.97 504.25V504.25Z" fill="black"/>
<path d="M1035.57 316.241C1035.57 316.241 1019.42 321.748 996.53 300.415C996.53 300.415 945.292 248.813 941.986 236.432L902.319 165.491C902.319 165.491 885.493 184.071 878.75 181.318L923.177 260.434C923.177 260.434 931.26 275.636 938.664 279.69C938.664 279.69 993.868 351.931 994.53 366.373C995.191 380.815 1019.4 419.494 1019.4 419.494C1019.4 419.494 1027.49 482.092 1013.34 493.104C1013.34 493.104 1092.1 513.745 1108.92 499.979C1108.92 499.979 1101.52 422.281 1108.92 413.988C1108.92 413.988 1131.81 386.473 1116.33 356.205C1116.33 356.205 1113.02 339.702 1121.71 331.443C1130.41 323.183 1169.51 261.954 1169.51 261.954C1169.51 261.954 1178.93 248.188 1178.93 239.253C1178.93 239.253 1196.44 178.717 1193.81 162.89C1193.81 162.89 1178.32 166.268 1173.61 162.89C1173.61 162.89 1150.72 233.831 1148.03 236.5C1145.33 239.169 1126.54 294.976 1101.58 301.175C1076.63 307.374 1072.64 310.11 1072.64 310.11C1072.64 310.11 1121.1 341.071 1097.55 354.82C1074 368.569 1035.57 316.241 1035.57 316.241Z" fill="#FF004E"/>
<path opacity="0.1" d="M1065.4 288.383C1064.61 281.96 1064.28 275.487 1064.43 269.015L1027.14 280.599C1028.12 283.143 1028.9 285.762 1029.48 288.433C1033.74 290.358 1039.5 294.911 1044.45 294.911C1051.95 295.162 1059.31 292.866 1065.4 288.383V288.383Z" fill="black"/>
<path d="M1043.95 293.696C1063.48 293.696 1079.31 277.674 1079.31 257.909C1079.31 238.145 1063.48 222.123 1043.95 222.123C1024.42 222.123 1008.59 238.145 1008.59 257.909C1008.59 277.674 1024.42 293.696 1043.95 293.696Z" fill="#C77485"/>
<path opacity="0.1" d="M1002.5 201.632C994.743 202.244 986.091 207.723 986.524 215.669C986.757 220.041 989.685 223.734 990.966 227.919C994.044 238.043 987.189 248.2 981.167 256.844C975.144 265.487 969.52 276.938 974.678 286.092C976.148 288.296 977.737 290.414 979.436 292.438C985.808 301.235 985.725 313.111 988.554 323.677C992.166 337.195 1000.7 348.784 1012.41 356.062C1024.12 363.341 1038.11 365.755 1051.51 362.81C1046.47 356.227 1043.95 347.985 1044.44 339.637C1044.82 333.579 1046.74 327.25 1044.44 321.652C1041.48 314.455 1032.79 311.614 1028.32 305.318C1023.84 299.023 1024.14 290.294 1026.3 282.791C1028.47 275.288 1032.21 268.329 1034.01 260.672C1034.45 258.438 1035.01 256.229 1035.67 254.053C1038.8 244.968 1048.15 239.693 1057.3 237.43C1066.45 235.167 1076.07 235.031 1085 232.054C1093.94 229.076 1102.62 222.1 1103.65 212.521C1096.13 215.601 1089.16 207.57 1081.91 203.878C1069.96 197.82 1056.34 203.52 1044.02 204.915C1030 206.515 1016.69 200.577 1002.5 201.632Z" fill="black"/>
<path d="M1001.34 200.398C993.584 201.01 984.932 206.489 985.365 214.435C985.598 218.807 988.526 222.5 989.807 226.685C992.885 236.809 986.03 246.966 980.007 255.61C973.984 264.253 968.361 275.704 973.519 284.858C974.989 287.062 976.577 289.18 978.277 291.204C984.649 300.001 984.566 311.877 987.394 322.443C991.007 335.96 999.545 347.549 1011.25 354.828C1022.96 362.106 1036.96 364.521 1050.35 361.576C1045.31 354.993 1042.79 346.751 1043.28 338.403C1043.66 332.345 1045.58 326.016 1043.28 320.418C1040.32 313.221 1031.63 310.38 1027.16 304.084C1022.68 297.789 1022.98 289.06 1025.15 281.557C1027.31 274.054 1031.05 267.095 1032.85 259.438C1033.29 257.204 1033.85 254.995 1034.51 252.819C1037.64 243.734 1046.99 238.459 1056.14 236.196C1065.29 233.933 1074.91 233.797 1083.84 230.82C1092.78 227.842 1101.46 220.866 1102.49 211.287C1094.97 214.367 1088 206.336 1080.75 202.644C1068.8 196.586 1055.18 202.286 1042.86 203.681C1028.87 205.264 1015.61 199.258 1001.34 200.398Z" fill="#493545"/>
<path opacity="0.1" d="M1078.15 336.886C1078.15 336.886 1092.68 349.73 1095.54 355.396Z" fill="black"/>
<path opacity="0.1" d="M1109.45 413.395C1109.45 413.395 1091.9 413.395 1083.8 415.958C1075.69 418.521 1056.12 415.958 1056.12 415.958" fill="black"/>
<g opacity="0.1">
<path opacity="0.1" d="M1097.21 354.692C1095.7 355.577 1094.06 356.217 1092.36 356.589C1096.76 357.586 1101.36 356.912 1105.31 354.692C1128.91 340.89 1080.36 309.866 1080.36 309.866H1072.27C1072.27 309.866 1120.81 340.907 1097.21 354.692Z" fill="black"/>
<path opacity="0.1" d="M1193.78 163.518C1193.78 163.077 1193.68 162.654 1193.61 162.265C1190.84 162.852 1188.04 163.288 1185.22 163.569C1188.06 163.889 1190.93 163.872 1193.78 163.518V163.518Z" fill="black"/>
<path opacity="0.1" d="M1021.04 493.335C1035.19 482.294 1027.11 419.534 1027.11 419.534C1027.11 419.534 1002.85 380.907 1002.17 366.428C1001.49 351.949 946.224 279.52 946.224 279.52C938.808 275.387 930.714 260.214 930.714 260.214C930.714 260.214 884.865 183.653 878.128 180.893L922.62 260.214C922.62 260.214 930.714 275.455 938.13 279.52C938.13 279.52 993.413 351.949 994.076 366.428C994.738 380.907 1019 419.585 1019 419.585C1019 419.585 1027.1 482.345 1012.93 493.386C1012.93 493.386 1061.41 506.104 1090.47 504.952C1061.34 503.902 1021.04 493.335 1021.04 493.335Z" fill="black"/>
<path opacity="0.1" d="M1035.59 316.606L1035.19 316.081C1034.73 316.221 1034.26 316.328 1033.78 316.403C1034.41 316.487 1035.01 316.555 1035.59 316.606Z" fill="black"/>
</g>
<g opacity="0.1">
<path opacity="0.1" d="M1193.61 162.18L1193.2 162.265C1192.48 183.45 1178.12 233.22 1178.12 233.22C1178.12 242.179 1168.68 255.98 1168.68 255.98C1168.68 255.98 1129.59 317.368 1120.81 325.649C1112.04 333.93 1115.42 350.475 1115.42 350.475L1115.5 350.645C1115.24 345.073 1115.9 336.436 1121.48 331.153C1130.23 322.872 1169.34 261.484 1169.34 261.484C1169.34 261.484 1178.78 247.683 1178.78 238.724C1178.78 238.826 1196.31 178.132 1193.61 162.18Z" fill="black"/>
<path opacity="0.1" d="M1108 408.493C1109.01 414.352 1108.33 408.154 1108.68 414.014C1108.68 414.014 1125.23 394.149 1120.71 369.594C1122.07 391.542 1108 408.493 1108 408.493Z" fill="black"/>
</g>
<path d="M402.978 844.273C402.978 844.273 383.678 772.137 406.597 719.053C416.344 696.852 419.284 671.77 414.974 647.573C412.846 636.104 409.766 624.873 405.775 614.022" stroke="#535461" stroke-width="2" stroke-miterlimit="10"/>
<path d="M420.064 580.5C420.064 589.34 405.483 614.97 405.483 614.97C405.483 614.97 390.902 589.34 390.902 580.5C390.754 578.299 391.021 576.088 391.684 574.005C392.348 571.922 393.395 570.013 394.76 568.396C396.124 566.778 397.778 565.488 399.616 564.606C401.454 563.724 403.438 563.269 405.444 563.269C407.449 563.269 409.433 563.724 411.271 564.606C413.11 565.488 414.763 566.778 416.128 568.396C417.492 570.013 418.539 571.922 419.203 574.005C419.867 576.088 420.133 578.299 419.985 580.5H420.064Z" fill="#3D8337"/>
<path d="M444.07 629.456C439.709 636.881 414.842 649.689 414.842 649.689C414.842 649.689 415.292 619.478 419.653 612.053C420.621 610.125 421.938 608.437 423.524 607.094C425.109 605.751 426.929 604.781 428.87 604.246C430.811 603.71 432.831 603.62 434.805 603.98C436.779 604.341 438.664 605.145 440.344 606.342C442.023 607.539 443.461 609.103 444.567 610.938C445.673 612.773 446.425 614.839 446.774 617.007C447.124 619.175 447.064 621.399 446.599 623.541C446.133 625.682 445.273 627.696 444.07 629.456V629.456Z" fill="#3D8337"/>
<path d="M443.023 713.145C435.852 717.127 408.559 714.37 408.559 714.37C408.559 714.37 422.808 688.535 429.979 684.553C431.698 683.417 433.612 682.684 435.6 682.398C437.589 682.113 439.609 682.282 441.535 682.895C443.461 683.508 445.252 684.552 446.795 685.961C448.338 687.37 449.601 689.114 450.504 691.084C451.407 693.055 451.931 695.209 452.043 697.412C452.155 699.615 451.853 701.82 451.156 703.889C450.459 705.958 449.382 707.847 447.991 709.437C446.601 711.027 444.928 712.284 443.076 713.13L443.023 713.145Z" fill="#3D8337"/>
<path d="M429.277 776.251C422.821 781.502 395.436 783.88 395.436 783.88C395.436 783.88 405.51 755.77 411.978 750.504C415.091 748.422 418.8 747.698 422.373 748.474C425.947 749.25 429.127 751.47 431.288 754.697C433.449 757.924 434.434 761.924 434.05 765.911C433.665 769.897 431.939 773.58 429.211 776.236L429.277 776.251Z" fill="#3D8337"/>
<path d="M384.275 651.41C390.041 657.566 416.883 663.955 416.883 663.955C416.883 663.955 410.255 634.62 404.542 628.449C403.209 626.805 401.583 625.48 399.764 624.558C397.945 623.635 395.973 623.135 393.971 623.088C391.969 623.042 389.98 623.449 388.127 624.286C386.274 625.122 384.598 626.37 383.203 627.95C381.807 629.531 380.723 631.411 380.017 633.473C379.311 635.536 378.998 637.736 379.099 639.937C379.2 642.138 379.711 644.293 380.601 646.266C381.492 648.24 382.742 649.991 384.275 651.41Z" fill="#3D8337"/>
<path d="M369.071 725.457C376.242 729.439 403.535 726.682 403.535 726.682C403.535 726.682 389.338 700.847 382.167 696.938C378.767 695.384 374.959 695.304 371.507 696.713C368.055 698.121 365.215 700.915 363.557 704.532C361.9 708.15 361.547 712.323 362.569 716.215C363.592 720.107 365.914 723.43 369.071 725.515V725.457Z" fill="#3D8337"/>
<path d="M363.238 799.649C369.694 804.901 397.079 807.279 397.079 807.279C397.079 807.279 387.005 779.168 380.537 773.902C379.02 772.426 377.242 771.314 375.314 770.636C373.385 769.958 371.35 769.73 369.337 769.965C367.324 770.2 365.378 770.894 363.622 772.002C361.866 773.11 360.339 774.609 359.139 776.402C357.938 778.195 357.089 780.244 356.647 782.418C356.205 784.592 356.179 786.843 356.571 789.028C356.963 791.214 357.764 793.285 358.923 795.111C360.083 796.938 361.575 798.478 363.305 799.635L363.238 799.649Z" fill="#3D8337"/>
<path opacity="0.1" d="M420.064 580.5C420.064 589.34 405.483 614.97 405.483 614.97C405.483 614.97 390.902 589.34 390.902 580.5C390.754 578.299 391.021 576.088 391.684 574.005C392.348 571.922 393.395 570.013 394.76 568.396C396.124 566.778 397.778 565.488 399.616 564.606C401.454 563.724 403.438 563.269 405.444 563.269C407.449 563.269 409.433 563.724 411.271 564.606C413.11 565.488 414.763 566.778 416.128 568.396C417.492 570.013 418.539 571.922 419.203 574.005C419.867 576.088 420.133 578.299 419.985 580.5H420.064Z" fill="#3D8337"/>
<path opacity="0.1" d="M444.07 629.456C439.709 636.881 414.842 649.689 414.842 649.689C414.842 649.689 415.292 619.478 419.653 612.053C420.621 610.125 421.938 608.437 423.524 607.094C425.109 605.751 426.929 604.781 428.87 604.246C430.811 603.71 432.831 603.62 434.805 603.98C436.779 604.341 438.664 605.145 440.344 606.342C442.023 607.539 443.461 609.103 444.567 610.938C445.673 612.773 446.425 614.839 446.774 617.007C447.124 619.175 447.064 621.399 446.599 623.541C446.133 625.682 445.273 627.696 444.07 629.456V629.456Z" fill="#3D8337"/>
<path opacity="0.1" d="M443.023 713.145C435.852 717.127 408.559 714.37 408.559 714.37C408.559 714.37 422.808 688.535 429.979 684.553C431.698 683.417 433.612 682.684 435.6 682.398C437.589 682.113 439.609 682.282 441.535 682.895C443.461 683.508 445.252 684.552 446.795 685.961C448.338 687.37 449.601 689.114 450.504 691.084C451.407 693.055 451.931 695.209 452.043 697.412C452.155 699.615 451.853 701.82 451.156 703.889C450.459 705.958 449.382 707.847 447.991 709.437C446.601 711.027 444.928 712.284 443.076 713.13L443.023 713.145Z" fill="#3D8337"/>
<path opacity="0.1" d="M429.277 776.251C422.821 781.502 395.436 783.88 395.436 783.88C395.436 783.88 405.51 755.77 411.978 750.504C415.091 748.422 418.8 747.698 422.373 748.474C425.947 749.25 429.127 751.47 431.288 754.697C433.449 757.924 434.434 761.924 434.05 765.911C433.665 769.897 431.939 773.58 429.211 776.236L429.277 776.251Z" fill="#3D8337"/>
<path opacity="0.1" d="M384.275 651.41C390.041 657.566 416.883 663.955 416.883 663.955C416.883 663.955 410.255 634.62 404.542 628.449C403.209 626.805 401.583 625.48 399.764 624.558C397.945 623.635 395.973 623.135 393.971 623.088C391.969 623.042 389.98 623.449 388.127 624.286C386.274 625.122 384.598 626.37 383.203 627.95C381.807 629.531 380.723 631.411 380.017 633.473C379.311 635.536 378.998 637.736 379.099 639.937C379.2 642.138 379.711 644.293 380.601 646.266C381.492 648.24 382.742 649.991 384.275 651.41Z" fill="#3D8337"/>
<path opacity="0.1" d="M369.071 725.457C376.242 729.439 403.535 726.682 403.535 726.682C403.535 726.682 389.338 700.847 382.167 696.938C378.767 695.384 374.959 695.304 371.507 696.713C368.055 698.121 365.215 700.915 363.557 704.532C361.9 708.15 361.547 712.323 362.569 716.215C363.592 720.107 365.914 723.43 369.071 725.515V725.457Z" fill="#3D8337"/>
<path opacity="0.1" d="M363.238 799.649C369.694 804.901 397.079 807.279 397.079 807.279C397.079 807.279 387.005 779.168 380.537 773.902C379.02 772.426 377.242 771.314 375.314 770.636C373.385 769.958 371.35 769.73 369.337 769.965C367.324 770.2 365.378 770.894 363.622 772.002C361.866 773.11 360.339 774.609 359.139 776.402C357.938 778.195 357.089 780.244 356.647 782.418C356.205 784.592 356.179 786.843 356.571 789.028C356.963 791.214 357.764 793.285 358.923 795.111C360.083 796.938 361.575 798.478 363.305 799.635L363.238 799.649Z" fill="#3D8337"/>
<path d="M793.536 845.309C793.536 845.309 774.236 773.173 797.155 720.089C806.902 697.888 809.842 672.806 805.532 648.609C803.403 637.14 800.324 625.909 796.333 615.058" stroke="#535461" stroke-width="2" stroke-miterlimit="10"/>
<path d="M810.596 581.521C810.596 590.361 796.015 615.991 796.015 615.991C796.015 615.991 781.434 590.361 781.434 581.521C781.705 577.481 783.355 573.704 786.052 570.947C788.749 568.191 792.294 566.659 795.975 566.659C799.656 566.659 803.2 568.191 805.897 570.947C808.594 573.704 810.244 577.481 810.516 581.521H810.596Z" fill="#3D8337"/>
<path d="M834.641 630.477C830.28 637.902 805.413 650.71 805.413 650.71C805.413 650.71 805.863 620.499 810.224 613.074C811.192 611.146 812.509 609.458 814.095 608.115C815.68 606.772 817.5 605.802 819.441 605.267C821.382 604.731 823.402 604.641 825.376 605.001C827.35 605.362 829.235 606.166 830.915 607.363C832.594 608.56 834.032 610.124 835.138 611.959C836.244 613.794 836.995 615.86 837.345 618.028C837.695 620.196 837.635 622.42 837.17 624.562C836.704 626.704 835.844 628.717 834.641 630.477V630.477Z" fill="#3D8337"/>
<path d="M833.633 714.166C826.462 718.148 799.169 715.391 799.169 715.391C799.169 715.391 813.419 689.557 820.59 685.574C822.311 684.428 824.229 683.686 826.224 683.395C828.218 683.104 830.245 683.27 832.178 683.883C834.112 684.496 835.908 685.543 837.456 686.958C839.004 688.372 840.268 690.124 841.171 692.102C842.074 694.081 842.595 696.244 842.701 698.455C842.807 700.665 842.496 702.877 841.788 704.949C841.08 707.021 839.99 708.91 838.587 710.496C837.184 712.082 835.497 713.332 833.633 714.166V714.166Z" fill="#3D8337"/>
<path d="M819.835 777.272C813.379 782.524 785.994 784.901 785.994 784.901C785.994 784.901 796.068 756.791 802.536 751.525C805.649 749.443 809.357 748.719 812.931 749.495C816.505 750.271 819.685 752.491 821.846 755.718C824.007 758.945 824.992 762.946 824.608 766.932C824.223 770.918 822.497 774.602 819.768 777.257L819.835 777.272Z" fill="#3D8337"/>
<path d="M774.859 652.431C780.625 658.587 807.467 664.977 807.467 664.977C807.467 664.977 800.84 635.641 795.127 629.47C793.794 627.826 792.167 626.501 790.348 625.579C788.529 624.656 786.558 624.156 784.556 624.11C782.553 624.063 780.564 624.47 778.711 625.307C776.859 626.143 775.183 627.391 773.787 628.971C772.392 630.552 771.307 632.432 770.601 634.495C769.895 636.557 769.583 638.757 769.683 640.958C769.784 643.159 770.295 645.314 771.186 647.288C772.076 649.261 773.327 651.012 774.859 652.431V652.431Z" fill="#3D8337"/>
<path d="M759.629 726.478C766.8 730.46 794.092 727.703 794.092 727.703C794.092 727.703 779.843 701.869 772.672 697.886C769.272 696.333 765.464 696.252 762.012 697.661C758.56 699.069 755.72 701.863 754.062 705.48C752.404 709.098 752.051 713.271 753.074 717.163C754.097 721.056 756.419 724.378 759.576 726.463L759.629 726.478Z" fill="#3D8337"/>
<path d="M753.809 800.671C760.265 805.922 787.651 808.3 787.651 808.3C787.651 808.3 777.576 780.19 771.108 774.923C767.995 772.842 764.287 772.118 760.713 772.894C757.139 773.67 753.959 775.89 751.798 779.117C749.637 782.344 748.652 786.344 749.036 790.33C749.421 794.317 751.147 798 753.876 800.656L753.809 800.671Z" fill="#3D8337"/>
<path opacity="0.1" d="M810.596 581.521C810.596 590.361 796.015 615.991 796.015 615.991C796.015 615.991 781.434 590.361 781.434 581.521C781.705 577.481 783.355 573.704 786.052 570.947C788.749 568.191 792.294 566.659 795.975 566.659C799.656 566.659 803.2 568.191 805.897 570.947C808.594 573.704 810.244 577.481 810.516 581.521H810.596Z" fill="#3D8337"/>
<path d="M1201.03 895.12C1201.03 901.672 1202.03 907.001 1203.35 907.001C1204.68 907.001 1205.67 901.689 1205.67 895.12C1205.67 888.552 1204.42 891.726 1203.19 891.726C1201.96 891.726 1201.03 888.586 1201.03 895.12Z" fill="#FFD037"/>
</g>
<defs>
<linearGradient id="paint0_linear" x1="610.412" y1="793.216" x2="610.412" y2="189.289" gradientUnits="userSpaceOnUse">
<stop stop-color="#808080" stop-opacity="0.25"/>
<stop offset="0.54" stop-color="#808080" stop-opacity="0.12"/>
<stop offset="1" stop-color="#808080" stop-opacity="0.1"/>
</linearGradient>
<linearGradient id="paint1_linear" x1="499.544" y1="672.033" x2="499.544" y2="671.964" gradientUnits="userSpaceOnUse">
<stop stop-color="#808080" stop-opacity="0.25"/>
<stop offset="0.54" stop-color="#808080" stop-opacity="0.12"/>
<stop offset="1" stop-color="#808080" stop-opacity="0.1"/>
</linearGradient>
<linearGradient id="paint2_linear" x1="85351.1" y1="294942" x2="85351.1" y2="132226" gradientUnits="userSpaceOnUse">
<stop stop-color="#808080" stop-opacity="0.25"/>
<stop offset="0.54" stop-color="#808080" stop-opacity="0.12"/>
<stop offset="1" stop-color="#808080" stop-opacity="0.1"/>
</linearGradient>
<linearGradient id="paint3_linear" x1="299372" y1="415383" x2="299372" y2="134629" gradientUnits="userSpaceOnUse">
<stop stop-color="#808080" stop-opacity="0.25"/>
<stop offset="0.54" stop-color="#808080" stop-opacity="0.12"/>
<stop offset="1" stop-color="#808080" stop-opacity="0.1"/>
</linearGradient>
<clipPath id="clip0">
<rect width="1259" height="965" fill="white"/>
</clipPath>
</defs>
</svg>
