<svg width="1086" height="770" viewBox="0 0 1086 770" fill="none" xmlns="http://www.w3.org/2000/svg">
<path d="M985.64 358.32C985.635 358.25 985.635 358.18 985.64 358.11C985.64 358 985.64 357.9 985.64 357.8C985.44 356.655 985.007 355.562 984.37 354.59C982.082 350.927 978.894 347.911 975.11 345.83C968.51 342.21 959.44 340.66 956.8 333.75C955.99 331.61 955.97 329.28 955.57 327.04C954.87 323.55 953.264 320.305 950.914 317.632C948.564 314.959 945.552 312.951 942.18 311.81C939.04 310.76 935.65 310.47 932.6 309.17C925.78 306.27 922.18 299.12 919.13 292.51C915.183 283.977 911.237 275.44 907.29 266.9C904.29 268.41 900.41 267.7 897.6 265.81C894.892 263.794 892.736 261.129 891.33 258.06C887.26 250.16 885.51 241.21 880.73 233.69C875.95 226.17 866.4 220.23 857.96 223.5C856.312 224.323 854.608 225.028 852.86 225.61C845.63 227.3 837.63 219.04 831.44 223.05C830.412 223.709 829.574 224.627 829.01 225.71C829.004 225.643 829.004 225.577 829.01 225.51C828.205 227.137 827.755 228.916 827.69 230.73C827.69 231.1 827.69 231.46 827.69 231.81C827.69 231.87 827.69 231.93 827.69 231.99C827.69 233.43 827.78 234.89 827.8 236.35C827.822 237.576 827.729 238.802 827.52 240.01V239.91C827.403 240.59 827.229 241.259 827 241.91C825.39 246.23 820.93 249.06 818.84 253.12V252.92C818.604 253.362 818.401 253.819 818.23 254.29C817.858 255.354 817.666 256.473 817.66 257.6C817.48 265.23 825.57 272.41 826.51 280.6C827.18 286.4 828.51 288.26 833.44 291.54L834.52 292.26C834.09 292.26 833.65 292.32 833.16 292.33C832.969 292.334 832.778 292.354 832.59 292.39C831.72 292.15 830.808 292.107 829.919 292.263C829.03 292.418 828.187 292.769 827.45 293.29C823.67 296.29 814.73 293.98 810.76 293.29C806.79 292.6 793.19 294.46 791.29 302C789.39 309.54 786.13 325.1 786.13 325.1C786.13 325.1 786.13 334.97 784.92 336.81C784.873 336.939 784.873 337.081 784.92 337.21C784.92 339.98 785.02 356.63 782.34 360.92C781.68 361.92 781.73 364.13 782.22 366.85C779.4 370.48 776.75 374.72 777.22 377.5C778.08 383.19 789.62 401.08 806.16 391.5C806.16 391.5 815.57 374.29 803.73 365.14L804.24 363.14C807.82 367.54 810.47 370.7 810.47 370.7C810.47 370.7 810.61 371.07 810.83 371.7H810.47C812.015 375.905 812.951 380.31 813.25 384.78C813.205 386.419 812.908 388.041 812.37 389.59H812.68C812.59 389.93 812.49 390.27 812.37 390.59C811.789 392.279 810.703 393.748 809.26 394.8C800.99 400.66 791.52 442.51 791.52 442.51C791.52 442.51 772.76 510.16 769.01 514.01C765.91 517.17 785.39 526.07 800.01 525.01C802.051 524.889 804.067 524.505 806.01 523.87C806.1 524.87 806.2 525.87 806.3 526.78C806.61 529.78 806.93 532.56 807.13 533.43C807.65 535.61 808.68 557.87 808.68 557.87C808.68 557.87 806.57 572.33 807.08 582.39C807.08 583.08 807.17 583.74 807.23 584.39L805.41 584.67C802.65 590.87 814.02 642.6 815.57 646.95C816.597 650.378 817.175 653.924 817.29 657.5C817.29 657.5 816.29 661.18 817.12 663.19C817.637 664.418 817.974 665.715 818.12 667.04C818.12 667.04 817.44 670.38 818.47 672.56C819.5 674.74 818.3 678.56 818.3 678.56C818.3 678.56 817.96 693.63 814.86 701.83C814.016 704.037 813.77 706.427 814.148 708.759C814.525 711.092 815.513 713.282 817.01 715.11C817.225 715.395 817.459 715.666 817.71 715.92C817.71 715.92 834.81 716.06 837.82 715.92H838.21C839.42 715.75 842.52 702.19 839.76 695.66C837 689.13 839.42 681.09 839.42 681.09V669.21C839.42 669.21 842.52 666.35 839.42 660.21C836.32 654.07 836.83 652.21 836.83 652.21C836.83 652.21 840.28 642.33 836.66 639.15C833.04 635.97 837.35 623.91 837.35 623.91L838.57 583.71C837.931 583.502 837.28 583.335 836.62 583.21C836.55 582.55 836.48 581.87 836.41 581.15C835.7 573.87 835.09 563.97 836.67 561.15C838.25 558.33 839.01 533.71 839.26 516.6L855.02 517.2C855.35 525.2 855.7 532.5 855.92 533.43C856.44 535.61 857.48 557.87 857.48 557.87C857.48 557.87 855.36 572.33 855.87 582.39C855.87 583.08 855.96 583.74 856.02 584.39L854.2 584.67C851.44 590.87 862.81 642.6 864.36 646.95C865.387 650.378 865.969 653.924 866.09 657.5C866.09 657.5 865.09 661.18 865.91 663.19C866.427 664.418 866.764 665.715 866.91 667.04C866.91 667.04 866.23 670.38 867.26 672.56C868.29 674.74 867.09 678.56 867.09 678.56C867.09 678.56 866.75 693.63 863.65 701.83C862.819 704.04 862.587 706.43 862.977 708.759C863.367 711.087 864.365 713.271 865.87 715.09C866.085 715.375 866.319 715.646 866.57 715.9C866.57 715.9 883.67 716.04 886.68 715.9H887.07C888.28 715.73 891.38 702.17 888.62 695.64C885.86 689.11 888.28 681.07 888.28 681.07V669.21C888.28 669.21 891.38 666.35 888.28 660.21C885.18 654.07 885.69 652.21 885.69 652.21C885.69 652.21 889.14 642.33 885.52 639.15C881.9 635.97 886.21 623.91 886.21 623.91L887.45 583.71C886.795 583.499 886.127 583.332 885.45 583.21C885.38 582.55 885.31 581.87 885.24 581.15C884.53 573.87 883.92 563.97 885.5 561.15C886.77 558.84 887.5 543.96 887.83 529.43C887.83 528.43 887.83 527.43 887.91 526.43C895.151 526.129 902.362 525.32 909.49 524.01C909.49 524.01 901.06 494.2 903.64 489.35C904.75 487.26 903.15 476.13 900.96 464.14C904.014 466.612 907.811 467.986 911.74 468.04C915.51 475.29 926.98 491.97 933.44 494.54C941.02 497.54 935.33 470.94 931.72 467.09C930.012 464.988 928.574 462.68 927.44 460.22C927.54 460.1 927.65 460 927.75 459.89C927.85 459.78 927.93 431.59 926.2 432.1C924.47 432.61 922.41 427.91 922.41 427.91L917.07 381.04L914.83 361.42C916.7 362.8 918.92 363.68 920.83 365.05C926.03 368.86 927.73 375.55 930.01 381.47C931.89 386.34 934.53 391.17 938.86 394.23C943.19 397.29 949.54 398.1 953.86 395C957.86 392.09 959.04 386.84 959.92 382.05C967.18 384.6 975.99 377.78 975.05 370.33C974.82 368.49 974.14 366.48 975.1 364.87C977.02 361.69 983.1 363.54 985.1 360.4C985.436 359.857 985.61 359.229 985.6 358.59C985.63 358.45 985.64 358.39 985.64 358.32ZM888.53 384.1C888.42 385.89 890.88 400.27 892.88 411.65C891.24 404.56 887.95 396.99 881.47 391.8C881.47 391.8 881.47 391.44 881.39 390.8H881.47C881.47 390.8 881.2 387.94 881.16 383.87C881.172 380.262 881.439 376.66 881.96 373.09V373H881.83C881.83 372.7 881.91 372.39 881.96 372.09C882.357 369.077 883.175 366.135 884.39 363.35C884.927 362.258 885.545 361.209 886.24 360.21C887.31 369.88 888.63 382.29 888.53 384.1ZM893.91 417.42C894.79 422.33 895.42 425.78 895.42 425.78L900.73 462.24V462.41C897.87 447.02 894.22 430.8 894.22 430.8C894.592 426.342 894.488 421.856 893.91 417.42Z" fill="url(#paint0_linear)"/>
<path d="M828.83 282.6C827.83 273.36 817.83 265.39 820.83 256.6C822.46 251.81 827.56 248.88 829.28 244.12C830.42 240.98 829.91 237.53 829.92 234.19C829.93 230.85 830.71 227.12 833.49 225.27C839.49 221.27 847.21 229.5 854.21 227.82C855.902 227.241 857.55 226.539 859.14 225.72C867.31 222.47 876.55 228.39 881.14 235.87C885.73 243.35 887.45 252.27 891.39 260.13C892.735 263.165 894.818 265.816 897.45 267.84C900.17 269.72 903.89 270.43 906.83 268.93L918.28 294.43C921.28 301 924.72 308.12 931.28 311.01C934.22 312.3 937.5 312.59 940.54 313.64C943.844 314.805 946.784 316.818 949.065 319.477C951.347 322.136 952.89 325.347 953.54 328.79C953.93 331.03 953.94 333.35 954.73 335.48C957.28 342.36 966.05 343.9 972.44 347.48C976.137 349.564 979.236 352.564 981.44 356.19C982.44 357.92 983.3 360.19 982.23 361.89C980.3 365.01 974.43 363.17 972.57 366.34C971.63 367.94 972.29 369.94 972.57 371.78C973.48 379.19 964.95 385.98 957.93 383.44C957.08 388.21 955.93 393.44 952.07 396.33C947.92 399.43 941.77 398.61 937.58 395.57C933.39 392.53 930.85 387.72 929.03 382.87C926.82 376.97 925.17 370.31 920.14 366.52C918.32 365.16 916.14 364.28 914.36 362.91C910.36 359.85 908.36 354.8 906.93 349.91C905.08 343.81 903.61 337.54 900.93 331.78C898.25 326.02 894.01 320.66 888.2 318.03C882.75 315.58 876.47 315.74 870.84 313.75C861.15 310.33 853.98 302.18 844.34 298.34C841.258 297.045 838.338 295.393 835.64 293.42C830.79 290.23 829.47 288.38 828.83 282.6Z" fill="#3F3D56"/>
<g opacity="0.1">
<path opacity="0.1" d="M829.73 242.16C829.936 241.769 830.117 241.365 830.27 240.95C831.4 237.81 830.9 234.36 830.91 231.02C830.909 229.906 831.013 228.795 831.22 227.7C830.297 229.676 829.849 231.84 829.91 234.02C829.9 236.71 830.22 239.53 829.73 242.16Z" fill="black"/>
<path opacity="0.1" d="M953.01 393.19C948.86 396.28 942.71 395.47 938.52 392.42C934.33 389.37 931.78 384.58 930.01 379.71C927.8 373.81 926.16 367.15 921.12 363.36C919.31 362 917.12 361.11 915.35 359.75C911.35 356.69 909.35 351.64 907.91 346.8C906.06 340.7 904.6 334.43 901.91 328.67C899.22 322.91 895 317.55 889.18 314.92C883.74 312.47 877.46 312.63 871.83 310.64C862.13 307.22 854.96 299.07 845.33 295.23C842.247 293.931 839.324 292.28 836.62 290.31C831.88 287.04 830.62 285.19 829.92 279.42C828.92 270.76 820.12 263.21 821.49 255.05C821.267 255.491 821.07 255.946 820.9 256.41C817.9 265.21 827.9 273.18 828.9 282.41C829.55 288.18 830.9 290.03 835.6 293.3C838.304 295.27 841.227 296.921 844.31 298.22C853.94 302.06 861.11 310.22 870.81 313.63C876.44 315.63 882.72 315.46 888.16 317.91C893.98 320.54 898.16 325.91 900.89 331.66C903.62 337.41 905.08 343.66 906.89 349.79C908.36 354.63 910.29 359.68 914.33 362.74C916.14 364.1 918.33 364.99 920.1 366.35C925.1 370.14 926.78 376.8 928.99 382.7C930.81 387.55 933.36 392.35 937.55 395.39C941.74 398.43 947.89 399.25 952.04 396.16C954.69 394.16 956.04 391.11 956.93 387.84C956.139 389.949 954.783 391.8 953.01 393.19Z" fill="black"/>
<path opacity="0.1" d="M973.56 363.2C973.178 363.917 973.011 364.73 973.08 365.54C975.34 363.31 980.44 364.62 982.22 361.75C982.633 361.041 982.795 360.213 982.68 359.4C980.36 361.6 975.26 360.29 973.56 363.2Z" fill="black"/>
<path opacity="0.1" d="M958.87 380.3C958.68 381.3 958.49 382.37 958.25 383.41C964.37 385.32 971.44 380.41 972.44 374.21C970.01 378.98 964.01 382.17 958.87 380.3Z" fill="black"/>
</g>
<path d="M841.75 287.41C841.75 287.41 845.08 294.13 835.25 294.27C825.42 294.41 841.58 337.91 841.58 337.91L857.92 358.71L878.25 347.71L879.42 317.37L880.92 299.04C880.92 299.04 861.92 292.87 865.42 284.71C868.92 276.55 841.75 287.41 841.75 287.41Z" fill="#FBBEBE"/>
<path d="M900.76 464.77C900.76 464.77 912.76 476.58 926.76 460.91L916.01 449.5H902.41L900.76 464.77Z" fill="#FF6682"/>
<path opacity="0.1" d="M902.06 449.5L900.41 464.77C900.41 464.77 912.41 476.58 926.41 460.91" fill="black"/>
<path d="M922.25 451.58C922.25 451.58 927.08 464.25 930.58 468.08C934.08 471.91 939.58 498.41 932.25 495.41C924.92 492.41 910.92 470.08 910.08 466.25C909.24 462.42 908.92 451.58 908.92 451.58H922.25Z" fill="#FBBEBE"/>
<path d="M817.42 516.58L882.08 519.08L874.58 491.74L842.01 491.08L817.42 516.58Z" fill="#FF6682"/>
<path opacity="0.1" d="M826.41 516.58L891.08 519.08L883.58 491.74L851 491.08L826.41 516.58Z" fill="black"/>
<path d="M838.58 561.71C837.05 564.56 837.64 574.42 838.33 581.71C838.77 586.35 839.25 589.92 839.25 589.92C839.25 589.92 815.08 597.42 811.42 590.92C810.49 589.27 810.03 586.38 809.87 582.99C809.37 572.99 811.42 558.58 811.42 558.58C811.42 558.58 810.42 536.42 809.92 534.25C809.72 533.38 809.41 530.62 809.11 527.63C808.67 523.19 808.25 518.25 808.25 518.25L841.25 500.75C841.25 500.75 841.25 504.03 841.19 509.08C841.01 524.94 840.48 558.21 838.58 561.71Z" fill="#CE9D9D"/>
<path opacity="0.1" d="M839.25 589.92C839.25 589.92 815.08 597.42 811.42 590.92C810.49 589.27 810.03 586.38 809.87 582.99C814.87 582.23 830.09 580.13 838.33 581.71C838.77 586.35 839.25 589.92 839.25 589.92Z" fill="black"/>
<path d="M840.08 715.92H839.7C836.79 716.03 820.25 715.92 820.25 715.92C820.008 715.667 819.781 715.4 819.57 715.12C818.108 713.29 817.143 711.114 816.766 708.802C816.39 706.49 816.615 704.12 817.42 701.92C820.42 693.75 820.75 678.75 820.75 678.75C820.75 678.75 821.92 674.92 820.92 672.75C819.92 670.58 820.58 667.25 820.58 667.25C820.426 665.933 820.09 664.644 819.58 663.42C818.75 661.42 819.75 657.75 819.75 657.75C819.636 654.194 819.075 650.666 818.08 647.25C816.58 642.92 805.58 591.42 808.25 585.25C808.25 585.25 831.58 581.25 840.42 584.25L839.25 624.25C839.25 624.25 835.08 636.25 838.58 639.42C842.08 642.59 838.75 652.42 838.75 652.42C838.75 652.42 838.25 654.25 841.25 660.42C844.25 666.59 841.25 669.42 841.25 669.42V681.25C841.25 681.25 838.92 689.25 841.58 695.75C844.24 702.25 841.25 715.71 840.08 715.92Z" fill="#FF6682"/>
<path d="M885.87 561.71C884.34 564.56 884.93 574.42 885.62 581.71C886.06 586.35 886.54 589.92 886.54 589.92C886.54 589.92 862.37 597.42 858.71 590.92C857.78 589.27 857.32 586.38 857.16 582.99C856.66 572.99 858.71 558.58 858.71 558.58C858.71 558.58 857.71 536.42 857.21 534.25C856.94 533.08 856.47 521.92 856.1 511.91C855.79 503.37 855.54 495.65 855.54 495.65L888.54 500.75C888.54 500.75 888.54 515.26 888.13 530.17C887.77 544.63 887.1 559.45 885.87 561.71Z" fill="#CE9D9D"/>
<path opacity="0.1" d="M886.54 589.92C886.54 589.92 862.37 597.42 858.71 590.92C857.78 589.27 857.32 586.38 857.16 582.99C862.16 582.23 877.38 580.13 885.62 581.71C886.06 586.35 886.54 589.92 886.54 589.92Z" fill="black"/>
<path d="M887.37 715.92H886.99C884.08 716.03 867.54 715.92 867.54 715.92C867.298 715.667 867.071 715.4 866.86 715.12C865.398 713.29 864.433 711.114 864.056 708.802C863.68 706.49 863.905 704.12 864.71 701.92C867.71 693.71 868.01 678.71 868.01 678.71C868.01 678.71 869.18 674.88 868.18 672.71C867.18 670.54 867.84 667.21 867.84 667.21C867.686 665.893 867.35 664.604 866.84 663.38C866.01 661.38 867.01 657.71 867.01 657.71C866.896 654.154 866.335 650.626 865.34 647.21C863.84 642.88 852.84 591.38 855.51 585.21C855.51 585.21 878.84 581.21 887.68 584.21L886.51 624.21C886.51 624.21 882.34 636.21 885.84 639.38C889.34 642.55 886.01 652.38 886.01 652.38C886.01 652.38 885.51 654.21 888.51 660.38C891.51 666.55 888.51 669.38 888.51 669.38V681.21C888.51 681.21 886.18 689.21 888.84 695.71C891.5 702.21 888.54 715.71 887.37 715.92Z" fill="#FF6682"/>
<path opacity="0.1" d="M854.75 295.27C867.729 295.27 878.25 284.749 878.25 271.77C878.25 258.791 867.729 248.27 854.75 248.27C841.771 248.27 831.25 258.791 831.25 271.77C831.25 284.749 841.771 295.27 854.75 295.27Z" fill="black"/>
<path d="M854.75 294.27C867.729 294.27 878.25 283.749 878.25 270.77C878.25 257.791 867.729 247.27 854.75 247.27C841.771 247.27 831.25 257.791 831.25 270.77C831.25 283.749 841.771 294.27 854.75 294.27Z" fill="#CE9D9D"/>
<path opacity="0.1" d="M808.25 518.25L841.25 500.75C841.25 500.75 841.25 504.03 841.19 509.08C836.37 511.96 829.1 516.29 822.11 520.38C818.31 522.61 814.6 524.77 811.42 526.58C810.681 526.981 809.908 527.316 809.11 527.58C808.67 523.19 808.25 518.25 808.25 518.25Z" fill="black"/>
<path opacity="0.1" d="M888.54 500.71C888.54 500.71 888.54 515.22 888.13 530.13H888.01C885.544 530.218 883.075 530.141 880.62 529.9C876.31 529.44 872.86 528.3 871.62 526.04C869.11 521.64 862.08 516.04 856.14 511.87C855.83 503.33 855.58 495.61 855.58 495.61L888.54 500.71Z" fill="black"/>
<path d="M882.4 373.62C881.564 380.129 881.403 386.708 881.92 393.25C897.08 405.75 894.25 432.08 894.25 432.08C894.25 432.08 905.92 485.42 903.42 490.25C900.92 495.08 909.08 524.75 909.08 524.75C902.125 526.068 895.083 526.877 888.01 527.17C885.544 527.258 883.075 527.181 880.62 526.94C876.31 526.48 872.86 525.34 871.62 523.08C866.96 514.92 846.79 502.75 846.79 502.75C846.79 502.75 834.01 510.41 822.11 517.38C818.31 519.61 814.6 521.77 811.42 523.58C808.839 524.949 805.988 525.731 803.07 525.87C788.92 526.92 770.07 518.06 773.07 514.92C776.74 511.08 794.91 443.75 794.91 443.75C794.91 443.75 804.07 402.08 812.07 396.25C813.472 395.191 814.519 393.729 815.07 392.06C817.81 384.45 813.23 372.25 813.23 372.25C813.23 372.25 787.4 340.42 788.56 338.58C789.72 336.74 789.73 326.92 789.73 326.92C789.73 326.92 792.9 311.42 794.73 303.92C796.56 296.42 809.73 294.58 813.56 295.25C817.39 295.92 826.05 298.25 829.71 295.25C833.37 292.25 839.55 296.42 839.55 296.42L854.73 300.6L868.38 292.6C868.38 292.6 882.06 293.3 883.23 295.13C884.4 296.96 902.4 300.47 902.4 300.47C911.56 306.63 911.23 335.97 911.23 335.97C911.23 335.97 889.23 355.13 884.73 364.97C883.564 367.734 882.781 370.644 882.4 373.62Z" fill="#FF6682"/>
<path d="M906.25 331.91L911.25 335.91L916.42 382.41L921.58 429.08C921.58 429.08 923.58 433.75 925.25 433.25C926.92 432.75 926.75 460.91 926.75 460.91C926.75 460.91 907.61 449.14 900.75 464.77L895.41 427.08C895.41 427.08 888.57 388.58 888.74 385.58C888.91 382.58 885.24 350.08 885.24 350.08L906.25 331.91Z" fill="#FF6682"/>
<path d="M792.25 334.08L788.58 338.58C788.58 338.58 788.92 357.91 786.08 362.58C783.24 367.25 793.92 394.58 797.92 392.91C801.92 391.24 810.92 348.58 810.92 348.08C810.92 347.58 792.25 334.08 792.25 334.08Z" fill="#FF6682"/>
<path d="M791.92 361.58C791.92 361.58 780.25 373.41 781.08 379.08C781.91 384.75 793.08 402.56 809.08 392.99C809.08 392.99 823.92 365.08 791.92 361.58Z" fill="#FF6682"/>
<path opacity="0.1" d="M839.7 715.95C836.79 716.06 820.25 715.95 820.25 715.95C820.008 715.697 819.781 715.43 819.57 715.15C823.8 713.71 832.94 711.55 839.7 715.95Z" fill="black"/>
<path opacity="0.1" d="M887.01 715.95C884.1 716.06 867.56 715.95 867.56 715.95C867.318 715.697 867.091 715.43 866.88 715.15C871.09 713.71 880.23 711.55 887.01 715.95Z" fill="black"/>
<path opacity="0.1" d="M823.29 422.82C820.74 447.28 821.58 495.82 822.11 517.38C818.31 519.61 814.6 521.77 811.42 523.58C808.839 524.949 805.988 525.731 803.07 525.87C802.01 519.35 816.69 452.38 823.29 422.82Z" fill="black"/>
<path opacity="0.1" d="M826.41 408.94C826.34 409.29 825.13 414.61 823.29 422.82C824.01 415.81 825.01 410.78 826.41 408.94Z" fill="black"/>
<path opacity="0.1" d="M867.01 406.3C867.01 406.3 881.18 495.3 839.22 506.3C839.21 506.26 868.25 501.85 867.01 406.3Z" fill="black"/>
<path opacity="0.1" d="M888.01 527.17C885.544 527.258 883.075 527.181 880.62 526.94L869.3 405.25C876.52 409.97 885.16 496.33 888.01 527.17Z" fill="black"/>
<path opacity="0.1" d="M837.25 256.95C838.001 256.89 838.757 256.968 839.48 257.18C840.541 257.709 841.497 258.427 842.3 259.3C843.604 260.39 845.163 261.131 846.832 261.455C848.5 261.778 850.223 261.673 851.84 261.15C852.98 260.64 854.19 260.303 855.43 260.15C857.34 260.15 858.99 261.55 859.98 263.15C860.97 264.75 861.48 266.65 862.33 268.36C863.18 270.07 864.54 271.69 866.41 272.11C867.307 272.145 868.189 272.348 869.01 272.71C869.513 273.119 869.9 273.654 870.13 274.26C871.69 277.63 872.93 281.61 876.26 283.26C877.485 283.828 878.82 284.118 880.17 284.11C881.543 284.211 882.919 283.963 884.17 283.39C885.401 282.703 886.418 281.689 887.11 280.46C889.19 277.02 889.43 272.76 888.94 268.77C888.329 263.737 886.537 258.919 883.71 254.71C880.732 250.453 876.677 247.063 871.959 244.886C867.242 242.71 862.032 241.824 856.86 242.32C855.055 242.523 853.267 242.857 851.51 243.32C845.15 245.02 838.91 248.2 835.05 253.53C834.117 254.86 833.091 256.124 831.98 257.31C833.73 257.14 835.49 256.99 837.25 256.95Z" fill="black"/>
<path d="M837.25 255.95C838.001 255.89 838.757 255.968 839.48 256.18C840.541 256.709 841.497 257.427 842.3 258.3C843.604 259.39 845.163 260.131 846.832 260.455C848.5 260.778 850.223 260.673 851.84 260.15C852.98 259.64 854.19 259.303 855.43 259.15C857.34 259.15 858.99 260.55 859.98 262.15C860.97 263.75 861.48 265.65 862.33 267.36C863.18 269.07 864.54 270.69 866.41 271.11C867.307 271.145 868.189 271.348 869.01 271.71C869.513 272.119 869.9 272.654 870.13 273.26C871.69 276.63 872.93 280.61 876.26 282.26C877.485 282.828 878.82 283.118 880.17 283.11C881.543 283.211 882.919 282.963 884.17 282.39C885.401 281.703 886.418 280.689 887.11 279.46C889.19 276.02 889.43 271.76 888.94 267.77C888.329 262.737 886.537 257.919 883.71 253.71C880.732 249.453 876.677 246.063 871.959 243.886C867.242 241.71 862.032 240.824 856.86 241.32C855.055 241.523 853.267 241.857 851.51 242.32C845.15 244.02 838.91 247.2 835.05 252.53C834.117 253.86 833.091 255.124 831.98 256.31C833.73 256.14 835.49 255.99 837.25 255.95Z" fill="#3F3D56"/>
<path opacity="0.1" d="M811.75 311.91C811.75 311.91 812.92 321.25 808.92 323.58C804.92 325.91 811.75 311.91 811.75 311.91Z" fill="black"/>
<path opacity="0.1" d="M896.58 384.25C896.58 384.25 906.08 370.25 907.42 374.25C908.76 378.25 896.58 384.25 896.58 384.25Z" fill="black"/>
<path opacity="0.1" d="M897.25 388.91C897.25 388.91 906.62 377.41 907.52 381.91C908.42 386.41 897.25 388.91 897.25 388.91Z" fill="black"/>
<path opacity="0.1" d="M869.73 375.22C866.332 375.268 863.015 374.177 860.31 372.12H859.49C856.684 374.683 853 376.069 849.2 375.99C847.224 376.036 845.26 375.68 843.426 374.944C841.592 374.209 839.926 373.108 838.53 371.71H837.44C834.561 374.055 830.945 375.304 827.232 375.236C823.52 375.169 819.952 373.788 817.16 371.34L813.25 371.27C813.25 371.27 817.83 383.47 815.09 391.08L881.92 392.27C881.403 385.728 881.564 379.149 882.4 372.64V372.55L878.73 372.48C876.09 374.311 872.943 375.269 869.73 375.22Z" fill="black"/>
<path opacity="0.1" d="M869.73 377.22C866.332 377.268 863.015 376.177 860.31 374.12H859.49C856.684 376.683 853 378.069 849.2 377.99C847.224 378.036 845.26 377.68 843.426 376.944C841.592 376.209 839.926 375.108 838.53 373.71H837.44C834.561 376.055 830.945 377.304 827.232 377.236C823.52 377.169 819.952 375.788 817.16 373.34L813.25 373.27C813.25 373.27 817.83 385.47 815.09 393.08L881.92 394.27C881.403 387.728 881.564 381.149 882.4 374.64V374.55L878.73 374.48C876.09 376.311 872.943 377.269 869.73 377.22Z" fill="black"/>
<path d="M869.73 376.22C866.332 376.268 863.015 375.177 860.31 373.12H859.49C856.684 375.683 853 377.069 849.2 376.99C847.224 377.036 845.26 376.68 843.426 375.944C841.592 375.209 839.926 374.108 838.53 372.71H837.44C834.561 375.055 830.945 376.304 827.232 376.236C823.52 376.169 819.952 374.788 817.16 372.34L813.25 372.27C813.25 372.27 817.83 384.47 815.09 392.08L881.92 393.27C881.403 386.728 881.564 380.149 882.4 373.64V373.55L878.73 373.48C876.09 375.311 872.943 376.269 869.73 376.22Z" fill="#3F3D56"/>
<path opacity="0.1" d="M866.76 309.54C866.76 309.54 880.83 310.44 880.92 312.44C881.01 314.44 866.76 309.54 866.76 309.54Z" fill="black"/>
<path opacity="0.1" d="M832.58 301.01C832.58 301.01 818.51 301.91 818.42 303.91C818.33 305.91 832.58 301.01 832.58 301.01Z" fill="black"/>
<path opacity="0.1" d="M886.35 341.9C886.21 341.8 886.07 341.72 885.93 341.63C889.53 344.87 888.93 351.95 884.51 357.79C880.09 363.63 873.38 366.06 869.3 363.44C869.43 363.55 869.54 363.67 869.68 363.78C873.68 366.84 880.68 364.44 885.3 358.4C889.92 352.36 890.37 344.97 886.35 341.9Z" fill="black"/>
<path opacity="0.1" d="M809.06 357.04C805.5 350.62 805.96 343.53 809.99 340.84C809.84 340.91 809.68 340.97 809.53 341.05C805.11 343.51 804.53 350.88 808.19 357.52C811.85 364.16 818.45 367.52 822.87 365.1C823.016 365.016 823.156 364.922 823.29 364.82C818.88 366.82 812.62 363.46 809.06 357.04Z" fill="black"/>
<path opacity="0.1" d="M813.82 302.9L812.53 304.9L809.24 303.15L810.97 300.49C812.114 301.031 813.097 301.862 813.82 302.9Z" fill="black"/>
<path d="M792.92 376.91C792.92 376.91 795.85 363.13 791.92 358.75C787.99 354.37 789.25 331.41 795.25 331.91C801.25 332.41 810.25 350.57 808.75 354.41C807.25 358.25 801.58 377.91 801.58 377.91L792.92 376.91Z" fill="#FBBEBE"/>
<path opacity="0.1" d="M887.01 277.49C886.318 278.719 885.301 279.732 884.07 280.42C882.819 280.993 881.443 281.241 880.07 281.14C878.72 281.148 877.385 280.858 876.16 280.29C872.83 278.63 871.59 274.65 870.03 271.29C869.833 270.684 869.481 270.139 869.01 269.71C868.2 269.342 867.328 269.128 866.44 269.08C864.57 268.66 863.22 267.03 862.36 265.33C861.5 263.63 860.99 261.75 860.01 260.12C859.03 258.49 857.37 257.06 855.46 257.12C854.217 257.285 853.006 257.639 851.87 258.17C850.252 258.689 848.529 258.791 846.861 258.466C845.193 258.141 843.634 257.399 842.33 256.31C841.527 255.437 840.571 254.719 839.51 254.19C838.787 253.978 838.031 253.9 837.28 253.96C836.13 253.96 834.99 254.07 833.84 254.16C833.27 254.907 832.66 255.621 832.01 256.3C833.76 256.15 835.52 256 837.28 255.96C838.031 255.9 838.787 255.978 839.51 256.19C840.571 256.719 841.527 257.437 842.33 258.31C843.634 259.399 845.193 260.141 846.861 260.466C848.529 260.791 850.252 260.689 851.87 260.17C853.006 259.639 854.217 259.285 855.46 259.12C857.37 259.12 859.02 260.52 860.01 262.12C861 263.72 861.51 265.62 862.36 267.33C863.21 269.04 864.57 270.66 866.44 271.08C867.328 271.128 868.2 271.342 869.01 271.71C869.513 272.119 869.9 272.654 870.13 273.26C871.69 276.63 872.93 280.61 876.26 282.26C877.485 282.828 878.82 283.118 880.17 283.11C881.543 283.211 882.919 282.963 884.17 282.39C885.401 281.702 886.418 280.689 887.11 279.46C888.663 276.633 889.358 273.415 889.11 270.2C889.034 272.768 888.312 275.275 887.01 277.49Z" fill="black"/>
<path d="M797.35 387.84C802.321 387.84 806.35 385.109 806.35 381.74C806.35 378.371 802.321 375.64 797.35 375.64C792.379 375.64 788.35 378.371 788.35 381.74C788.35 385.109 792.379 387.84 797.35 387.84Z" fill="#FF6682"/>
<path d="M503.99 721.29C674.37 721.29 812.49 583.17 812.49 412.79C812.49 242.41 674.37 104.29 503.99 104.29C333.61 104.29 195.49 242.41 195.49 412.79C195.49 583.17 333.61 721.29 503.99 721.29Z" fill="#D01D1D" fill-opacity="0.87"/>
<path d="M665.86 567.82C665.86 616.52 589.3 571.98 507.22 571.98C425.14 571.98 342.12 614.68 342.12 565.98C342.12 538.21 368.58 499.59 406.54 471.54C435.14 450.4 470.26 435.26 505.54 435.26C541.82 435.26 577.36 451.65 605.71 474.15C641.49 502.52 665.86 540.64 665.86 567.82Z" fill="black"/>
<path d="M605.7 474.13C562.07 467.56 483.16 459.55 406.54 471.52C435.14 450.38 470.26 435.24 505.54 435.24C541.81 435.24 577.35 451.63 605.7 474.13Z" fill="#F6F8FB"/>
<path opacity="0.05" d="M342.12 195.02C342.12 195.02 249.19 254.43 249.95 347.36C250.71 440.29 342.12 195.02 342.12 195.02Z" fill="black"/>
<path d="M812.37 27.23C812.37 27.23 728.17 22.16 738.1 81.16C738.1 81.16 736.1 91.58 745.58 96.32C745.58 96.32 745.73 91.95 754.21 93.43C757.232 93.9356 760.303 94.0833 763.36 93.87C767.49 93.5892 771.416 91.9669 774.54 89.25C774.54 89.25 798.21 79.48 807.42 40.79C807.42 40.79 814.23 32.35 813.96 30.19L799.75 36.25C799.75 36.25 804.6 46.5 800.75 55.02C800.75 55.02 800.29 36.63 797.56 37.02C797.01 37.11 790.18 40.57 790.18 40.57C790.18 40.57 798.53 58.43 792.18 71.4C792.18 71.4 794.57 49.4 787.52 41.86L777.52 47.7C777.52 47.7 787.28 66.14 780.66 81.19C780.66 81.19 782.36 58.11 775.42 49.12L766.35 56.19C766.35 56.19 775.52 74.37 769.93 86.85C769.93 86.85 769.2 59.98 764.39 57.95C764.39 57.95 756.46 64.95 755.25 67.82C755.25 67.82 761.53 81.01 757.64 87.97C757.64 87.97 755.25 70.07 753.29 69.97C753.29 69.97 745.39 81.83 744.56 89.97C744.56 89.97 744.91 77.87 751.37 68.84C751.37 68.84 743.73 70.15 739.28 75.11C739.28 75.11 740.51 66.72 753.28 65.99C753.28 65.99 759.81 56.99 761.56 56.45C761.56 56.45 748.81 55.38 741.08 58.81C741.08 58.81 747.88 50.9 763.89 54.49L772.89 47.19C772.89 47.19 756.11 44.89 748.99 47.43C748.99 47.43 757.18 40.43 775.3 45.53L785.05 39.7C785.05 39.7 770.74 36.62 762.21 37.7C762.21 37.7 771.21 32.85 787.9 38.11L794.9 34.98C794.9 34.98 784.41 32.92 781.34 32.6C778.27 32.28 778.11 31.42 778.11 31.42C784.772 30.3369 791.603 31.1298 797.84 33.71C797.84 33.71 812.62 28.16 812.37 27.23Z" fill="#D01D1D" fill-opacity="0.87"/>
<path d="M726.01 0.999999C726.01 0.999999 688.01 -1.3 692.45 25.36C692.45 25.36 691.56 30.07 695.83 32.21C695.83 32.21 695.89 30.21 699.73 30.91C701.094 31.1346 702.48 31.2017 703.86 31.11C705.728 30.9767 707.503 30.2436 708.92 29.02C708.92 29.02 719.61 24.6 723.77 7.12C723.77 7.12 726.85 3.31 726.77 2.33L720.35 5.07C720.35 5.07 722.55 9.7 720.82 13.55C720.82 13.55 720.61 5.24 719.38 5.44C719.13 5.44 716.04 7.04 716.04 7.04C716.04 7.04 719.82 15.11 716.97 20.97C716.97 20.97 718.05 11.03 714.87 7.62L710.35 10.26C710.35 10.26 714.76 18.6 711.77 25.4C711.77 25.4 712.53 14.97 709.4 10.91L705.3 14.1C705.3 14.1 709.44 22.31 706.92 27.95C706.92 27.95 706.59 15.81 704.41 14.89C704.41 14.89 700.83 18.05 700.28 19.35C700.28 19.35 703.12 25.35 701.36 28.46C701.36 28.46 700.28 20.37 699.36 20.34C699.36 20.34 695.79 25.69 695.42 29.34C695.592 25.9432 696.651 22.6507 698.49 19.79C696.432 20.1793 694.534 21.1632 693.03 22.62C693.03 22.62 693.58 18.83 699.37 18.5C699.37 18.5 702.32 14.44 703.11 14.19C703.11 14.19 697.35 13.71 693.86 15.26C693.86 15.26 696.93 11.68 704.17 13.26L708.17 9.97C708.17 9.97 700.59 8.97 697.37 10.07C697.37 10.07 701.07 6.91 709.26 9.22L713.66 6.58C713.66 6.58 707.2 5.19 703.34 5.69C703.34 5.69 707.41 3.5 714.95 5.88L718.1 4.46C718.1 4.46 713.36 3.53 711.98 3.39C710.6 3.25 710.51 2.86 710.51 2.86C713.512 2.36061 716.594 2.70687 719.41 3.86C719.41 3.86 726.12 1.42 726.01 0.999999Z" fill="#D01D1D" fill-opacity="0.87"/>
<path opacity="0.1" d="M1058.09 688.01C1072.96 688.01 1085.02 685.973 1085.02 683.46C1085.02 680.947 1072.96 678.91 1058.09 678.91C1043.22 678.91 1031.16 680.947 1031.16 683.46C1031.16 685.973 1043.22 688.01 1058.09 688.01Z" fill="#D01D1D" fill-opacity="0.87"/>
<path opacity="0.1" d="M31.77 763.7C46.6431 763.7 58.7 761.663 58.7 759.15C58.7 756.637 46.6431 754.6 31.77 754.6C16.897 754.6 4.84003 756.637 4.84003 759.15C4.84003 761.663 16.897 763.7 31.77 763.7Z" fill="#D01D1D" fill-opacity="0.87"/>
<path opacity="0.1" d="M188.1 769.41C202.973 769.41 215.03 767.373 215.03 764.86C215.03 762.347 202.973 760.31 188.1 760.31C173.227 760.31 161.17 762.347 161.17 764.86C161.17 767.373 173.227 769.41 188.1 769.41Z" fill="#D01D1D" fill-opacity="0.87"/>
<path d="M999.15 739.02C1021.36 739.02 1039.36 735.976 1039.36 732.22C1039.36 728.464 1021.36 725.42 999.15 725.42C976.943 725.42 958.94 728.464 958.94 732.22C958.94 735.976 976.943 739.02 999.15 739.02Z" fill="#D01D1D" fill-opacity="0.87"/>
<path d="M1015.77 721.11C1017.61 719.612 1018.94 717.594 1019.61 715.32C1020.1 713.03 1019.12 710.27 1016.93 709.43C1014.47 708.49 1011.84 710.2 1009.85 711.92C1007.86 713.64 1005.57 715.6 1002.96 715.24C1004.3 714.025 1005.31 712.482 1005.87 710.762C1006.44 709.043 1006.55 707.206 1006.2 705.43C1006.09 704.694 1005.78 704.003 1005.3 703.43C1003.93 701.97 1001.46 702.59 999.82 703.74C994.62 707.4 993.17 714.46 993.14 720.82C992.62 718.53 993.06 716.14 993.05 713.82C993.04 711.5 992.39 708.82 990.41 707.59C989.181 706.934 987.803 706.61 986.41 706.65C984.07 706.56 981.47 706.79 979.87 708.5C977.87 710.63 978.4 714.19 980.13 716.5C981.86 718.81 984.48 720.31 986.89 721.92C988.83 723.073 990.484 724.649 991.73 726.53C991.876 726.795 991.996 727.073 992.09 727.36H1006.74C1010.02 725.694 1013.06 723.591 1015.77 721.11Z" fill="#D01D1D" fill-opacity="0.87"/>
<path d="M44.34 637.26C44.34 637.26 49.83 644.44 41.8 655.26C33.77 666.08 27.15 675.26 29.8 682.02C29.8 682.02 41.91 661.88 51.8 661.59C61.69 661.3 55.18 649.37 44.34 637.26Z" fill="#D01D1D" fill-opacity="0.87"/>
<path opacity="0.1" d="M44.34 637.26C44.8167 637.954 45.1937 638.711 45.46 639.51C55.08 650.81 60.2 661.36 50.96 661.62C42.34 661.87 31.96 677.27 29.53 681.16C29.6149 681.462 29.7151 681.759 29.83 682.05C29.83 682.05 41.94 661.91 51.83 661.62C61.72 661.33 55.18 649.37 44.34 637.26Z" fill="black"/>
<path d="M54.55 646.41C54.55 648.94 54.26 650.99 53.91 650.99C53.56 650.99 53.28 648.99 53.28 646.41C53.28 643.83 53.63 645.07 53.99 645.07C54.35 645.07 54.55 643.88 54.55 646.41Z" fill="#FFD037"/>
<path d="M58.01 649.43C55.79 650.64 53.86 651.37 53.69 651.06C53.52 650.75 55.19 649.53 57.41 648.32C59.63 647.11 58.75 647.99 58.92 648.32C59.09 648.65 60.27 648.22 58.01 649.43Z" fill="#FFD037"/>
<path d="M15.32 637.26C15.32 637.26 9.82998 644.44 17.85 655.26C25.87 666.08 32.5 675.26 29.85 682.02C29.85 682.02 17.73 661.88 7.84998 661.59C-2.03002 661.3 4.46998 649.37 15.32 637.26Z" fill="#D01D1D" fill-opacity="0.87"/>
<path opacity="0.1" d="M15.32 637.26C14.8389 637.951 14.4615 638.709 14.2 639.51C4.58001 650.81 -0.549989 661.36 8.70001 661.62C17.31 661.87 27.7 677.27 30.12 681.16C30.0384 681.461 29.9416 681.758 29.83 682.05C29.83 682.05 17.71 661.91 7.83001 661.62C-2.04999 661.33 4.47001 649.37 15.32 637.26Z" fill="black"/>
<path d="M5.10999 646.41C5.10999 648.94 5.38999 650.99 5.73999 650.99C6.08999 650.99 6.36999 648.99 6.36999 646.41C6.36999 643.83 6.01999 645.07 5.66999 645.07C5.31999 645.07 5.10999 643.88 5.10999 646.41Z" fill="#FFD037"/>
<path d="M1.60002 649.43C3.82002 650.64 5.76002 651.37 5.93002 651.06C6.10002 650.75 4.43002 649.53 2.21002 648.32C-0.00997865 647.11 0.860027 647.99 0.700027 648.32C0.540027 648.65 -0.619979 648.22 1.60002 649.43Z" fill="#FFD037"/>
<path d="M6.85999 681.11C6.85999 681.11 22.22 680.64 26.86 677.34C31.5 674.04 50.49 670.11 51.64 675.34C52.79 680.57 74.72 701.64 57.38 701.78C40.04 701.92 17.09 699.07 12.47 696.26C7.84999 693.45 6.85999 681.11 6.85999 681.11Z" fill="#A8A8A8"/>
<path opacity="0.2" d="M57.67 699.99C40.33 700.13 17.38 697.28 12.76 694.47C9.23999 692.33 7.83999 684.64 7.36999 681.09H6.85999C6.85999 681.09 7.85999 693.48 12.45 696.29C17.04 699.1 40.02 701.95 57.36 701.81C62.36 701.81 64.09 699.98 64 697.35C63.3 698.96 61.4 699.96 57.67 699.99Z" fill="black"/>
<path d="M394.31 372.34C400.18 372.01 427.81 369.93 445.36 359.92C448.179 358.262 451.363 357.324 454.63 357.19C460.21 357.03 466.63 359.36 462.52 372.4C455.86 393.73 417.19 417.73 393.19 416.4C370.11 415.12 342.73 405.82 324.65 373.12C322.918 369.974 322.065 366.42 322.18 362.83C322.39 356.23 324.79 347.96 337.18 357.18C353.92 369.63 385.68 371.99 392.05 372.34C392.803 372.38 393.557 372.38 394.31 372.34Z" fill="black"/>
<path d="M616.31 372.34C622.18 372.01 649.81 369.93 667.36 359.92C670.179 358.262 673.363 357.324 676.63 357.19C682.21 357.03 688.63 359.36 684.52 372.4C677.86 393.73 639.19 417.73 615.19 416.4C592.11 415.12 564.73 405.82 546.65 373.12C544.918 369.974 544.064 366.42 544.18 362.83C544.39 356.23 546.79 347.96 559.18 357.18C575.92 369.63 607.68 371.99 614.05 372.34C614.803 372.38 615.557 372.38 616.31 372.34Z" fill="black"/>
<defs>
<linearGradient id="paint0_linear" x1="877.14" y1="715.99" x2="877.14" y2="221.95" gradientUnits="userSpaceOnUse">
<stop stop-color="#808080" stop-opacity="0.25"/>
<stop offset="0.54" stop-color="#808080" stop-opacity="0.12"/>
<stop offset="1" stop-color="#808080" stop-opacity="0.1"/>
</linearGradient>
</defs>
</svg>
