<svg width="295" height="282" viewBox="0 0 295 282" fill="none" xmlns="http://www.w3.org/2000/svg">
<path d="M106.841 240.825L123.342 244.915L132.965 206.09L116.464 202L106.841 240.825Z" fill="#0500FF"/>
<ellipse cx="150.5" cy="141.5" rx="82.5" ry="78.5" fill="#E31818"/>
<ellipse cx="156.727" cy="136" rx="68.7849" ry="63.3452" transform="rotate(24.2391 156.727 136)" fill="#FFA800" fill-opacity="0.47"/>
<g clip-path="url(#clip0)">
<path d="M29.3226 120.602L28.6561 137.589L68.6253 139.157L69.2918 122.17L29.3226 120.602Z" fill="#0500FF" fill-opacity="0.54"/>
<path d="M32.3509 129.986C32.1844 118.666 26.6774 109.568 20.0507 109.665C13.424 109.763 8.18698 119.019 8.3535 130.339C8.52002 141.66 14.027 150.758 20.6537 150.661C27.2804 150.563 32.5174 141.307 32.3509 129.986Z" fill="#087613" fill-opacity="0.62"/>
<path d="M32.3509 129.986C32.1844 118.666 26.6774 109.568 20.0507 109.665C13.424 109.763 8.18698 119.019 8.3535 130.339C8.52002 141.66 14.027 150.758 20.6537 150.661C27.2804 150.563 32.5174 141.307 32.3509 129.986Z" fill="#49CF57" fill-opacity="0.62"/>
<path d="M14.133 129.637C13.6707 137.583 24.0525 144.65 19.1244 144.363C14.1962 144.076 9.32059 138.264 9.8371 129.387C10.3536 120.51 15.8704 115.302 20.7985 115.589C25.7267 115.876 14.5954 121.691 14.133 129.637Z" fill="#FFF500" fill-opacity="0.43"/>
</g>
<rect x="122" y="25.7635" width="17" height="40" transform="rotate(-9.3554 122 25.7635)" fill="#C4C4C4"/>
<ellipse cx="127.604" cy="16.1358" rx="20.5" ry="12" transform="rotate(-12.445 127.604 16.1358)" fill="#C4C4C4"/>
<rect x="122" y="25.7635" width="17" height="40" transform="rotate(-9.3554 122 25.7635)" fill="#C4C4C4"/>
<ellipse cx="127.604" cy="16.1358" rx="20.5" ry="12" transform="rotate(-12.445 127.604 16.1358)" fill="#C4C4C4"/>
<rect x="122" y="25.7635" width="17" height="40" transform="rotate(-9.3554 122 25.7635)" fill="#0500FF" fill-opacity="0.54"/>
<ellipse cx="127.604" cy="16.1358" rx="20.5" ry="12" transform="rotate(-12.445 127.604 16.1358)" fill="#49CF57" fill-opacity="0.62"/>
<ellipse cx="127.604" cy="16.1358" rx="20.5" ry="12" transform="rotate(-12.445 127.604 16.1358)" fill="#49CF57" fill-opacity="0.62"/>
<g clip-path="url(#clip1)">
<path d="M247.495 70.2315L237.761 57.9141L205.801 81.8346L215.536 94.152L247.495 70.2315Z" fill="#0500FF" fill-opacity="0.54"/>
<path d="M239.482 65.5529C246.443 73.3793 256.207 76.3059 261.29 72.0895C266.373 67.8732 264.851 58.1106 257.889 50.2842C250.928 42.4578 241.164 39.5312 236.081 43.7475C230.998 47.9639 232.521 57.7265 239.482 65.5529Z" fill="#087613" fill-opacity="0.62"/>
<path d="M239.482 65.5529C246.443 73.3793 256.207 76.3059 261.29 72.0895C266.373 67.8732 264.851 58.1106 257.889 50.2842C250.928 42.4578 241.164 39.5312 236.081 43.7475C230.998 47.9639 232.521 57.7265 239.482 65.5529Z" fill="#49CF57" fill-opacity="0.62"/>
<path d="M252.695 53.835C247.609 47.7128 235.198 49.6348 238.996 46.4804C242.793 43.326 250.323 44.2454 256.005 51.0852C261.687 57.925 261.21 65.4964 257.413 68.6508C253.616 71.8052 257.781 59.9572 252.695 53.835Z" fill="#FFF500" fill-opacity="0.43"/>
</g>
<path d="M48.5264 198.767L57.1934 213.392L91.6045 192.999L82.9375 178.374L48.5264 198.767Z" fill="#0500FF" fill-opacity="0.54"/>
<path d="M56.1663 205.001C49.8776 195.587 40.312 190.939 34.801 194.62C29.2899 198.301 29.9204 208.918 36.2091 218.332C42.4978 227.747 52.0634 232.395 57.5744 228.714C63.0854 225.032 62.455 214.416 56.1663 205.001Z" fill="#087613" fill-opacity="0.62"/>
<path d="M56.1663 205.001C49.8776 195.587 40.312 190.939 34.801 194.62C29.2899 198.301 29.9204 208.918 36.2091 218.332C42.4978 227.747 52.0634 232.395 57.5744 228.714C63.0854 225.032 62.455 214.416 56.1663 205.001Z" fill="#49CF57" fill-opacity="0.62"/>
<g clip-path="url(#clip2)">
<path d="M253.851 163.387L255.317 146.45L215.466 143L214 159.937L253.851 163.387Z" fill="#0500FF"/>
<path d="M253.268 152.489C252.901 163.805 257.973 173.153 264.597 173.368C271.221 173.583 276.888 164.583 277.256 153.268C277.623 141.952 272.551 132.604 265.927 132.389C259.303 132.174 253.635 141.173 253.268 152.489Z" fill="#087613" fill-opacity="0.62"/>
<path d="M253.268 152.489C252.901 163.805 257.973 173.153 264.597 173.368C271.221 173.583 276.888 164.583 277.256 153.268C277.623 141.952 272.551 132.604 265.927 132.389C259.303 132.174 253.635 141.173 253.268 152.489Z" fill="#49CF57" fill-opacity="0.62"/>
<path d="M270.395 152.739C269.682 144.812 258.373 139.351 263.289 138.908C268.206 138.466 273.884 143.497 274.681 152.353C275.477 161.21 270.787 167.173 265.871 167.615C260.954 168.057 271.108 160.666 270.395 152.739Z" fill="#FFF500" fill-opacity="0.43"/>
</g>
<path d="M128.01 10.433C120.254 12.2224 116.39 24.1719 115.28 19.3618C114.17 14.5517 118.378 8.23909 127.042 6.23996C135.707 4.24084 142.255 8.07177 143.365 12.8819C144.474 17.6919 135.765 8.64363 128.01 10.433Z" fill="#FFF500" fill-opacity="0.43"/>
<path d="M113.827 241.04C102.727 238.809 92.6706 242.267 91.3646 248.765C90.0587 255.262 97.9982 262.338 109.098 264.569C120.198 266.8 130.255 263.341 131.561 256.844C132.867 250.346 124.927 243.271 113.827 241.04Z" fill="#087613" fill-opacity="0.62"/>
<path d="M113.827 241.04C102.727 238.809 92.6706 242.267 91.3646 248.765C90.0587 255.262 97.9982 262.338 109.098 264.569C120.198 266.8 130.255 263.341 131.561 256.844C132.867 250.346 124.927 243.271 113.827 241.04Z" fill="#49CF57" fill-opacity="0.62"/>
<path d="M109.038 257.772C116.699 259.93 125.831 251.308 124.492 256.06C123.154 260.811 116.431 264.325 107.872 261.914C99.3125 259.504 95.4111 252.997 96.7494 248.246C98.0876 243.494 101.377 255.615 109.038 257.772Z" fill="#FFF500" fill-opacity="0.43"/>
<path d="M44.7191 219.547C49.9532 225.543 62.3134 223.318 58.5945 226.564C54.8757 229.811 47.325 229.076 41.4773 222.377C35.6296 215.678 35.9211 208.098 39.64 204.851C43.3588 201.605 39.4849 213.551 44.7191 219.547Z" fill="#FFF500" fill-opacity="0.43"/>
<g clip-path="url(#clip3)">
<path d="M224.932 221.081L236.402 208.533L206.877 181.545L195.408 194.093L224.932 221.081Z" fill="#0500FF"/>
<path d="M228.673 211.957C221.496 220.713 219.833 231.217 224.959 235.419C230.084 239.62 240.058 235.927 247.235 227.171C254.412 218.415 256.075 207.911 250.95 203.709C245.824 199.508 235.851 203.201 228.673 211.957Z" fill="#087613" fill-opacity="0.62"/>
<path d="M228.673 211.957C221.496 220.713 219.833 231.217 224.959 235.419C230.084 239.62 240.058 235.927 247.235 227.171C254.412 218.415 256.075 207.911 250.95 203.709C245.824 199.508 235.851 203.201 228.673 211.957Z" fill="#49CF57" fill-opacity="0.62"/>
<path d="M241.543 221.724C246.488 215.487 242.055 203.737 245.923 206.804C249.791 209.872 250.44 217.43 244.915 224.397C239.39 231.365 231.882 232.455 228.014 229.388C224.146 226.32 236.598 227.96 241.543 221.724Z" fill="#FFF500" fill-opacity="0.43"/>
</g>
<g clip-path="url(#clip4)">
<path d="M176.551 257.509L193.057 253.443L183.489 214.604L166.982 218.67L176.551 257.509Z" fill="#0500FF" fill-opacity="0.54"/>
<path d="M184.729 251.999C173.897 255.296 166.682 263.108 168.611 269.449C170.541 275.789 180.886 278.256 191.717 274.959C202.549 271.662 209.764 263.85 207.835 257.509C205.905 251.169 195.56 248.702 184.729 251.999Z" fill="#087613" fill-opacity="0.62"/>
<path d="M184.729 251.999C173.897 255.296 166.682 263.108 168.611 269.449C170.541 275.789 180.886 278.256 191.717 274.959C202.549 271.662 209.764 263.85 207.835 257.509C205.905 251.169 195.56 248.702 184.729 251.999Z" fill="#49CF57" fill-opacity="0.62"/>
<path d="M189.515 269.797C197.64 267.008 200.729 254.555 202.332 259.224C203.935 263.893 199.99 270.751 190.912 273.867C181.834 276.984 174.509 273.995 172.906 269.327C171.303 264.658 181.389 272.587 189.515 269.797Z" fill="#FFF500" fill-opacity="0.43"/>
</g>
<ellipse cx="144.5" cy="146.618" rx="74.0196" ry="71.0746" transform="rotate(-1.20672 144.5 146.618)" fill="#FF2E00" fill-opacity="0.8"/>
<g clip-path="url(#clip5)">
<path d="M256.997 110.476C260.8 121.14 268.943 127.98 275.186 125.753C281.428 123.527 283.405 113.078 279.602 102.414C275.799 91.7496 267.655 84.9096 261.413 87.1358C255.171 89.3621 253.193 99.8117 256.997 110.476Z" fill="#087613" fill-opacity="0.62"/>
<path d="M272.702 105.963C270.297 98.376 258.076 95.4826 262.781 93.9905C267.487 92.4983 274.117 96.186 276.804 104.662C279.492 113.138 276.199 119.973 271.493 121.465C266.788 122.957 275.108 113.55 272.702 105.963Z" fill="#FFF500" fill-opacity="0.43"/>
<path d="M262.886 118.385L258.046 102.088L219.701 113.475L224.541 129.771L262.886 118.385Z" fill="#0500FF"/>
</g>
<g clip-path="url(#clip6)">
<path d="M59.6533 167.282C55.587 156.715 47.2766 150.079 41.0914 152.459C34.9061 154.839 33.1883 165.335 37.2545 175.901C41.3207 186.468 49.6312 193.104 55.8164 190.724C62.0017 188.343 63.7195 177.848 59.6533 167.282Z" fill="#087613" fill-opacity="0.62"/>
<path d="M44.0641 172.182C46.6571 179.707 58.946 182.297 54.2789 183.905C49.6117 185.513 42.8926 181.991 39.9957 173.584C37.0987 165.177 40.2217 158.263 44.8888 156.655C49.5559 155.047 41.4711 164.657 44.0641 172.182Z" fill="#FFF500" fill-opacity="0.43"/>
<path d="M53.5701 159.521L58.8116 175.693L96.8628 163.36L91.6213 147.188L53.5701 159.521Z" fill="#0500FF"/>
</g>
<g clip-path="url(#clip7)">
<path d="M73.0744 66.2584C81.826 59.0755 85.512 49.0997 81.3073 43.9768C77.1027 38.854 66.5996 40.524 57.8481 47.7069C49.0965 54.8898 45.4105 64.8656 49.6151 69.9885C53.8198 75.1113 64.3228 73.4413 73.0744 66.2584Z" fill="#087613" fill-opacity="0.62"/>
<path d="M63.52 53.0013C57.1924 57.8292 58.5987 70.3091 55.6043 66.3845C52.6099 62.46 53.8404 54.974 60.9097 49.5802C67.979 44.1864 75.5242 44.9766 78.5186 48.9011C81.513 52.8257 69.8476 48.1734 63.52 53.0013Z" fill="#FFF500" fill-opacity="0.43"/>
<path d="M78.5285 58.0432L64.8256 68.1045L88.4994 100.347L102.202 90.2852L78.5285 58.0432Z" fill="#0500FF"/>
</g>
<g clip-path="url(#clip8)">
<path d="M181.631 45.8683C192.254 47.6125 201.846 43.7568 203.054 37.2563C204.263 30.7558 196.63 24.0721 186.006 22.3279C175.382 20.5837 165.791 24.4394 164.582 30.9399C163.374 37.4405 171.007 44.1241 181.631 45.8683Z" fill="#087613" fill-opacity="0.62"/>
<path d="M185.564 30.0159C178.151 28.5182 169.814 37.8061 170.88 32.9945C171.947 28.183 178.212 24.1483 186.494 25.8216C194.776 27.4948 198.791 33.6067 197.725 38.4183C196.658 43.2298 192.977 31.5136 185.564 30.0159Z" fill="#FFF500" fill-opacity="0.43"/>
<path d="M190.995 44.4662L175.232 40.9626L165.904 79.805L181.667 83.3086L190.995 44.4662Z" fill="#0500FF"/>
</g>
<defs>
<clipPath id="clip0">
<rect width="46" height="66" fill="white" transform="translate(0 149.06) rotate(-78.3977)"/>
</clipPath>
<clipPath id="clip1">
<rect width="42.3823" height="66" fill="white" transform="translate(253.073 31.9404) rotate(61.8178)"/>
</clipPath>
<clipPath id="clip2">
<rect width="46" height="66" fill="white" transform="translate(294.162 136.847) rotate(111.181)"/>
</clipPath>
<clipPath id="clip3">
<rect width="46" height="66" fill="white" transform="translate(265.696 218.258) rotate(141.785)"/>
</clipPath>
<clipPath id="clip4">
<rect width="46" height="66" fill="white" transform="translate(212.02 277.798) rotate(175.515)"/>
</clipPath>
<clipPath id="clip5">
<rect width="46" height="66" fill="white" transform="translate(281.482 82) rotate(82.8166)"/>
</clipPath>
<clipPath id="clip6">
<rect width="46" height="66" fill="white" transform="translate(35.8809 196.355) rotate(-98.6029)"/>
</clipPath>
<clipPath id="clip7">
<rect width="46" height="66" fill="white" transform="translate(38 52.8354) rotate(-26.9327)"/>
</clipPath>
<clipPath id="clip8">
<rect width="43.6293" height="66" fill="white" transform="translate(170.135 11) rotate(22.3853)"/>
</clipPath>
</defs>
</svg>
